%TF.GenerationSoftware,KiCad,Pcbnew,9.0.4*%
%TF.CreationDate,2025-11-11T13:18:43+01:00*%
%TF.ProjectId,e003_rocker,65303033-5f72-46f6-936b-65722e6b6963,rev?*%
%TF.SameCoordinates,Original*%
%TF.FileFunction,Legend,Top*%
%TF.FilePolarity,Positive*%
%FSLAX46Y46*%
G04 Gerber Fmt 4.6, Leading zero omitted, Abs format (unit mm)*
G04 Created by KiCad (PCBNEW 9.0.4) date 2025-11-11 13:18:43*
%MOMM*%
%LPD*%
G01*
G04 APERTURE LIST*
%ADD10C,0.300000*%
%ADD11C,0.150000*%
%ADD12C,0.120000*%
%ADD13C,0.127000*%
%ADD14C,0.200000*%
G04 APERTURE END LIST*
D10*
X128483082Y-150739638D02*
X128959272Y-152739638D01*
X128959272Y-152739638D02*
X129340225Y-151311066D01*
X129340225Y-151311066D02*
X129721177Y-152739638D01*
X129721177Y-152739638D02*
X130197368Y-150739638D01*
X130959272Y-152739638D02*
X130959272Y-150739638D01*
X132578320Y-151692019D02*
X131911653Y-151692019D01*
X131911653Y-152739638D02*
X131911653Y-150739638D01*
X131911653Y-150739638D02*
X132864034Y-150739638D01*
X133625939Y-152739638D02*
X133625939Y-150739638D01*
X136673558Y-90989638D02*
X136673558Y-92608685D01*
X136673558Y-92608685D02*
X136768796Y-92799161D01*
X136768796Y-92799161D02*
X136864034Y-92894400D01*
X136864034Y-92894400D02*
X137054510Y-92989638D01*
X137054510Y-92989638D02*
X137435463Y-92989638D01*
X137435463Y-92989638D02*
X137625939Y-92894400D01*
X137625939Y-92894400D02*
X137721177Y-92799161D01*
X137721177Y-92799161D02*
X137816415Y-92608685D01*
X137816415Y-92608685D02*
X137816415Y-90989638D01*
X138673558Y-92894400D02*
X138959272Y-92989638D01*
X138959272Y-92989638D02*
X139435463Y-92989638D01*
X139435463Y-92989638D02*
X139625939Y-92894400D01*
X139625939Y-92894400D02*
X139721177Y-92799161D01*
X139721177Y-92799161D02*
X139816415Y-92608685D01*
X139816415Y-92608685D02*
X139816415Y-92418209D01*
X139816415Y-92418209D02*
X139721177Y-92227733D01*
X139721177Y-92227733D02*
X139625939Y-92132495D01*
X139625939Y-92132495D02*
X139435463Y-92037257D01*
X139435463Y-92037257D02*
X139054510Y-91942019D01*
X139054510Y-91942019D02*
X138864034Y-91846780D01*
X138864034Y-91846780D02*
X138768796Y-91751542D01*
X138768796Y-91751542D02*
X138673558Y-91561066D01*
X138673558Y-91561066D02*
X138673558Y-91370590D01*
X138673558Y-91370590D02*
X138768796Y-91180114D01*
X138768796Y-91180114D02*
X138864034Y-91084876D01*
X138864034Y-91084876D02*
X139054510Y-90989638D01*
X139054510Y-90989638D02*
X139530701Y-90989638D01*
X139530701Y-90989638D02*
X139816415Y-91084876D01*
X141340225Y-91942019D02*
X141625939Y-92037257D01*
X141625939Y-92037257D02*
X141721177Y-92132495D01*
X141721177Y-92132495D02*
X141816415Y-92322971D01*
X141816415Y-92322971D02*
X141816415Y-92608685D01*
X141816415Y-92608685D02*
X141721177Y-92799161D01*
X141721177Y-92799161D02*
X141625939Y-92894400D01*
X141625939Y-92894400D02*
X141435463Y-92989638D01*
X141435463Y-92989638D02*
X140673558Y-92989638D01*
X140673558Y-92989638D02*
X140673558Y-90989638D01*
X140673558Y-90989638D02*
X141340225Y-90989638D01*
X141340225Y-90989638D02*
X141530701Y-91084876D01*
X141530701Y-91084876D02*
X141625939Y-91180114D01*
X141625939Y-91180114D02*
X141721177Y-91370590D01*
X141721177Y-91370590D02*
X141721177Y-91561066D01*
X141721177Y-91561066D02*
X141625939Y-91751542D01*
X141625939Y-91751542D02*
X141530701Y-91846780D01*
X141530701Y-91846780D02*
X141340225Y-91942019D01*
X141340225Y-91942019D02*
X140673558Y-91942019D01*
X115673558Y-167739638D02*
X115673558Y-165739638D01*
X115673558Y-165739638D02*
X116340225Y-167168209D01*
X116340225Y-167168209D02*
X117006891Y-165739638D01*
X117006891Y-165739638D02*
X117006891Y-167739638D01*
X117959272Y-167739638D02*
X117959272Y-165739638D01*
X120054510Y-167549161D02*
X119959272Y-167644400D01*
X119959272Y-167644400D02*
X119673558Y-167739638D01*
X119673558Y-167739638D02*
X119483082Y-167739638D01*
X119483082Y-167739638D02*
X119197367Y-167644400D01*
X119197367Y-167644400D02*
X119006891Y-167453923D01*
X119006891Y-167453923D02*
X118911653Y-167263447D01*
X118911653Y-167263447D02*
X118816415Y-166882495D01*
X118816415Y-166882495D02*
X118816415Y-166596780D01*
X118816415Y-166596780D02*
X118911653Y-166215828D01*
X118911653Y-166215828D02*
X119006891Y-166025352D01*
X119006891Y-166025352D02*
X119197367Y-165834876D01*
X119197367Y-165834876D02*
X119483082Y-165739638D01*
X119483082Y-165739638D02*
X119673558Y-165739638D01*
X119673558Y-165739638D02*
X119959272Y-165834876D01*
X119959272Y-165834876D02*
X120054510Y-165930114D01*
D11*
X109818277Y-104684828D02*
X109818277Y-103684828D01*
X109818277Y-103684828D02*
X110151610Y-104399113D01*
X110151610Y-104399113D02*
X110484943Y-103684828D01*
X110484943Y-103684828D02*
X110484943Y-104684828D01*
X111437324Y-103684828D02*
X110961134Y-103684828D01*
X110961134Y-103684828D02*
X110913515Y-104161018D01*
X110913515Y-104161018D02*
X110961134Y-104113399D01*
X110961134Y-104113399D02*
X111056372Y-104065780D01*
X111056372Y-104065780D02*
X111294467Y-104065780D01*
X111294467Y-104065780D02*
X111389705Y-104113399D01*
X111389705Y-104113399D02*
X111437324Y-104161018D01*
X111437324Y-104161018D02*
X111484943Y-104256256D01*
X111484943Y-104256256D02*
X111484943Y-104494351D01*
X111484943Y-104494351D02*
X111437324Y-104589589D01*
X111437324Y-104589589D02*
X111389705Y-104637209D01*
X111389705Y-104637209D02*
X111294467Y-104684828D01*
X111294467Y-104684828D02*
X111056372Y-104684828D01*
X111056372Y-104684828D02*
X110961134Y-104637209D01*
X110961134Y-104637209D02*
X110913515Y-104589589D01*
X113190476Y-94454819D02*
X113190476Y-93454819D01*
X113190476Y-93454819D02*
X113523809Y-94169104D01*
X113523809Y-94169104D02*
X113857142Y-93454819D01*
X113857142Y-93454819D02*
X113857142Y-94454819D01*
X114285714Y-93550057D02*
X114333333Y-93502438D01*
X114333333Y-93502438D02*
X114428571Y-93454819D01*
X114428571Y-93454819D02*
X114666666Y-93454819D01*
X114666666Y-93454819D02*
X114761904Y-93502438D01*
X114761904Y-93502438D02*
X114809523Y-93550057D01*
X114809523Y-93550057D02*
X114857142Y-93645295D01*
X114857142Y-93645295D02*
X114857142Y-93740533D01*
X114857142Y-93740533D02*
X114809523Y-93883390D01*
X114809523Y-93883390D02*
X114238095Y-94454819D01*
X114238095Y-94454819D02*
X114857142Y-94454819D01*
X150190476Y-165254819D02*
X150190476Y-164254819D01*
X150190476Y-164254819D02*
X150523809Y-164969104D01*
X150523809Y-164969104D02*
X150857142Y-164254819D01*
X150857142Y-164254819D02*
X150857142Y-165254819D01*
X151761904Y-164588152D02*
X151761904Y-165254819D01*
X151523809Y-164207200D02*
X151285714Y-164921485D01*
X151285714Y-164921485D02*
X151904761Y-164921485D01*
X147190476Y-95454819D02*
X147190476Y-94454819D01*
X147190476Y-94454819D02*
X147523809Y-95169104D01*
X147523809Y-95169104D02*
X147857142Y-94454819D01*
X147857142Y-94454819D02*
X147857142Y-95454819D01*
X148238095Y-94454819D02*
X148857142Y-94454819D01*
X148857142Y-94454819D02*
X148523809Y-94835771D01*
X148523809Y-94835771D02*
X148666666Y-94835771D01*
X148666666Y-94835771D02*
X148761904Y-94883390D01*
X148761904Y-94883390D02*
X148809523Y-94931009D01*
X148809523Y-94931009D02*
X148857142Y-95026247D01*
X148857142Y-95026247D02*
X148857142Y-95264342D01*
X148857142Y-95264342D02*
X148809523Y-95359580D01*
X148809523Y-95359580D02*
X148761904Y-95407200D01*
X148761904Y-95407200D02*
X148666666Y-95454819D01*
X148666666Y-95454819D02*
X148380952Y-95454819D01*
X148380952Y-95454819D02*
X148285714Y-95407200D01*
X148285714Y-95407200D02*
X148238095Y-95359580D01*
X122190476Y-165254819D02*
X122190476Y-164254819D01*
X122190476Y-164254819D02*
X122523809Y-164969104D01*
X122523809Y-164969104D02*
X122857142Y-164254819D01*
X122857142Y-164254819D02*
X122857142Y-165254819D01*
X123857142Y-165254819D02*
X123285714Y-165254819D01*
X123571428Y-165254819D02*
X123571428Y-164254819D01*
X123571428Y-164254819D02*
X123476190Y-164397676D01*
X123476190Y-164397676D02*
X123380952Y-164492914D01*
X123380952Y-164492914D02*
X123285714Y-164540533D01*
X132554819Y-121892857D02*
X132078628Y-122226190D01*
X132554819Y-122464285D02*
X131554819Y-122464285D01*
X131554819Y-122464285D02*
X131554819Y-122083333D01*
X131554819Y-122083333D02*
X131602438Y-121988095D01*
X131602438Y-121988095D02*
X131650057Y-121940476D01*
X131650057Y-121940476D02*
X131745295Y-121892857D01*
X131745295Y-121892857D02*
X131888152Y-121892857D01*
X131888152Y-121892857D02*
X131983390Y-121940476D01*
X131983390Y-121940476D02*
X132031009Y-121988095D01*
X132031009Y-121988095D02*
X132078628Y-122083333D01*
X132078628Y-122083333D02*
X132078628Y-122464285D01*
X132554819Y-120940476D02*
X132554819Y-121511904D01*
X132554819Y-121226190D02*
X131554819Y-121226190D01*
X131554819Y-121226190D02*
X131697676Y-121321428D01*
X131697676Y-121321428D02*
X131792914Y-121416666D01*
X131792914Y-121416666D02*
X131840533Y-121511904D01*
X131983390Y-120369047D02*
X131935771Y-120464285D01*
X131935771Y-120464285D02*
X131888152Y-120511904D01*
X131888152Y-120511904D02*
X131792914Y-120559523D01*
X131792914Y-120559523D02*
X131745295Y-120559523D01*
X131745295Y-120559523D02*
X131650057Y-120511904D01*
X131650057Y-120511904D02*
X131602438Y-120464285D01*
X131602438Y-120464285D02*
X131554819Y-120369047D01*
X131554819Y-120369047D02*
X131554819Y-120178571D01*
X131554819Y-120178571D02*
X131602438Y-120083333D01*
X131602438Y-120083333D02*
X131650057Y-120035714D01*
X131650057Y-120035714D02*
X131745295Y-119988095D01*
X131745295Y-119988095D02*
X131792914Y-119988095D01*
X131792914Y-119988095D02*
X131888152Y-120035714D01*
X131888152Y-120035714D02*
X131935771Y-120083333D01*
X131935771Y-120083333D02*
X131983390Y-120178571D01*
X131983390Y-120178571D02*
X131983390Y-120369047D01*
X131983390Y-120369047D02*
X132031009Y-120464285D01*
X132031009Y-120464285D02*
X132078628Y-120511904D01*
X132078628Y-120511904D02*
X132173866Y-120559523D01*
X132173866Y-120559523D02*
X132364342Y-120559523D01*
X132364342Y-120559523D02*
X132459580Y-120511904D01*
X132459580Y-120511904D02*
X132507200Y-120464285D01*
X132507200Y-120464285D02*
X132554819Y-120369047D01*
X132554819Y-120369047D02*
X132554819Y-120178571D01*
X132554819Y-120178571D02*
X132507200Y-120083333D01*
X132507200Y-120083333D02*
X132459580Y-120035714D01*
X132459580Y-120035714D02*
X132364342Y-119988095D01*
X132364342Y-119988095D02*
X132173866Y-119988095D01*
X132173866Y-119988095D02*
X132078628Y-120035714D01*
X132078628Y-120035714D02*
X132031009Y-120083333D01*
X132031009Y-120083333D02*
X131983390Y-120178571D01*
D12*
X131466666Y-146817593D02*
X131466666Y-147384260D01*
X131466666Y-147384260D02*
X131500000Y-147450926D01*
X131500000Y-147450926D02*
X131533333Y-147484260D01*
X131533333Y-147484260D02*
X131600000Y-147517593D01*
X131600000Y-147517593D02*
X131733333Y-147517593D01*
X131733333Y-147517593D02*
X131800000Y-147484260D01*
X131800000Y-147484260D02*
X131833333Y-147450926D01*
X131833333Y-147450926D02*
X131866666Y-147384260D01*
X131866666Y-147384260D02*
X131866666Y-146817593D01*
X132566666Y-147517593D02*
X132166666Y-147517593D01*
X132366666Y-147517593D02*
X132366666Y-146817593D01*
X132366666Y-146817593D02*
X132299999Y-146917593D01*
X132299999Y-146917593D02*
X132233333Y-146984260D01*
X132233333Y-146984260D02*
X132166666Y-147017593D01*
X121817593Y-156700000D02*
X121484260Y-156933333D01*
X121817593Y-157100000D02*
X121117593Y-157100000D01*
X121117593Y-157100000D02*
X121117593Y-156833333D01*
X121117593Y-156833333D02*
X121150926Y-156766667D01*
X121150926Y-156766667D02*
X121184260Y-156733333D01*
X121184260Y-156733333D02*
X121250926Y-156700000D01*
X121250926Y-156700000D02*
X121350926Y-156700000D01*
X121350926Y-156700000D02*
X121417593Y-156733333D01*
X121417593Y-156733333D02*
X121450926Y-156766667D01*
X121450926Y-156766667D02*
X121484260Y-156833333D01*
X121484260Y-156833333D02*
X121484260Y-157100000D01*
X121817593Y-156033333D02*
X121817593Y-156433333D01*
X121817593Y-156233333D02*
X121117593Y-156233333D01*
X121117593Y-156233333D02*
X121217593Y-156300000D01*
X121217593Y-156300000D02*
X121284260Y-156366667D01*
X121284260Y-156366667D02*
X121317593Y-156433333D01*
X121117593Y-155433333D02*
X121117593Y-155566666D01*
X121117593Y-155566666D02*
X121150926Y-155633333D01*
X121150926Y-155633333D02*
X121184260Y-155666666D01*
X121184260Y-155666666D02*
X121284260Y-155733333D01*
X121284260Y-155733333D02*
X121417593Y-155766666D01*
X121417593Y-155766666D02*
X121684260Y-155766666D01*
X121684260Y-155766666D02*
X121750926Y-155733333D01*
X121750926Y-155733333D02*
X121784260Y-155700000D01*
X121784260Y-155700000D02*
X121817593Y-155633333D01*
X121817593Y-155633333D02*
X121817593Y-155500000D01*
X121817593Y-155500000D02*
X121784260Y-155433333D01*
X121784260Y-155433333D02*
X121750926Y-155400000D01*
X121750926Y-155400000D02*
X121684260Y-155366666D01*
X121684260Y-155366666D02*
X121517593Y-155366666D01*
X121517593Y-155366666D02*
X121450926Y-155400000D01*
X121450926Y-155400000D02*
X121417593Y-155433333D01*
X121417593Y-155433333D02*
X121384260Y-155500000D01*
X121384260Y-155500000D02*
X121384260Y-155633333D01*
X121384260Y-155633333D02*
X121417593Y-155700000D01*
X121417593Y-155700000D02*
X121450926Y-155733333D01*
X121450926Y-155733333D02*
X121517593Y-155766666D01*
X119817593Y-156700000D02*
X119484260Y-156933333D01*
X119817593Y-157100000D02*
X119117593Y-157100000D01*
X119117593Y-157100000D02*
X119117593Y-156833333D01*
X119117593Y-156833333D02*
X119150926Y-156766667D01*
X119150926Y-156766667D02*
X119184260Y-156733333D01*
X119184260Y-156733333D02*
X119250926Y-156700000D01*
X119250926Y-156700000D02*
X119350926Y-156700000D01*
X119350926Y-156700000D02*
X119417593Y-156733333D01*
X119417593Y-156733333D02*
X119450926Y-156766667D01*
X119450926Y-156766667D02*
X119484260Y-156833333D01*
X119484260Y-156833333D02*
X119484260Y-157100000D01*
X119817593Y-156033333D02*
X119817593Y-156433333D01*
X119817593Y-156233333D02*
X119117593Y-156233333D01*
X119117593Y-156233333D02*
X119217593Y-156300000D01*
X119217593Y-156300000D02*
X119284260Y-156366667D01*
X119284260Y-156366667D02*
X119317593Y-156433333D01*
X119117593Y-155400000D02*
X119117593Y-155733333D01*
X119117593Y-155733333D02*
X119450926Y-155766666D01*
X119450926Y-155766666D02*
X119417593Y-155733333D01*
X119417593Y-155733333D02*
X119384260Y-155666666D01*
X119384260Y-155666666D02*
X119384260Y-155500000D01*
X119384260Y-155500000D02*
X119417593Y-155433333D01*
X119417593Y-155433333D02*
X119450926Y-155400000D01*
X119450926Y-155400000D02*
X119517593Y-155366666D01*
X119517593Y-155366666D02*
X119684260Y-155366666D01*
X119684260Y-155366666D02*
X119750926Y-155400000D01*
X119750926Y-155400000D02*
X119784260Y-155433333D01*
X119784260Y-155433333D02*
X119817593Y-155500000D01*
X119817593Y-155500000D02*
X119817593Y-155666666D01*
X119817593Y-155666666D02*
X119784260Y-155733333D01*
X119784260Y-155733333D02*
X119750926Y-155766666D01*
X117817593Y-156700000D02*
X117484260Y-156933333D01*
X117817593Y-157100000D02*
X117117593Y-157100000D01*
X117117593Y-157100000D02*
X117117593Y-156833333D01*
X117117593Y-156833333D02*
X117150926Y-156766667D01*
X117150926Y-156766667D02*
X117184260Y-156733333D01*
X117184260Y-156733333D02*
X117250926Y-156700000D01*
X117250926Y-156700000D02*
X117350926Y-156700000D01*
X117350926Y-156700000D02*
X117417593Y-156733333D01*
X117417593Y-156733333D02*
X117450926Y-156766667D01*
X117450926Y-156766667D02*
X117484260Y-156833333D01*
X117484260Y-156833333D02*
X117484260Y-157100000D01*
X117817593Y-156033333D02*
X117817593Y-156433333D01*
X117817593Y-156233333D02*
X117117593Y-156233333D01*
X117117593Y-156233333D02*
X117217593Y-156300000D01*
X117217593Y-156300000D02*
X117284260Y-156366667D01*
X117284260Y-156366667D02*
X117317593Y-156433333D01*
X117350926Y-155433333D02*
X117817593Y-155433333D01*
X117084260Y-155600000D02*
X117584260Y-155766666D01*
X117584260Y-155766666D02*
X117584260Y-155333333D01*
X121846888Y-147780854D02*
X121880222Y-147814187D01*
X121880222Y-147814187D02*
X121913555Y-147914187D01*
X121913555Y-147914187D02*
X121913555Y-147980854D01*
X121913555Y-147980854D02*
X121880222Y-148080854D01*
X121880222Y-148080854D02*
X121813555Y-148147521D01*
X121813555Y-148147521D02*
X121746888Y-148180854D01*
X121746888Y-148180854D02*
X121613555Y-148214187D01*
X121613555Y-148214187D02*
X121513555Y-148214187D01*
X121513555Y-148214187D02*
X121380222Y-148180854D01*
X121380222Y-148180854D02*
X121313555Y-148147521D01*
X121313555Y-148147521D02*
X121246888Y-148080854D01*
X121246888Y-148080854D02*
X121213555Y-147980854D01*
X121213555Y-147980854D02*
X121213555Y-147914187D01*
X121213555Y-147914187D02*
X121246888Y-147814187D01*
X121246888Y-147814187D02*
X121280222Y-147780854D01*
X121913555Y-147114187D02*
X121913555Y-147514187D01*
X121913555Y-147314187D02*
X121213555Y-147314187D01*
X121213555Y-147314187D02*
X121313555Y-147380854D01*
X121313555Y-147380854D02*
X121380222Y-147447521D01*
X121380222Y-147447521D02*
X121413555Y-147514187D01*
X121280222Y-146847520D02*
X121246888Y-146814187D01*
X121246888Y-146814187D02*
X121213555Y-146747520D01*
X121213555Y-146747520D02*
X121213555Y-146580854D01*
X121213555Y-146580854D02*
X121246888Y-146514187D01*
X121246888Y-146514187D02*
X121280222Y-146480854D01*
X121280222Y-146480854D02*
X121346888Y-146447520D01*
X121346888Y-146447520D02*
X121413555Y-146447520D01*
X121413555Y-146447520D02*
X121513555Y-146480854D01*
X121513555Y-146480854D02*
X121913555Y-146880854D01*
X121913555Y-146880854D02*
X121913555Y-146447520D01*
X119989311Y-147685593D02*
X120022645Y-147718926D01*
X120022645Y-147718926D02*
X120055978Y-147818926D01*
X120055978Y-147818926D02*
X120055978Y-147885593D01*
X120055978Y-147885593D02*
X120022645Y-147985593D01*
X120022645Y-147985593D02*
X119955978Y-148052260D01*
X119955978Y-148052260D02*
X119889311Y-148085593D01*
X119889311Y-148085593D02*
X119755978Y-148118926D01*
X119755978Y-148118926D02*
X119655978Y-148118926D01*
X119655978Y-148118926D02*
X119522645Y-148085593D01*
X119522645Y-148085593D02*
X119455978Y-148052260D01*
X119455978Y-148052260D02*
X119389311Y-147985593D01*
X119389311Y-147985593D02*
X119355978Y-147885593D01*
X119355978Y-147885593D02*
X119355978Y-147818926D01*
X119355978Y-147818926D02*
X119389311Y-147718926D01*
X119389311Y-147718926D02*
X119422645Y-147685593D01*
X120055978Y-147018926D02*
X120055978Y-147418926D01*
X120055978Y-147218926D02*
X119355978Y-147218926D01*
X119355978Y-147218926D02*
X119455978Y-147285593D01*
X119455978Y-147285593D02*
X119522645Y-147352260D01*
X119522645Y-147352260D02*
X119555978Y-147418926D01*
X120055978Y-146352259D02*
X120055978Y-146752259D01*
X120055978Y-146552259D02*
X119355978Y-146552259D01*
X119355978Y-146552259D02*
X119455978Y-146618926D01*
X119455978Y-146618926D02*
X119522645Y-146685593D01*
X119522645Y-146685593D02*
X119555978Y-146752259D01*
X118398462Y-147704645D02*
X118431796Y-147737978D01*
X118431796Y-147737978D02*
X118465129Y-147837978D01*
X118465129Y-147837978D02*
X118465129Y-147904645D01*
X118465129Y-147904645D02*
X118431796Y-148004645D01*
X118431796Y-148004645D02*
X118365129Y-148071312D01*
X118365129Y-148071312D02*
X118298462Y-148104645D01*
X118298462Y-148104645D02*
X118165129Y-148137978D01*
X118165129Y-148137978D02*
X118065129Y-148137978D01*
X118065129Y-148137978D02*
X117931796Y-148104645D01*
X117931796Y-148104645D02*
X117865129Y-148071312D01*
X117865129Y-148071312D02*
X117798462Y-148004645D01*
X117798462Y-148004645D02*
X117765129Y-147904645D01*
X117765129Y-147904645D02*
X117765129Y-147837978D01*
X117765129Y-147837978D02*
X117798462Y-147737978D01*
X117798462Y-147737978D02*
X117831796Y-147704645D01*
X118465129Y-147037978D02*
X118465129Y-147437978D01*
X118465129Y-147237978D02*
X117765129Y-147237978D01*
X117765129Y-147237978D02*
X117865129Y-147304645D01*
X117865129Y-147304645D02*
X117931796Y-147371312D01*
X117931796Y-147371312D02*
X117965129Y-147437978D01*
X117765129Y-146604645D02*
X117765129Y-146537978D01*
X117765129Y-146537978D02*
X117798462Y-146471311D01*
X117798462Y-146471311D02*
X117831796Y-146437978D01*
X117831796Y-146437978D02*
X117898462Y-146404645D01*
X117898462Y-146404645D02*
X118031796Y-146371311D01*
X118031796Y-146371311D02*
X118198462Y-146371311D01*
X118198462Y-146371311D02*
X118331796Y-146404645D01*
X118331796Y-146404645D02*
X118398462Y-146437978D01*
X118398462Y-146437978D02*
X118431796Y-146471311D01*
X118431796Y-146471311D02*
X118465129Y-146537978D01*
X118465129Y-146537978D02*
X118465129Y-146604645D01*
X118465129Y-146604645D02*
X118431796Y-146671311D01*
X118431796Y-146671311D02*
X118398462Y-146704645D01*
X118398462Y-146704645D02*
X118331796Y-146737978D01*
X118331796Y-146737978D02*
X118198462Y-146771311D01*
X118198462Y-146771311D02*
X118031796Y-146771311D01*
X118031796Y-146771311D02*
X117898462Y-146737978D01*
X117898462Y-146737978D02*
X117831796Y-146704645D01*
X117831796Y-146704645D02*
X117798462Y-146671311D01*
X117798462Y-146671311D02*
X117765129Y-146604645D01*
X127317593Y-156200000D02*
X126984260Y-156433333D01*
X127317593Y-156600000D02*
X126617593Y-156600000D01*
X126617593Y-156600000D02*
X126617593Y-156333333D01*
X126617593Y-156333333D02*
X126650926Y-156266667D01*
X126650926Y-156266667D02*
X126684260Y-156233333D01*
X126684260Y-156233333D02*
X126750926Y-156200000D01*
X126750926Y-156200000D02*
X126850926Y-156200000D01*
X126850926Y-156200000D02*
X126917593Y-156233333D01*
X126917593Y-156233333D02*
X126950926Y-156266667D01*
X126950926Y-156266667D02*
X126984260Y-156333333D01*
X126984260Y-156333333D02*
X126984260Y-156600000D01*
X127317593Y-155533333D02*
X127317593Y-155933333D01*
X127317593Y-155733333D02*
X126617593Y-155733333D01*
X126617593Y-155733333D02*
X126717593Y-155800000D01*
X126717593Y-155800000D02*
X126784260Y-155866667D01*
X126784260Y-155866667D02*
X126817593Y-155933333D01*
X127317593Y-154866666D02*
X127317593Y-155266666D01*
X127317593Y-155066666D02*
X126617593Y-155066666D01*
X126617593Y-155066666D02*
X126717593Y-155133333D01*
X126717593Y-155133333D02*
X126784260Y-155200000D01*
X126784260Y-155200000D02*
X126817593Y-155266666D01*
X125567593Y-156200000D02*
X125234260Y-156433333D01*
X125567593Y-156600000D02*
X124867593Y-156600000D01*
X124867593Y-156600000D02*
X124867593Y-156333333D01*
X124867593Y-156333333D02*
X124900926Y-156266667D01*
X124900926Y-156266667D02*
X124934260Y-156233333D01*
X124934260Y-156233333D02*
X125000926Y-156200000D01*
X125000926Y-156200000D02*
X125100926Y-156200000D01*
X125100926Y-156200000D02*
X125167593Y-156233333D01*
X125167593Y-156233333D02*
X125200926Y-156266667D01*
X125200926Y-156266667D02*
X125234260Y-156333333D01*
X125234260Y-156333333D02*
X125234260Y-156600000D01*
X125567593Y-155533333D02*
X125567593Y-155933333D01*
X125567593Y-155733333D02*
X124867593Y-155733333D01*
X124867593Y-155733333D02*
X124967593Y-155800000D01*
X124967593Y-155800000D02*
X125034260Y-155866667D01*
X125034260Y-155866667D02*
X125067593Y-155933333D01*
X124867593Y-155100000D02*
X124867593Y-155033333D01*
X124867593Y-155033333D02*
X124900926Y-154966666D01*
X124900926Y-154966666D02*
X124934260Y-154933333D01*
X124934260Y-154933333D02*
X125000926Y-154900000D01*
X125000926Y-154900000D02*
X125134260Y-154866666D01*
X125134260Y-154866666D02*
X125300926Y-154866666D01*
X125300926Y-154866666D02*
X125434260Y-154900000D01*
X125434260Y-154900000D02*
X125500926Y-154933333D01*
X125500926Y-154933333D02*
X125534260Y-154966666D01*
X125534260Y-154966666D02*
X125567593Y-155033333D01*
X125567593Y-155033333D02*
X125567593Y-155100000D01*
X125567593Y-155100000D02*
X125534260Y-155166666D01*
X125534260Y-155166666D02*
X125500926Y-155200000D01*
X125500926Y-155200000D02*
X125434260Y-155233333D01*
X125434260Y-155233333D02*
X125300926Y-155266666D01*
X125300926Y-155266666D02*
X125134260Y-155266666D01*
X125134260Y-155266666D02*
X125000926Y-155233333D01*
X125000926Y-155233333D02*
X124934260Y-155200000D01*
X124934260Y-155200000D02*
X124900926Y-155166666D01*
X124900926Y-155166666D02*
X124867593Y-155100000D01*
X123817593Y-156116666D02*
X123484260Y-156349999D01*
X123817593Y-156516666D02*
X123117593Y-156516666D01*
X123117593Y-156516666D02*
X123117593Y-156249999D01*
X123117593Y-156249999D02*
X123150926Y-156183333D01*
X123150926Y-156183333D02*
X123184260Y-156149999D01*
X123184260Y-156149999D02*
X123250926Y-156116666D01*
X123250926Y-156116666D02*
X123350926Y-156116666D01*
X123350926Y-156116666D02*
X123417593Y-156149999D01*
X123417593Y-156149999D02*
X123450926Y-156183333D01*
X123450926Y-156183333D02*
X123484260Y-156249999D01*
X123484260Y-156249999D02*
X123484260Y-156516666D01*
X123817593Y-155783333D02*
X123817593Y-155649999D01*
X123817593Y-155649999D02*
X123784260Y-155583333D01*
X123784260Y-155583333D02*
X123750926Y-155549999D01*
X123750926Y-155549999D02*
X123650926Y-155483333D01*
X123650926Y-155483333D02*
X123517593Y-155449999D01*
X123517593Y-155449999D02*
X123250926Y-155449999D01*
X123250926Y-155449999D02*
X123184260Y-155483333D01*
X123184260Y-155483333D02*
X123150926Y-155516666D01*
X123150926Y-155516666D02*
X123117593Y-155583333D01*
X123117593Y-155583333D02*
X123117593Y-155716666D01*
X123117593Y-155716666D02*
X123150926Y-155783333D01*
X123150926Y-155783333D02*
X123184260Y-155816666D01*
X123184260Y-155816666D02*
X123250926Y-155849999D01*
X123250926Y-155849999D02*
X123417593Y-155849999D01*
X123417593Y-155849999D02*
X123484260Y-155816666D01*
X123484260Y-155816666D02*
X123517593Y-155783333D01*
X123517593Y-155783333D02*
X123550926Y-155716666D01*
X123550926Y-155716666D02*
X123550926Y-155583333D01*
X123550926Y-155583333D02*
X123517593Y-155516666D01*
X123517593Y-155516666D02*
X123484260Y-155483333D01*
X123484260Y-155483333D02*
X123417593Y-155449999D01*
X139383333Y-132567593D02*
X139150000Y-132234260D01*
X138983333Y-132567593D02*
X138983333Y-131867593D01*
X138983333Y-131867593D02*
X139250000Y-131867593D01*
X139250000Y-131867593D02*
X139316667Y-131900926D01*
X139316667Y-131900926D02*
X139350000Y-131934260D01*
X139350000Y-131934260D02*
X139383333Y-132000926D01*
X139383333Y-132000926D02*
X139383333Y-132100926D01*
X139383333Y-132100926D02*
X139350000Y-132167593D01*
X139350000Y-132167593D02*
X139316667Y-132200926D01*
X139316667Y-132200926D02*
X139250000Y-132234260D01*
X139250000Y-132234260D02*
X138983333Y-132234260D01*
X139783333Y-132167593D02*
X139716667Y-132134260D01*
X139716667Y-132134260D02*
X139683333Y-132100926D01*
X139683333Y-132100926D02*
X139650000Y-132034260D01*
X139650000Y-132034260D02*
X139650000Y-132000926D01*
X139650000Y-132000926D02*
X139683333Y-131934260D01*
X139683333Y-131934260D02*
X139716667Y-131900926D01*
X139716667Y-131900926D02*
X139783333Y-131867593D01*
X139783333Y-131867593D02*
X139916667Y-131867593D01*
X139916667Y-131867593D02*
X139983333Y-131900926D01*
X139983333Y-131900926D02*
X140016667Y-131934260D01*
X140016667Y-131934260D02*
X140050000Y-132000926D01*
X140050000Y-132000926D02*
X140050000Y-132034260D01*
X140050000Y-132034260D02*
X140016667Y-132100926D01*
X140016667Y-132100926D02*
X139983333Y-132134260D01*
X139983333Y-132134260D02*
X139916667Y-132167593D01*
X139916667Y-132167593D02*
X139783333Y-132167593D01*
X139783333Y-132167593D02*
X139716667Y-132200926D01*
X139716667Y-132200926D02*
X139683333Y-132234260D01*
X139683333Y-132234260D02*
X139650000Y-132300926D01*
X139650000Y-132300926D02*
X139650000Y-132434260D01*
X139650000Y-132434260D02*
X139683333Y-132500926D01*
X139683333Y-132500926D02*
X139716667Y-132534260D01*
X139716667Y-132534260D02*
X139783333Y-132567593D01*
X139783333Y-132567593D02*
X139916667Y-132567593D01*
X139916667Y-132567593D02*
X139983333Y-132534260D01*
X139983333Y-132534260D02*
X140016667Y-132500926D01*
X140016667Y-132500926D02*
X140050000Y-132434260D01*
X140050000Y-132434260D02*
X140050000Y-132300926D01*
X140050000Y-132300926D02*
X140016667Y-132234260D01*
X140016667Y-132234260D02*
X139983333Y-132200926D01*
X139983333Y-132200926D02*
X139916667Y-132167593D01*
X139383333Y-134067593D02*
X139150000Y-133734260D01*
X138983333Y-134067593D02*
X138983333Y-133367593D01*
X138983333Y-133367593D02*
X139250000Y-133367593D01*
X139250000Y-133367593D02*
X139316667Y-133400926D01*
X139316667Y-133400926D02*
X139350000Y-133434260D01*
X139350000Y-133434260D02*
X139383333Y-133500926D01*
X139383333Y-133500926D02*
X139383333Y-133600926D01*
X139383333Y-133600926D02*
X139350000Y-133667593D01*
X139350000Y-133667593D02*
X139316667Y-133700926D01*
X139316667Y-133700926D02*
X139250000Y-133734260D01*
X139250000Y-133734260D02*
X138983333Y-133734260D01*
X139616667Y-133367593D02*
X140083333Y-133367593D01*
X140083333Y-133367593D02*
X139783333Y-134067593D01*
X134883333Y-139817593D02*
X134650000Y-139484260D01*
X134483333Y-139817593D02*
X134483333Y-139117593D01*
X134483333Y-139117593D02*
X134750000Y-139117593D01*
X134750000Y-139117593D02*
X134816667Y-139150926D01*
X134816667Y-139150926D02*
X134850000Y-139184260D01*
X134850000Y-139184260D02*
X134883333Y-139250926D01*
X134883333Y-139250926D02*
X134883333Y-139350926D01*
X134883333Y-139350926D02*
X134850000Y-139417593D01*
X134850000Y-139417593D02*
X134816667Y-139450926D01*
X134816667Y-139450926D02*
X134750000Y-139484260D01*
X134750000Y-139484260D02*
X134483333Y-139484260D01*
X135116667Y-139117593D02*
X135550000Y-139117593D01*
X135550000Y-139117593D02*
X135316667Y-139384260D01*
X135316667Y-139384260D02*
X135416667Y-139384260D01*
X135416667Y-139384260D02*
X135483333Y-139417593D01*
X135483333Y-139417593D02*
X135516667Y-139450926D01*
X135516667Y-139450926D02*
X135550000Y-139517593D01*
X135550000Y-139517593D02*
X135550000Y-139684260D01*
X135550000Y-139684260D02*
X135516667Y-139750926D01*
X135516667Y-139750926D02*
X135483333Y-139784260D01*
X135483333Y-139784260D02*
X135416667Y-139817593D01*
X135416667Y-139817593D02*
X135216667Y-139817593D01*
X135216667Y-139817593D02*
X135150000Y-139784260D01*
X135150000Y-139784260D02*
X135116667Y-139750926D01*
X127000926Y-147616666D02*
X127034260Y-147649999D01*
X127034260Y-147649999D02*
X127067593Y-147749999D01*
X127067593Y-147749999D02*
X127067593Y-147816666D01*
X127067593Y-147816666D02*
X127034260Y-147916666D01*
X127034260Y-147916666D02*
X126967593Y-147983333D01*
X126967593Y-147983333D02*
X126900926Y-148016666D01*
X126900926Y-148016666D02*
X126767593Y-148049999D01*
X126767593Y-148049999D02*
X126667593Y-148049999D01*
X126667593Y-148049999D02*
X126534260Y-148016666D01*
X126534260Y-148016666D02*
X126467593Y-147983333D01*
X126467593Y-147983333D02*
X126400926Y-147916666D01*
X126400926Y-147916666D02*
X126367593Y-147816666D01*
X126367593Y-147816666D02*
X126367593Y-147749999D01*
X126367593Y-147749999D02*
X126400926Y-147649999D01*
X126400926Y-147649999D02*
X126434260Y-147616666D01*
X127067593Y-147283333D02*
X127067593Y-147149999D01*
X127067593Y-147149999D02*
X127034260Y-147083333D01*
X127034260Y-147083333D02*
X127000926Y-147049999D01*
X127000926Y-147049999D02*
X126900926Y-146983333D01*
X126900926Y-146983333D02*
X126767593Y-146949999D01*
X126767593Y-146949999D02*
X126500926Y-146949999D01*
X126500926Y-146949999D02*
X126434260Y-146983333D01*
X126434260Y-146983333D02*
X126400926Y-147016666D01*
X126400926Y-147016666D02*
X126367593Y-147083333D01*
X126367593Y-147083333D02*
X126367593Y-147216666D01*
X126367593Y-147216666D02*
X126400926Y-147283333D01*
X126400926Y-147283333D02*
X126434260Y-147316666D01*
X126434260Y-147316666D02*
X126500926Y-147349999D01*
X126500926Y-147349999D02*
X126667593Y-147349999D01*
X126667593Y-147349999D02*
X126734260Y-147316666D01*
X126734260Y-147316666D02*
X126767593Y-147283333D01*
X126767593Y-147283333D02*
X126800926Y-147216666D01*
X126800926Y-147216666D02*
X126800926Y-147083333D01*
X126800926Y-147083333D02*
X126767593Y-147016666D01*
X126767593Y-147016666D02*
X126734260Y-146983333D01*
X126734260Y-146983333D02*
X126667593Y-146949999D01*
X125500926Y-147616666D02*
X125534260Y-147649999D01*
X125534260Y-147649999D02*
X125567593Y-147749999D01*
X125567593Y-147749999D02*
X125567593Y-147816666D01*
X125567593Y-147816666D02*
X125534260Y-147916666D01*
X125534260Y-147916666D02*
X125467593Y-147983333D01*
X125467593Y-147983333D02*
X125400926Y-148016666D01*
X125400926Y-148016666D02*
X125267593Y-148049999D01*
X125267593Y-148049999D02*
X125167593Y-148049999D01*
X125167593Y-148049999D02*
X125034260Y-148016666D01*
X125034260Y-148016666D02*
X124967593Y-147983333D01*
X124967593Y-147983333D02*
X124900926Y-147916666D01*
X124900926Y-147916666D02*
X124867593Y-147816666D01*
X124867593Y-147816666D02*
X124867593Y-147749999D01*
X124867593Y-147749999D02*
X124900926Y-147649999D01*
X124900926Y-147649999D02*
X124934260Y-147616666D01*
X125167593Y-147216666D02*
X125134260Y-147283333D01*
X125134260Y-147283333D02*
X125100926Y-147316666D01*
X125100926Y-147316666D02*
X125034260Y-147349999D01*
X125034260Y-147349999D02*
X125000926Y-147349999D01*
X125000926Y-147349999D02*
X124934260Y-147316666D01*
X124934260Y-147316666D02*
X124900926Y-147283333D01*
X124900926Y-147283333D02*
X124867593Y-147216666D01*
X124867593Y-147216666D02*
X124867593Y-147083333D01*
X124867593Y-147083333D02*
X124900926Y-147016666D01*
X124900926Y-147016666D02*
X124934260Y-146983333D01*
X124934260Y-146983333D02*
X125000926Y-146949999D01*
X125000926Y-146949999D02*
X125034260Y-146949999D01*
X125034260Y-146949999D02*
X125100926Y-146983333D01*
X125100926Y-146983333D02*
X125134260Y-147016666D01*
X125134260Y-147016666D02*
X125167593Y-147083333D01*
X125167593Y-147083333D02*
X125167593Y-147216666D01*
X125167593Y-147216666D02*
X125200926Y-147283333D01*
X125200926Y-147283333D02*
X125234260Y-147316666D01*
X125234260Y-147316666D02*
X125300926Y-147349999D01*
X125300926Y-147349999D02*
X125434260Y-147349999D01*
X125434260Y-147349999D02*
X125500926Y-147316666D01*
X125500926Y-147316666D02*
X125534260Y-147283333D01*
X125534260Y-147283333D02*
X125567593Y-147216666D01*
X125567593Y-147216666D02*
X125567593Y-147083333D01*
X125567593Y-147083333D02*
X125534260Y-147016666D01*
X125534260Y-147016666D02*
X125500926Y-146983333D01*
X125500926Y-146983333D02*
X125434260Y-146949999D01*
X125434260Y-146949999D02*
X125300926Y-146949999D01*
X125300926Y-146949999D02*
X125234260Y-146983333D01*
X125234260Y-146983333D02*
X125200926Y-147016666D01*
X125200926Y-147016666D02*
X125167593Y-147083333D01*
X123933091Y-147571358D02*
X123966425Y-147604691D01*
X123966425Y-147604691D02*
X123999758Y-147704691D01*
X123999758Y-147704691D02*
X123999758Y-147771358D01*
X123999758Y-147771358D02*
X123966425Y-147871358D01*
X123966425Y-147871358D02*
X123899758Y-147938025D01*
X123899758Y-147938025D02*
X123833091Y-147971358D01*
X123833091Y-147971358D02*
X123699758Y-148004691D01*
X123699758Y-148004691D02*
X123599758Y-148004691D01*
X123599758Y-148004691D02*
X123466425Y-147971358D01*
X123466425Y-147971358D02*
X123399758Y-147938025D01*
X123399758Y-147938025D02*
X123333091Y-147871358D01*
X123333091Y-147871358D02*
X123299758Y-147771358D01*
X123299758Y-147771358D02*
X123299758Y-147704691D01*
X123299758Y-147704691D02*
X123333091Y-147604691D01*
X123333091Y-147604691D02*
X123366425Y-147571358D01*
X123299758Y-147338025D02*
X123299758Y-146871358D01*
X123299758Y-146871358D02*
X123999758Y-147171358D01*
X118299999Y-122817593D02*
X118066666Y-122484260D01*
X117899999Y-122817593D02*
X117899999Y-122117593D01*
X117899999Y-122117593D02*
X118166666Y-122117593D01*
X118166666Y-122117593D02*
X118233333Y-122150926D01*
X118233333Y-122150926D02*
X118266666Y-122184260D01*
X118266666Y-122184260D02*
X118299999Y-122250926D01*
X118299999Y-122250926D02*
X118299999Y-122350926D01*
X118299999Y-122350926D02*
X118266666Y-122417593D01*
X118266666Y-122417593D02*
X118233333Y-122450926D01*
X118233333Y-122450926D02*
X118166666Y-122484260D01*
X118166666Y-122484260D02*
X117899999Y-122484260D01*
X118966666Y-122817593D02*
X118566666Y-122817593D01*
X118766666Y-122817593D02*
X118766666Y-122117593D01*
X118766666Y-122117593D02*
X118699999Y-122217593D01*
X118699999Y-122217593D02*
X118633333Y-122284260D01*
X118633333Y-122284260D02*
X118566666Y-122317593D01*
X119200000Y-122117593D02*
X119666666Y-122117593D01*
X119666666Y-122117593D02*
X119366666Y-122817593D01*
X116874296Y-150886420D02*
X116907630Y-150919753D01*
X116907630Y-150919753D02*
X116940963Y-151019753D01*
X116940963Y-151019753D02*
X116940963Y-151086420D01*
X116940963Y-151086420D02*
X116907630Y-151186420D01*
X116907630Y-151186420D02*
X116840963Y-151253087D01*
X116840963Y-151253087D02*
X116774296Y-151286420D01*
X116774296Y-151286420D02*
X116640963Y-151319753D01*
X116640963Y-151319753D02*
X116540963Y-151319753D01*
X116540963Y-151319753D02*
X116407630Y-151286420D01*
X116407630Y-151286420D02*
X116340963Y-151253087D01*
X116340963Y-151253087D02*
X116274296Y-151186420D01*
X116274296Y-151186420D02*
X116240963Y-151086420D01*
X116240963Y-151086420D02*
X116240963Y-151019753D01*
X116240963Y-151019753D02*
X116274296Y-150919753D01*
X116274296Y-150919753D02*
X116307630Y-150886420D01*
X116240963Y-150286420D02*
X116240963Y-150419753D01*
X116240963Y-150419753D02*
X116274296Y-150486420D01*
X116274296Y-150486420D02*
X116307630Y-150519753D01*
X116307630Y-150519753D02*
X116407630Y-150586420D01*
X116407630Y-150586420D02*
X116540963Y-150619753D01*
X116540963Y-150619753D02*
X116807630Y-150619753D01*
X116807630Y-150619753D02*
X116874296Y-150586420D01*
X116874296Y-150586420D02*
X116907630Y-150553087D01*
X116907630Y-150553087D02*
X116940963Y-150486420D01*
X116940963Y-150486420D02*
X116940963Y-150353087D01*
X116940963Y-150353087D02*
X116907630Y-150286420D01*
X116907630Y-150286420D02*
X116874296Y-150253087D01*
X116874296Y-150253087D02*
X116807630Y-150219753D01*
X116807630Y-150219753D02*
X116640963Y-150219753D01*
X116640963Y-150219753D02*
X116574296Y-150253087D01*
X116574296Y-150253087D02*
X116540963Y-150286420D01*
X116540963Y-150286420D02*
X116507630Y-150353087D01*
X116507630Y-150353087D02*
X116507630Y-150486420D01*
X116507630Y-150486420D02*
X116540963Y-150553087D01*
X116540963Y-150553087D02*
X116574296Y-150586420D01*
X116574296Y-150586420D02*
X116640963Y-150619753D01*
X113799999Y-149750926D02*
X113766666Y-149784260D01*
X113766666Y-149784260D02*
X113666666Y-149817593D01*
X113666666Y-149817593D02*
X113599999Y-149817593D01*
X113599999Y-149817593D02*
X113499999Y-149784260D01*
X113499999Y-149784260D02*
X113433333Y-149717593D01*
X113433333Y-149717593D02*
X113399999Y-149650926D01*
X113399999Y-149650926D02*
X113366666Y-149517593D01*
X113366666Y-149517593D02*
X113366666Y-149417593D01*
X113366666Y-149417593D02*
X113399999Y-149284260D01*
X113399999Y-149284260D02*
X113433333Y-149217593D01*
X113433333Y-149217593D02*
X113499999Y-149150926D01*
X113499999Y-149150926D02*
X113599999Y-149117593D01*
X113599999Y-149117593D02*
X113666666Y-149117593D01*
X113666666Y-149117593D02*
X113766666Y-149150926D01*
X113766666Y-149150926D02*
X113799999Y-149184260D01*
X114066666Y-149184260D02*
X114099999Y-149150926D01*
X114099999Y-149150926D02*
X114166666Y-149117593D01*
X114166666Y-149117593D02*
X114333333Y-149117593D01*
X114333333Y-149117593D02*
X114399999Y-149150926D01*
X114399999Y-149150926D02*
X114433333Y-149184260D01*
X114433333Y-149184260D02*
X114466666Y-149250926D01*
X114466666Y-149250926D02*
X114466666Y-149317593D01*
X114466666Y-149317593D02*
X114433333Y-149417593D01*
X114433333Y-149417593D02*
X114033333Y-149817593D01*
X114033333Y-149817593D02*
X114466666Y-149817593D01*
X115066666Y-149350926D02*
X115066666Y-149817593D01*
X114900000Y-149084260D02*
X114733333Y-149584260D01*
X114733333Y-149584260D02*
X115166666Y-149584260D01*
X116600926Y-156950000D02*
X116634260Y-156983333D01*
X116634260Y-156983333D02*
X116667593Y-157083333D01*
X116667593Y-157083333D02*
X116667593Y-157150000D01*
X116667593Y-157150000D02*
X116634260Y-157250000D01*
X116634260Y-157250000D02*
X116567593Y-157316667D01*
X116567593Y-157316667D02*
X116500926Y-157350000D01*
X116500926Y-157350000D02*
X116367593Y-157383333D01*
X116367593Y-157383333D02*
X116267593Y-157383333D01*
X116267593Y-157383333D02*
X116134260Y-157350000D01*
X116134260Y-157350000D02*
X116067593Y-157316667D01*
X116067593Y-157316667D02*
X116000926Y-157250000D01*
X116000926Y-157250000D02*
X115967593Y-157150000D01*
X115967593Y-157150000D02*
X115967593Y-157083333D01*
X115967593Y-157083333D02*
X116000926Y-156983333D01*
X116000926Y-156983333D02*
X116034260Y-156950000D01*
X116034260Y-156683333D02*
X116000926Y-156650000D01*
X116000926Y-156650000D02*
X115967593Y-156583333D01*
X115967593Y-156583333D02*
X115967593Y-156416667D01*
X115967593Y-156416667D02*
X116000926Y-156350000D01*
X116000926Y-156350000D02*
X116034260Y-156316667D01*
X116034260Y-156316667D02*
X116100926Y-156283333D01*
X116100926Y-156283333D02*
X116167593Y-156283333D01*
X116167593Y-156283333D02*
X116267593Y-156316667D01*
X116267593Y-156316667D02*
X116667593Y-156716667D01*
X116667593Y-156716667D02*
X116667593Y-156283333D01*
X115967593Y-156050000D02*
X115967593Y-155616666D01*
X115967593Y-155616666D02*
X116234260Y-155850000D01*
X116234260Y-155850000D02*
X116234260Y-155750000D01*
X116234260Y-155750000D02*
X116267593Y-155683333D01*
X116267593Y-155683333D02*
X116300926Y-155650000D01*
X116300926Y-155650000D02*
X116367593Y-155616666D01*
X116367593Y-155616666D02*
X116534260Y-155616666D01*
X116534260Y-155616666D02*
X116600926Y-155650000D01*
X116600926Y-155650000D02*
X116634260Y-155683333D01*
X116634260Y-155683333D02*
X116667593Y-155750000D01*
X116667593Y-155750000D02*
X116667593Y-155950000D01*
X116667593Y-155950000D02*
X116634260Y-156016666D01*
X116634260Y-156016666D02*
X116600926Y-156050000D01*
X140049409Y-100150000D02*
X139716076Y-100383333D01*
X140049409Y-100550000D02*
X139349409Y-100550000D01*
X139349409Y-100550000D02*
X139349409Y-100283333D01*
X139349409Y-100283333D02*
X139382742Y-100216667D01*
X139382742Y-100216667D02*
X139416076Y-100183333D01*
X139416076Y-100183333D02*
X139482742Y-100150000D01*
X139482742Y-100150000D02*
X139582742Y-100150000D01*
X139582742Y-100150000D02*
X139649409Y-100183333D01*
X139649409Y-100183333D02*
X139682742Y-100216667D01*
X139682742Y-100216667D02*
X139716076Y-100283333D01*
X139716076Y-100283333D02*
X139716076Y-100550000D01*
X140049409Y-99483333D02*
X140049409Y-99883333D01*
X140049409Y-99683333D02*
X139349409Y-99683333D01*
X139349409Y-99683333D02*
X139449409Y-99750000D01*
X139449409Y-99750000D02*
X139516076Y-99816667D01*
X139516076Y-99816667D02*
X139549409Y-99883333D01*
X139349409Y-99250000D02*
X139349409Y-98816666D01*
X139349409Y-98816666D02*
X139616076Y-99050000D01*
X139616076Y-99050000D02*
X139616076Y-98950000D01*
X139616076Y-98950000D02*
X139649409Y-98883333D01*
X139649409Y-98883333D02*
X139682742Y-98850000D01*
X139682742Y-98850000D02*
X139749409Y-98816666D01*
X139749409Y-98816666D02*
X139916076Y-98816666D01*
X139916076Y-98816666D02*
X139982742Y-98850000D01*
X139982742Y-98850000D02*
X140016076Y-98883333D01*
X140016076Y-98883333D02*
X140049409Y-98950000D01*
X140049409Y-98950000D02*
X140049409Y-99150000D01*
X140049409Y-99150000D02*
X140016076Y-99216666D01*
X140016076Y-99216666D02*
X139982742Y-99250000D01*
X139817593Y-103225000D02*
X139484260Y-103458333D01*
X139817593Y-103625000D02*
X139117593Y-103625000D01*
X139117593Y-103625000D02*
X139117593Y-103358333D01*
X139117593Y-103358333D02*
X139150926Y-103291667D01*
X139150926Y-103291667D02*
X139184260Y-103258333D01*
X139184260Y-103258333D02*
X139250926Y-103225000D01*
X139250926Y-103225000D02*
X139350926Y-103225000D01*
X139350926Y-103225000D02*
X139417593Y-103258333D01*
X139417593Y-103258333D02*
X139450926Y-103291667D01*
X139450926Y-103291667D02*
X139484260Y-103358333D01*
X139484260Y-103358333D02*
X139484260Y-103625000D01*
X139817593Y-102558333D02*
X139817593Y-102958333D01*
X139817593Y-102758333D02*
X139117593Y-102758333D01*
X139117593Y-102758333D02*
X139217593Y-102825000D01*
X139217593Y-102825000D02*
X139284260Y-102891667D01*
X139284260Y-102891667D02*
X139317593Y-102958333D01*
X139184260Y-102291666D02*
X139150926Y-102258333D01*
X139150926Y-102258333D02*
X139117593Y-102191666D01*
X139117593Y-102191666D02*
X139117593Y-102025000D01*
X139117593Y-102025000D02*
X139150926Y-101958333D01*
X139150926Y-101958333D02*
X139184260Y-101925000D01*
X139184260Y-101925000D02*
X139250926Y-101891666D01*
X139250926Y-101891666D02*
X139317593Y-101891666D01*
X139317593Y-101891666D02*
X139417593Y-101925000D01*
X139417593Y-101925000D02*
X139817593Y-102325000D01*
X139817593Y-102325000D02*
X139817593Y-101891666D01*
X142950926Y-105950000D02*
X142984260Y-105983333D01*
X142984260Y-105983333D02*
X143017593Y-106083333D01*
X143017593Y-106083333D02*
X143017593Y-106150000D01*
X143017593Y-106150000D02*
X142984260Y-106250000D01*
X142984260Y-106250000D02*
X142917593Y-106316667D01*
X142917593Y-106316667D02*
X142850926Y-106350000D01*
X142850926Y-106350000D02*
X142717593Y-106383333D01*
X142717593Y-106383333D02*
X142617593Y-106383333D01*
X142617593Y-106383333D02*
X142484260Y-106350000D01*
X142484260Y-106350000D02*
X142417593Y-106316667D01*
X142417593Y-106316667D02*
X142350926Y-106250000D01*
X142350926Y-106250000D02*
X142317593Y-106150000D01*
X142317593Y-106150000D02*
X142317593Y-106083333D01*
X142317593Y-106083333D02*
X142350926Y-105983333D01*
X142350926Y-105983333D02*
X142384260Y-105950000D01*
X143017593Y-105283333D02*
X143017593Y-105683333D01*
X143017593Y-105483333D02*
X142317593Y-105483333D01*
X142317593Y-105483333D02*
X142417593Y-105550000D01*
X142417593Y-105550000D02*
X142484260Y-105616667D01*
X142484260Y-105616667D02*
X142517593Y-105683333D01*
X142617593Y-104883333D02*
X142584260Y-104950000D01*
X142584260Y-104950000D02*
X142550926Y-104983333D01*
X142550926Y-104983333D02*
X142484260Y-105016666D01*
X142484260Y-105016666D02*
X142450926Y-105016666D01*
X142450926Y-105016666D02*
X142384260Y-104983333D01*
X142384260Y-104983333D02*
X142350926Y-104950000D01*
X142350926Y-104950000D02*
X142317593Y-104883333D01*
X142317593Y-104883333D02*
X142317593Y-104750000D01*
X142317593Y-104750000D02*
X142350926Y-104683333D01*
X142350926Y-104683333D02*
X142384260Y-104650000D01*
X142384260Y-104650000D02*
X142450926Y-104616666D01*
X142450926Y-104616666D02*
X142484260Y-104616666D01*
X142484260Y-104616666D02*
X142550926Y-104650000D01*
X142550926Y-104650000D02*
X142584260Y-104683333D01*
X142584260Y-104683333D02*
X142617593Y-104750000D01*
X142617593Y-104750000D02*
X142617593Y-104883333D01*
X142617593Y-104883333D02*
X142650926Y-104950000D01*
X142650926Y-104950000D02*
X142684260Y-104983333D01*
X142684260Y-104983333D02*
X142750926Y-105016666D01*
X142750926Y-105016666D02*
X142884260Y-105016666D01*
X142884260Y-105016666D02*
X142950926Y-104983333D01*
X142950926Y-104983333D02*
X142984260Y-104950000D01*
X142984260Y-104950000D02*
X143017593Y-104883333D01*
X143017593Y-104883333D02*
X143017593Y-104750000D01*
X143017593Y-104750000D02*
X142984260Y-104683333D01*
X142984260Y-104683333D02*
X142950926Y-104650000D01*
X142950926Y-104650000D02*
X142884260Y-104616666D01*
X142884260Y-104616666D02*
X142750926Y-104616666D01*
X142750926Y-104616666D02*
X142684260Y-104650000D01*
X142684260Y-104650000D02*
X142650926Y-104683333D01*
X142650926Y-104683333D02*
X142617593Y-104750000D01*
X114122393Y-166203166D02*
X113422393Y-166203166D01*
X113422393Y-166203166D02*
X113922393Y-165969833D01*
X113922393Y-165969833D02*
X113422393Y-165736499D01*
X113422393Y-165736499D02*
X114122393Y-165736499D01*
X114122393Y-165403166D02*
X113422393Y-165403166D01*
X114122393Y-165003166D02*
X113722393Y-165303166D01*
X113422393Y-165003166D02*
X113822393Y-165403166D01*
X113489060Y-164736499D02*
X113455726Y-164703166D01*
X113455726Y-164703166D02*
X113422393Y-164636499D01*
X113422393Y-164636499D02*
X113422393Y-164469833D01*
X113422393Y-164469833D02*
X113455726Y-164403166D01*
X113455726Y-164403166D02*
X113489060Y-164369833D01*
X113489060Y-164369833D02*
X113555726Y-164336499D01*
X113555726Y-164336499D02*
X113622393Y-164336499D01*
X113622393Y-164336499D02*
X113722393Y-164369833D01*
X113722393Y-164369833D02*
X114122393Y-164769833D01*
X114122393Y-164769833D02*
X114122393Y-164336499D01*
X115549999Y-170000926D02*
X115516666Y-170034260D01*
X115516666Y-170034260D02*
X115416666Y-170067593D01*
X115416666Y-170067593D02*
X115349999Y-170067593D01*
X115349999Y-170067593D02*
X115249999Y-170034260D01*
X115249999Y-170034260D02*
X115183333Y-169967593D01*
X115183333Y-169967593D02*
X115149999Y-169900926D01*
X115149999Y-169900926D02*
X115116666Y-169767593D01*
X115116666Y-169767593D02*
X115116666Y-169667593D01*
X115116666Y-169667593D02*
X115149999Y-169534260D01*
X115149999Y-169534260D02*
X115183333Y-169467593D01*
X115183333Y-169467593D02*
X115249999Y-169400926D01*
X115249999Y-169400926D02*
X115349999Y-169367593D01*
X115349999Y-169367593D02*
X115416666Y-169367593D01*
X115416666Y-169367593D02*
X115516666Y-169400926D01*
X115516666Y-169400926D02*
X115549999Y-169434260D01*
X115816666Y-169434260D02*
X115849999Y-169400926D01*
X115849999Y-169400926D02*
X115916666Y-169367593D01*
X115916666Y-169367593D02*
X116083333Y-169367593D01*
X116083333Y-169367593D02*
X116149999Y-169400926D01*
X116149999Y-169400926D02*
X116183333Y-169434260D01*
X116183333Y-169434260D02*
X116216666Y-169500926D01*
X116216666Y-169500926D02*
X116216666Y-169567593D01*
X116216666Y-169567593D02*
X116183333Y-169667593D01*
X116183333Y-169667593D02*
X115783333Y-170067593D01*
X115783333Y-170067593D02*
X116216666Y-170067593D01*
X116850000Y-169367593D02*
X116516666Y-169367593D01*
X116516666Y-169367593D02*
X116483333Y-169700926D01*
X116483333Y-169700926D02*
X116516666Y-169667593D01*
X116516666Y-169667593D02*
X116583333Y-169634260D01*
X116583333Y-169634260D02*
X116750000Y-169634260D01*
X116750000Y-169634260D02*
X116816666Y-169667593D01*
X116816666Y-169667593D02*
X116850000Y-169700926D01*
X116850000Y-169700926D02*
X116883333Y-169767593D01*
X116883333Y-169767593D02*
X116883333Y-169934260D01*
X116883333Y-169934260D02*
X116850000Y-170000926D01*
X116850000Y-170000926D02*
X116816666Y-170034260D01*
X116816666Y-170034260D02*
X116750000Y-170067593D01*
X116750000Y-170067593D02*
X116583333Y-170067593D01*
X116583333Y-170067593D02*
X116516666Y-170034260D01*
X116516666Y-170034260D02*
X116483333Y-170000926D01*
X128516666Y-95617593D02*
X128516666Y-96117593D01*
X128516666Y-96117593D02*
X128483333Y-96217593D01*
X128483333Y-96217593D02*
X128416666Y-96284260D01*
X128416666Y-96284260D02*
X128316666Y-96317593D01*
X128316666Y-96317593D02*
X128250000Y-96317593D01*
X129149999Y-95850926D02*
X129149999Y-96317593D01*
X128983333Y-95584260D02*
X128816666Y-96084260D01*
X128816666Y-96084260D02*
X129249999Y-96084260D01*
X119766666Y-103617593D02*
X119766666Y-104117593D01*
X119766666Y-104117593D02*
X119733333Y-104217593D01*
X119733333Y-104217593D02*
X119666666Y-104284260D01*
X119666666Y-104284260D02*
X119566666Y-104317593D01*
X119566666Y-104317593D02*
X119500000Y-104317593D01*
X120066666Y-103684260D02*
X120099999Y-103650926D01*
X120099999Y-103650926D02*
X120166666Y-103617593D01*
X120166666Y-103617593D02*
X120333333Y-103617593D01*
X120333333Y-103617593D02*
X120399999Y-103650926D01*
X120399999Y-103650926D02*
X120433333Y-103684260D01*
X120433333Y-103684260D02*
X120466666Y-103750926D01*
X120466666Y-103750926D02*
X120466666Y-103817593D01*
X120466666Y-103817593D02*
X120433333Y-103917593D01*
X120433333Y-103917593D02*
X120033333Y-104317593D01*
X120033333Y-104317593D02*
X120466666Y-104317593D01*
X130766666Y-91617593D02*
X130766666Y-92117593D01*
X130766666Y-92117593D02*
X130733333Y-92217593D01*
X130733333Y-92217593D02*
X130666666Y-92284260D01*
X130666666Y-92284260D02*
X130566666Y-92317593D01*
X130566666Y-92317593D02*
X130500000Y-92317593D01*
X131466666Y-92317593D02*
X131066666Y-92317593D01*
X131266666Y-92317593D02*
X131266666Y-91617593D01*
X131266666Y-91617593D02*
X131199999Y-91717593D01*
X131199999Y-91717593D02*
X131133333Y-91784260D01*
X131133333Y-91784260D02*
X131066666Y-91817593D01*
X125816666Y-114784260D02*
X125916666Y-114817593D01*
X125916666Y-114817593D02*
X126083333Y-114817593D01*
X126083333Y-114817593D02*
X126149999Y-114784260D01*
X126149999Y-114784260D02*
X126183333Y-114750926D01*
X126183333Y-114750926D02*
X126216666Y-114684260D01*
X126216666Y-114684260D02*
X126216666Y-114617593D01*
X126216666Y-114617593D02*
X126183333Y-114550926D01*
X126183333Y-114550926D02*
X126149999Y-114517593D01*
X126149999Y-114517593D02*
X126083333Y-114484260D01*
X126083333Y-114484260D02*
X125949999Y-114450926D01*
X125949999Y-114450926D02*
X125883333Y-114417593D01*
X125883333Y-114417593D02*
X125849999Y-114384260D01*
X125849999Y-114384260D02*
X125816666Y-114317593D01*
X125816666Y-114317593D02*
X125816666Y-114250926D01*
X125816666Y-114250926D02*
X125849999Y-114184260D01*
X125849999Y-114184260D02*
X125883333Y-114150926D01*
X125883333Y-114150926D02*
X125949999Y-114117593D01*
X125949999Y-114117593D02*
X126116666Y-114117593D01*
X126116666Y-114117593D02*
X126216666Y-114150926D01*
X126450000Y-114117593D02*
X126616666Y-114817593D01*
X126616666Y-114817593D02*
X126750000Y-114317593D01*
X126750000Y-114317593D02*
X126883333Y-114817593D01*
X126883333Y-114817593D02*
X127050000Y-114117593D01*
X127250000Y-114117593D02*
X127683333Y-114117593D01*
X127683333Y-114117593D02*
X127450000Y-114384260D01*
X127450000Y-114384260D02*
X127550000Y-114384260D01*
X127550000Y-114384260D02*
X127616666Y-114417593D01*
X127616666Y-114417593D02*
X127650000Y-114450926D01*
X127650000Y-114450926D02*
X127683333Y-114517593D01*
X127683333Y-114517593D02*
X127683333Y-114684260D01*
X127683333Y-114684260D02*
X127650000Y-114750926D01*
X127650000Y-114750926D02*
X127616666Y-114784260D01*
X127616666Y-114784260D02*
X127550000Y-114817593D01*
X127550000Y-114817593D02*
X127350000Y-114817593D01*
X127350000Y-114817593D02*
X127283333Y-114784260D01*
X127283333Y-114784260D02*
X127250000Y-114750926D01*
X114816666Y-114784260D02*
X114916666Y-114817593D01*
X114916666Y-114817593D02*
X115083333Y-114817593D01*
X115083333Y-114817593D02*
X115149999Y-114784260D01*
X115149999Y-114784260D02*
X115183333Y-114750926D01*
X115183333Y-114750926D02*
X115216666Y-114684260D01*
X115216666Y-114684260D02*
X115216666Y-114617593D01*
X115216666Y-114617593D02*
X115183333Y-114550926D01*
X115183333Y-114550926D02*
X115149999Y-114517593D01*
X115149999Y-114517593D02*
X115083333Y-114484260D01*
X115083333Y-114484260D02*
X114949999Y-114450926D01*
X114949999Y-114450926D02*
X114883333Y-114417593D01*
X114883333Y-114417593D02*
X114849999Y-114384260D01*
X114849999Y-114384260D02*
X114816666Y-114317593D01*
X114816666Y-114317593D02*
X114816666Y-114250926D01*
X114816666Y-114250926D02*
X114849999Y-114184260D01*
X114849999Y-114184260D02*
X114883333Y-114150926D01*
X114883333Y-114150926D02*
X114949999Y-114117593D01*
X114949999Y-114117593D02*
X115116666Y-114117593D01*
X115116666Y-114117593D02*
X115216666Y-114150926D01*
X115450000Y-114117593D02*
X115616666Y-114817593D01*
X115616666Y-114817593D02*
X115750000Y-114317593D01*
X115750000Y-114317593D02*
X115883333Y-114817593D01*
X115883333Y-114817593D02*
X116050000Y-114117593D01*
X116683333Y-114817593D02*
X116283333Y-114817593D01*
X116483333Y-114817593D02*
X116483333Y-114117593D01*
X116483333Y-114117593D02*
X116416666Y-114217593D01*
X116416666Y-114217593D02*
X116350000Y-114284260D01*
X116350000Y-114284260D02*
X116283333Y-114317593D01*
X138383333Y-155500926D02*
X138350000Y-155534260D01*
X138350000Y-155534260D02*
X138250000Y-155567593D01*
X138250000Y-155567593D02*
X138183333Y-155567593D01*
X138183333Y-155567593D02*
X138083333Y-155534260D01*
X138083333Y-155534260D02*
X138016667Y-155467593D01*
X138016667Y-155467593D02*
X137983333Y-155400926D01*
X137983333Y-155400926D02*
X137950000Y-155267593D01*
X137950000Y-155267593D02*
X137950000Y-155167593D01*
X137950000Y-155167593D02*
X137983333Y-155034260D01*
X137983333Y-155034260D02*
X138016667Y-154967593D01*
X138016667Y-154967593D02*
X138083333Y-154900926D01*
X138083333Y-154900926D02*
X138183333Y-154867593D01*
X138183333Y-154867593D02*
X138250000Y-154867593D01*
X138250000Y-154867593D02*
X138350000Y-154900926D01*
X138350000Y-154900926D02*
X138383333Y-154934260D01*
X139016667Y-154867593D02*
X138683333Y-154867593D01*
X138683333Y-154867593D02*
X138650000Y-155200926D01*
X138650000Y-155200926D02*
X138683333Y-155167593D01*
X138683333Y-155167593D02*
X138750000Y-155134260D01*
X138750000Y-155134260D02*
X138916667Y-155134260D01*
X138916667Y-155134260D02*
X138983333Y-155167593D01*
X138983333Y-155167593D02*
X139016667Y-155200926D01*
X139016667Y-155200926D02*
X139050000Y-155267593D01*
X139050000Y-155267593D02*
X139050000Y-155434260D01*
X139050000Y-155434260D02*
X139016667Y-155500926D01*
X139016667Y-155500926D02*
X138983333Y-155534260D01*
X138983333Y-155534260D02*
X138916667Y-155567593D01*
X138916667Y-155567593D02*
X138750000Y-155567593D01*
X138750000Y-155567593D02*
X138683333Y-155534260D01*
X138683333Y-155534260D02*
X138650000Y-155500926D01*
X142883333Y-135500926D02*
X142850000Y-135534260D01*
X142850000Y-135534260D02*
X142750000Y-135567593D01*
X142750000Y-135567593D02*
X142683333Y-135567593D01*
X142683333Y-135567593D02*
X142583333Y-135534260D01*
X142583333Y-135534260D02*
X142516667Y-135467593D01*
X142516667Y-135467593D02*
X142483333Y-135400926D01*
X142483333Y-135400926D02*
X142450000Y-135267593D01*
X142450000Y-135267593D02*
X142450000Y-135167593D01*
X142450000Y-135167593D02*
X142483333Y-135034260D01*
X142483333Y-135034260D02*
X142516667Y-134967593D01*
X142516667Y-134967593D02*
X142583333Y-134900926D01*
X142583333Y-134900926D02*
X142683333Y-134867593D01*
X142683333Y-134867593D02*
X142750000Y-134867593D01*
X142750000Y-134867593D02*
X142850000Y-134900926D01*
X142850000Y-134900926D02*
X142883333Y-134934260D01*
X143483333Y-135100926D02*
X143483333Y-135567593D01*
X143316667Y-134834260D02*
X143150000Y-135334260D01*
X143150000Y-135334260D02*
X143583333Y-135334260D01*
X140983333Y-114320926D02*
X140950000Y-114354260D01*
X140950000Y-114354260D02*
X140850000Y-114387593D01*
X140850000Y-114387593D02*
X140783333Y-114387593D01*
X140783333Y-114387593D02*
X140683333Y-114354260D01*
X140683333Y-114354260D02*
X140616667Y-114287593D01*
X140616667Y-114287593D02*
X140583333Y-114220926D01*
X140583333Y-114220926D02*
X140550000Y-114087593D01*
X140550000Y-114087593D02*
X140550000Y-113987593D01*
X140550000Y-113987593D02*
X140583333Y-113854260D01*
X140583333Y-113854260D02*
X140616667Y-113787593D01*
X140616667Y-113787593D02*
X140683333Y-113720926D01*
X140683333Y-113720926D02*
X140783333Y-113687593D01*
X140783333Y-113687593D02*
X140850000Y-113687593D01*
X140850000Y-113687593D02*
X140950000Y-113720926D01*
X140950000Y-113720926D02*
X140983333Y-113754260D01*
X141216667Y-113687593D02*
X141650000Y-113687593D01*
X141650000Y-113687593D02*
X141416667Y-113954260D01*
X141416667Y-113954260D02*
X141516667Y-113954260D01*
X141516667Y-113954260D02*
X141583333Y-113987593D01*
X141583333Y-113987593D02*
X141616667Y-114020926D01*
X141616667Y-114020926D02*
X141650000Y-114087593D01*
X141650000Y-114087593D02*
X141650000Y-114254260D01*
X141650000Y-114254260D02*
X141616667Y-114320926D01*
X141616667Y-114320926D02*
X141583333Y-114354260D01*
X141583333Y-114354260D02*
X141516667Y-114387593D01*
X141516667Y-114387593D02*
X141316667Y-114387593D01*
X141316667Y-114387593D02*
X141250000Y-114354260D01*
X141250000Y-114354260D02*
X141216667Y-114320926D01*
X143383333Y-156500926D02*
X143350000Y-156534260D01*
X143350000Y-156534260D02*
X143250000Y-156567593D01*
X143250000Y-156567593D02*
X143183333Y-156567593D01*
X143183333Y-156567593D02*
X143083333Y-156534260D01*
X143083333Y-156534260D02*
X143016667Y-156467593D01*
X143016667Y-156467593D02*
X142983333Y-156400926D01*
X142983333Y-156400926D02*
X142950000Y-156267593D01*
X142950000Y-156267593D02*
X142950000Y-156167593D01*
X142950000Y-156167593D02*
X142983333Y-156034260D01*
X142983333Y-156034260D02*
X143016667Y-155967593D01*
X143016667Y-155967593D02*
X143083333Y-155900926D01*
X143083333Y-155900926D02*
X143183333Y-155867593D01*
X143183333Y-155867593D02*
X143250000Y-155867593D01*
X143250000Y-155867593D02*
X143350000Y-155900926D01*
X143350000Y-155900926D02*
X143383333Y-155934260D01*
X144050000Y-156567593D02*
X143650000Y-156567593D01*
X143850000Y-156567593D02*
X143850000Y-155867593D01*
X143850000Y-155867593D02*
X143783333Y-155967593D01*
X143783333Y-155967593D02*
X143716667Y-156034260D01*
X143716667Y-156034260D02*
X143650000Y-156067593D01*
X164383333Y-92250926D02*
X164350000Y-92284260D01*
X164350000Y-92284260D02*
X164250000Y-92317593D01*
X164250000Y-92317593D02*
X164183333Y-92317593D01*
X164183333Y-92317593D02*
X164083333Y-92284260D01*
X164083333Y-92284260D02*
X164016667Y-92217593D01*
X164016667Y-92217593D02*
X163983333Y-92150926D01*
X163983333Y-92150926D02*
X163950000Y-92017593D01*
X163950000Y-92017593D02*
X163950000Y-91917593D01*
X163950000Y-91917593D02*
X163983333Y-91784260D01*
X163983333Y-91784260D02*
X164016667Y-91717593D01*
X164016667Y-91717593D02*
X164083333Y-91650926D01*
X164083333Y-91650926D02*
X164183333Y-91617593D01*
X164183333Y-91617593D02*
X164250000Y-91617593D01*
X164250000Y-91617593D02*
X164350000Y-91650926D01*
X164350000Y-91650926D02*
X164383333Y-91684260D01*
X164650000Y-91684260D02*
X164683333Y-91650926D01*
X164683333Y-91650926D02*
X164750000Y-91617593D01*
X164750000Y-91617593D02*
X164916667Y-91617593D01*
X164916667Y-91617593D02*
X164983333Y-91650926D01*
X164983333Y-91650926D02*
X165016667Y-91684260D01*
X165016667Y-91684260D02*
X165050000Y-91750926D01*
X165050000Y-91750926D02*
X165050000Y-91817593D01*
X165050000Y-91817593D02*
X165016667Y-91917593D01*
X165016667Y-91917593D02*
X164616667Y-92317593D01*
X164616667Y-92317593D02*
X165050000Y-92317593D01*
%TO.C,R18*%
X132622500Y-124487258D02*
X132622500Y-124012742D01*
X131577500Y-124487258D02*
X131577500Y-124012742D01*
%TO.C,U1*%
X106240000Y-145900000D02*
X112440000Y-145900000D01*
X106240000Y-145900000D02*
X106240000Y-127500000D01*
X131090000Y-145900000D02*
X132090000Y-145900000D01*
X132090000Y-145900000D02*
X132090000Y-144400000D01*
X106240000Y-127500000D02*
X112440000Y-127500000D01*
X132090000Y-127500000D02*
X132090000Y-129000000D01*
X132090000Y-127500000D02*
X131090000Y-127500000D01*
X113115000Y-146400000D02*
X112615000Y-145900000D01*
X113115000Y-145900000D01*
X113115000Y-146400000D01*
G36*
X113115000Y-146400000D02*
G01*
X112615000Y-145900000D01*
X113115000Y-145900000D01*
X113115000Y-146400000D01*
G37*
%TO.C,R16*%
X121077500Y-153187258D02*
X121077500Y-152712742D01*
X122122500Y-153187258D02*
X122122500Y-152712742D01*
%TO.C,R15*%
X119077500Y-153187258D02*
X119077500Y-152712742D01*
X120122500Y-153187258D02*
X120122500Y-152712742D01*
%TO.C,R14*%
X117177500Y-153137258D02*
X117177500Y-152662742D01*
X118222500Y-153137258D02*
X118222500Y-152662742D01*
%TO.C,C12*%
X122110000Y-149459420D02*
X122110000Y-149740580D01*
X121090000Y-149459420D02*
X121090000Y-149740580D01*
%TO.C,C11*%
X120260000Y-149359420D02*
X120260000Y-149640580D01*
X119240000Y-149359420D02*
X119240000Y-149640580D01*
%TO.C,C10*%
X118660000Y-149359420D02*
X118660000Y-149640580D01*
X117640000Y-149359420D02*
X117640000Y-149640580D01*
%TO.C,R11*%
X127422500Y-152762742D02*
X127422500Y-153237258D01*
X126377500Y-152762742D02*
X126377500Y-153237258D01*
%TO.C,R10*%
X125822500Y-152762742D02*
X125822500Y-153237258D01*
X124777500Y-152762742D02*
X124777500Y-153237258D01*
%TO.C,R9*%
X123127500Y-152762742D02*
X123127500Y-153237258D01*
X124172500Y-152762742D02*
X124172500Y-153237258D01*
%TO.C,R8*%
X136962742Y-131827500D02*
X137437258Y-131827500D01*
X136962742Y-132872500D02*
X137437258Y-132872500D01*
%TO.C,R7*%
X136962742Y-133427500D02*
X137437258Y-133427500D01*
X136962742Y-134472500D02*
X137437258Y-134472500D01*
%TO.C,R3*%
X134527500Y-137262258D02*
X134527500Y-136787742D01*
X135572500Y-137262258D02*
X135572500Y-136787742D01*
%TO.C,C9*%
X127260000Y-149359420D02*
X127260000Y-149640580D01*
X126240000Y-149359420D02*
X126240000Y-149640580D01*
%TO.C,C8*%
X125710000Y-149359420D02*
X125710000Y-149640580D01*
X124690000Y-149359420D02*
X124690000Y-149640580D01*
%TO.C,C7*%
X124160000Y-149359420D02*
X124160000Y-149640580D01*
X123140000Y-149359420D02*
X123140000Y-149640580D01*
%TO.C,R17*%
X117577500Y-124637258D02*
X117577500Y-124162742D01*
X118622500Y-124637258D02*
X118622500Y-124162742D01*
%TO.C,C6*%
X117110000Y-148359420D02*
X117110000Y-148640580D01*
X116090000Y-148359420D02*
X116090000Y-148640580D01*
%TO.C,C24*%
X114390580Y-148060000D02*
X114109420Y-148060000D01*
X114390580Y-147040000D02*
X114109420Y-147040000D01*
%TO.C,C23*%
X115410000Y-155788748D02*
X115410000Y-157211252D01*
X113590000Y-155788748D02*
X113590000Y-157211252D01*
%TO.C,R13*%
X140639316Y-99937258D02*
X140639316Y-99462742D01*
X141684316Y-99937258D02*
X141684316Y-99462742D01*
%TO.C,R12*%
X142177500Y-103012258D02*
X142177500Y-102537742D01*
X143222500Y-103012258D02*
X143222500Y-102537742D01*
%TO.C,C18*%
X140690000Y-102634420D02*
X140690000Y-102915580D01*
X141710000Y-102634420D02*
X141710000Y-102915580D01*
D13*
%TO.C,MK2*%
X109317500Y-164012500D02*
X111171000Y-164012500D01*
X109317500Y-164012500D02*
X109317500Y-166662500D01*
X113155500Y-166662500D02*
X113155500Y-164012500D01*
X109317500Y-166662500D02*
X111171000Y-166662500D01*
D14*
X112674000Y-163337500D02*
G75*
G02*
X112474000Y-163337500I-100000J0D01*
G01*
X112474000Y-163337500D02*
G75*
G02*
X112674000Y-163337500I100000J0D01*
G01*
D12*
%TO.C,C25*%
X112463252Y-169410000D02*
X111040748Y-169410000D01*
X112463252Y-167590000D02*
X111040748Y-167590000D01*
%TO.C,J4*%
X128294602Y-102950958D02*
X128294602Y-97130958D01*
X130014602Y-102950958D02*
X130014602Y-97130958D01*
X133114602Y-102950958D02*
X133114602Y-97130958D01*
X134114602Y-102950958D02*
X134114602Y-97130958D01*
X135034602Y-102950958D02*
X128294602Y-102950958D01*
X135034602Y-101610958D02*
X135034602Y-102950958D01*
X128294602Y-97130958D02*
X135034602Y-97130958D01*
X135034602Y-97130958D02*
X135034602Y-101010958D01*
X135644602Y-101750958D02*
X135034602Y-101310958D01*
X135644602Y-100870958D01*
X135644602Y-101750958D01*
G36*
X135644602Y-101750958D02*
G01*
X135034602Y-101310958D01*
X135644602Y-100870958D01*
X135644602Y-101750958D01*
G37*
%TO.C,J2*%
X120725422Y-105398750D02*
X130945422Y-105398750D01*
X122835422Y-107508750D02*
X120725422Y-107508750D01*
X120725422Y-107508750D02*
X120725422Y-105398750D01*
X130945422Y-109618750D02*
X130945422Y-105398750D01*
X122835422Y-109618750D02*
X122835422Y-107508750D01*
X122835422Y-109618750D02*
X130945422Y-109618750D01*
X121835422Y-109618750D02*
X120725422Y-109618750D01*
X120725422Y-109618750D02*
X120725422Y-108508750D01*
%TO.C,J1*%
X127127604Y-92927348D02*
X114317604Y-92927348D01*
X114317604Y-90167348D02*
X114317604Y-92927348D01*
X127127604Y-90167348D02*
X127127604Y-92927348D01*
X127127604Y-90167348D02*
X114317604Y-90167348D01*
X128397604Y-90167348D02*
X129777604Y-90167348D01*
X129777604Y-90167348D02*
X129777604Y-91547348D01*
%TO.C,SW3*%
X120620000Y-123150000D02*
X120620000Y-116850000D01*
X120880000Y-123150000D02*
X120620000Y-123150000D01*
X125380000Y-123150000D02*
X122780000Y-123150000D01*
X127530000Y-123150000D02*
X127280000Y-123150000D01*
X127530000Y-123150000D02*
X127530000Y-121000000D01*
X120620000Y-116850000D02*
X120880000Y-116850000D01*
X122780000Y-116850000D02*
X125380000Y-116850000D01*
X127280000Y-116850000D02*
X127530000Y-116850000D01*
X127530000Y-116850000D02*
X127530000Y-119000000D01*
%TO.C,SW1*%
X109620000Y-123150000D02*
X109620000Y-116850000D01*
X109880000Y-123150000D02*
X109620000Y-123150000D01*
X114380000Y-123150000D02*
X111780000Y-123150000D01*
X116530000Y-123150000D02*
X116280000Y-123150000D01*
X116530000Y-123150000D02*
X116530000Y-121000000D01*
X109620000Y-116850000D02*
X109880000Y-116850000D01*
X111780000Y-116850000D02*
X114380000Y-116850000D01*
X116280000Y-116850000D02*
X116530000Y-116850000D01*
X116530000Y-116850000D02*
X116530000Y-119000000D01*
%TO.C,C5*%
X140659420Y-154790000D02*
X140940580Y-154790000D01*
X140659420Y-155810000D02*
X140940580Y-155810000D01*
%TO.C,C4*%
X140559420Y-134790000D02*
X140840580Y-134790000D01*
X140559420Y-135810000D02*
X140840580Y-135810000D01*
%TO.C,C3*%
X140959420Y-114990000D02*
X141240580Y-114990000D01*
X140959420Y-116010000D02*
X141240580Y-116010000D01*
%TO.C,C1*%
X145653733Y-155890000D02*
X145946267Y-155890000D01*
X145653733Y-156910000D02*
X145946267Y-156910000D01*
%TO.C,C2*%
X163990000Y-94640580D02*
X163990000Y-94359420D01*
X165010000Y-94640580D02*
X165010000Y-94359420D01*
%TD*%
M02*
