M48
; DRILL file {KiCad 9.0.4} date 2025-11-11T13:18:44+0100
; FORMAT={-:-/ absolute / metric / decimal}
; #@! TF.CreationDate,2025-11-11T13:18:44+01:00
; #@! TF.GenerationSoftware,Kicad,Pcbnew,9.0.4
; #@! TF.FileFunction,Plated,1,2,PTH
FMAT,2
METRIC
; #@! TA.AperFunction,Plated,PTH,ComponentDrill
T1C0.250
; #@! TA.AperFunction,Plated,PTH,ViaDrill
T2C0.300
; #@! TA.AperFunction,Plated,PTH,ComponentDrill
T3C0.800
; #@! TA.AperFunction,Plated,PTH,ComponentDrill
T4C1.000
; #@! TA.AperFunction,Plated,PTH,ComponentDrill
T5C1.020
; #@! TA.AperFunction,Plated,PTH,ComponentDrill
T6C1.100
; #@! TA.AperFunction,Plated,PTH,ComponentDrill
T7C1.200
; #@! TA.AperFunction,Plated,PTH,ComponentDrill
T8C2.700
%
G90
G05
T1
X120.2Y-137.5
X120.2Y-138.9
X120.9Y-136.8
X120.9Y-138.2
X120.9Y-139.6
X121.6Y-137.5
X121.6Y-138.9
X122.3Y-136.8
X122.3Y-138.2
X122.3Y-139.6
X123.0Y-137.5
X123.0Y-138.9
T2
X109.0Y-168.5
X109.45Y-104.4
X109.45Y-111.25
X109.5Y-162.75
X110.0Y-170.75
X110.3Y-98.7
X110.75Y-162.75
X111.25Y-170.75
X111.75Y-168.5
X112.0Y-161.75
X112.0Y-162.75
X112.25Y-111.25
X112.25Y-170.75
X112.6Y-101.5
X112.75Y-95.45
X113.0Y-114.25
X113.0Y-119.0
X113.0Y-120.75
X113.0Y-122.25
X113.0Y-124.0
X113.25Y-151.75
X113.45Y-148.6
X113.5Y-162.75
X113.5Y-170.75
X113.701Y-130.75
X113.75Y-134.25
X113.75Y-138.0
X113.8Y-91.8
X114.0Y-143.75
X114.25Y-140.0
X114.5Y-159.25
X114.5Y-166.25
X114.5Y-167.25
X114.5Y-169.5
X114.5Y-170.75
X115.3Y-168.5
X115.4Y-161.6
X115.95Y-150.2
X116.0Y-158.0
X116.25Y-153.25
X116.4Y-116.0
X116.75Y-106.2
X116.75Y-111.25
X117.0Y-130.0
X117.075Y-122.75
X117.2Y-100.15
X117.3Y-117.0
X117.5Y-143.75
X117.6Y-151.15
X117.65Y-154.8
X117.75Y-114.25
X117.75Y-129.5
X117.75Y-131.0
X117.75Y-135.75
X118.5Y-161.75
X118.55Y-160.5
X118.7Y-155.1
X118.75Y-118.0
X118.75Y-157.5
X119.0Y-114.25
X119.0Y-129.5
X119.0Y-151.15
X119.1Y-94.85
X119.173Y-121.673
X119.5Y-130.75
X119.6Y-162.85
X119.65Y-154.8
X120.5Y-157.5
X120.5Y-162.0
X120.675Y-151.559
X121.25Y-119.75
X121.3Y-165.3
X121.55Y-144.1
X122.0Y-160.25
X122.0Y-162.0
X122.2Y-154.8
X122.25Y-157.5
X122.75Y-126.25
X122.75Y-147.25
X122.75Y-153.0
X123.0Y-161.95
X123.05Y-116.05
X123.05Y-124.0
X123.25Y-163.5
X123.65Y-151.2
X123.777Y-130.73
X124.0Y-157.5
X124.0Y-160.25
X124.425Y-151.1
X125.0Y-124.0
X125.2Y-116.0
X125.75Y-139.5
X125.75Y-157.5
X125.75Y-163.5
X126.4Y-169.6
X126.6Y-144.0
X127.1Y-151.15
X127.25Y-157.5
X127.25Y-160.25
X127.25Y-163.75
X127.75Y-144.0
X127.75Y-170.75
X127.9Y-164.8
X128.25Y-130.75
X128.25Y-135.0
X128.25Y-139.5
X128.75Y-124.0
X129.0Y-126.4
X129.1Y-146.6
X129.3Y-162.275
X129.5Y-157.5
X129.75Y-160.0
X129.75Y-163.75
X130.0Y-123.5
X130.0Y-149.75
X130.2Y-132.3
X130.4Y-126.5
X130.4Y-146.6
X130.9Y-167.6
X132.0Y-149.5
X132.0Y-157.5
X132.0Y-163.75
X132.2Y-162.2
X132.55Y-168.8
X132.6Y-127.6
X132.9Y-125.9
X133.6Y-130.8
X134.25Y-140.75
X134.5Y-157.5
X134.75Y-150.75
X135.25Y-160.25
X136.0Y-122.0
X136.0Y-140.75
X136.0Y-161.575
X136.25Y-129.5
X136.25Y-147.5
X136.25Y-154.75
X137.25Y-163.75
X137.3Y-122.95
X138.45Y-135.55
X138.5Y-122.0
X138.5Y-124.75
X138.5Y-150.25
X138.5Y-153.75
X138.75Y-129.25
X138.75Y-145.25
X138.75Y-149.0
X139.0Y-144.25
X139.5Y-140.5
X140.25Y-142.7
X140.5Y-145.75
X141.0Y-162.2
X141.25Y-104.6
X141.5Y-124.75
X141.65Y-140.5
X141.7Y-152.6
X141.75Y-129.25
X142.0Y-143.25
X142.0Y-150.0
X142.225Y-147.25
X142.5Y-100.5
X142.75Y-113.75
X142.75Y-121.75
X142.85Y-141.3
X142.85Y-151.9
X143.0Y-155.25
X143.5Y-160.25
X143.75Y-129.25
X144.25Y-117.0
X144.25Y-120.0
X144.625Y-103.676
X144.75Y-170.75
X145.0Y-137.75
X145.0Y-149.0
X145.2Y-161.375
X145.5Y-122.0
X145.5Y-129.25
X146.25Y-147.25
X146.45Y-115.5
X146.75Y-113.25
X147.0Y-135.0
X147.0Y-137.0
X147.25Y-119.75
X147.25Y-122.0
X147.25Y-124.5
X147.25Y-129.25
X147.7Y-156.4
X147.8Y-138.6
X148.25Y-160.25
X148.25Y-163.75
X148.6Y-162.2
X149.25Y-113.25
X149.25Y-119.5
X149.25Y-122.0
X149.25Y-124.25
X149.25Y-129.25
X150.0Y-134.0
X150.75Y-137.25
X151.0Y-147.25
X151.25Y-117.75
X151.25Y-121.75
X151.25Y-124.5
X151.25Y-160.25
X151.25Y-163.75
X151.876Y-114.876
X152.0Y-148.25
X152.7Y-161.375
X152.75Y-116.5
X152.75Y-129.0
X152.75Y-134.5
X153.0Y-121.75
X153.0Y-143.25
X153.25Y-124.75
X154.25Y-129.75
X154.5Y-115.0
X154.5Y-121.75
X154.75Y-163.75
X155.25Y-137.25
X155.5Y-133.5
X155.5Y-148.75
X155.51Y-132.0
X155.75Y-142.75
X155.94Y-156.6
X156.25Y-170.75
X156.5Y-118.25
X156.5Y-125.0
X156.8Y-126.8
X157.5Y-113.0
X157.5Y-129.5
X157.5Y-134.0
X157.5Y-163.75
X157.75Y-124.0
X157.75Y-142.25
X157.75Y-148.75
X158.0Y-145.75
X158.0Y-156.0
X158.0Y-158.0
X158.525Y-140.5
X159.25Y-115.25
X159.4Y-127.6
X159.5Y-125.5
X160.5Y-145.25
X160.5Y-149.0
X160.5Y-156.25
X160.5Y-158.0
X160.6Y-141.35
X161.5Y-113.5
X161.8Y-133.6
X162.0Y-124.25
X162.25Y-128.75
X162.25Y-163.75
X162.5Y-116.25
X162.5Y-120.5
X163.0Y-134.5
X163.0Y-141.0
X163.0Y-144.75
X163.0Y-156.25
X163.0Y-159.5
X163.25Y-149.0
X163.25Y-170.75
X164.1Y-123.3
X164.15Y-160.45
X164.25Y-113.25
X165.25Y-126.25
X165.25Y-130.5
X165.25Y-159.0
X165.5Y-136.5
X165.5Y-141.0
X165.5Y-144.75
X165.5Y-149.0
X165.5Y-156.25
X166.0Y-122.1
X166.683Y-160.45
X167.75Y-163.75
X168.0Y-138.5
X168.0Y-156.25
X168.25Y-120.75
X168.25Y-126.75
X168.25Y-133.0
X168.25Y-144.75
X168.25Y-148.75
X168.25Y-170.25
X168.5Y-139.875
T3
X121.835Y-106.509
X121.835Y-108.509
X123.835Y-106.509
X123.835Y-108.509
X125.835Y-106.509
X125.835Y-108.509
X127.835Y-106.509
X127.835Y-108.509
X129.835Y-106.509
X129.835Y-108.509
T4
X115.698Y-91.547
X118.238Y-91.547
X120.778Y-91.547
X123.318Y-91.547
X125.858Y-91.547
X128.398Y-91.547
X137.3Y-117.275
X137.3Y-137.5
X137.3Y-157.275
X139.8Y-117.275
X139.8Y-137.5
X139.8Y-157.275
X142.3Y-117.275
X142.3Y-137.5
X142.3Y-157.275
X155.94Y-166.26
X155.94Y-168.8
X158.48Y-166.26
X158.48Y-168.8
X161.02Y-166.26
X161.02Y-168.8
X163.56Y-166.26
X163.56Y-168.8
X166.1Y-166.26
X166.1Y-168.8
X167.25Y-93.42
X167.25Y-95.96
X167.25Y-98.5
X167.25Y-101.04
T5
X145.286Y-151.01
X145.286Y-153.55
X145.35Y-107.83
X145.35Y-110.37
X147.826Y-151.01
X147.826Y-153.55
X147.89Y-107.83
X147.89Y-110.37
X150.367Y-151.01
X150.367Y-153.55
X150.43Y-107.83
X150.43Y-110.37
X152.906Y-151.01
X152.906Y-153.55
X152.97Y-107.83
X152.97Y-110.37
X155.446Y-151.01
X155.446Y-153.55
X155.51Y-107.83
X155.51Y-110.37
X157.987Y-151.01
X157.987Y-153.55
X158.05Y-107.83
X158.05Y-110.37
X160.526Y-151.01
X160.526Y-153.55
X160.59Y-107.83
X160.59Y-110.37
X163.066Y-151.01
X163.066Y-153.55
X163.13Y-107.83
X163.13Y-110.37
X165.606Y-151.01
X165.606Y-153.55
X165.67Y-107.83
X165.67Y-110.37
X168.147Y-151.01
X168.147Y-153.55
X168.21Y-107.83
X168.21Y-110.37
T7
X131.515Y-98.771
X131.515Y-101.311
T8
X110.628Y-107.43
X110.638Y-92.612
X123.0Y-168.0
X151.0Y-168.0
X153.0Y-92.0
T6
G00X135.0Y-125.125
M15
G01X135.0Y-124.425
M16
G05
G00X135.0Y-145.35
M15
G01X135.0Y-144.65
M16
G05
G00X135.0Y-165.125
M15
G01X135.0Y-164.425
M16
G05
G00X144.6Y-125.125
M15
G01X144.6Y-124.425
M16
G05
G00X144.6Y-145.35
M15
G01X144.6Y-144.65
M16
G05
G00X144.6Y-165.125
M15
G01X144.6Y-164.425
M16
G05
M30
