%TF.GenerationSoftware,KiCad,Pcbnew,9.0.4*%
%TF.CreationDate,2025-11-11T13:18:43+01:00*%
%TF.ProjectId,e003_rocker,65303033-5f72-46f6-936b-65722e6b6963,rev?*%
%TF.SameCoordinates,Original*%
%TF.FileFunction,Soldermask,Bot*%
%TF.FilePolarity,Negative*%
%FSLAX46Y46*%
G04 Gerber Fmt 4.6, Leading zero omitted, Abs format (unit mm)*
G04 Created by KiCad (PCBNEW 9.0.4) date 2025-11-11 13:18:43*
%MOMM*%
%LPD*%
G01*
G04 APERTURE LIST*
G04 Aperture macros list*
%AMRoundRect*
0 Rectangle with rounded corners*
0 $1 Rounding radius*
0 $2 $3 $4 $5 $6 $7 $8 $9 X,Y pos of 4 corners*
0 Add a 4 corners polygon primitive as box body*
4,1,4,$2,$3,$4,$5,$6,$7,$8,$9,$2,$3,0*
0 Add four circle primitives for the rounded corners*
1,1,$1+$1,$2,$3*
1,1,$1+$1,$4,$5*
1,1,$1+$1,$6,$7*
1,1,$1+$1,$8,$9*
0 Add four rect primitives between the rounded corners*
20,1,$1+$1,$2,$3,$4,$5,0*
20,1,$1+$1,$4,$5,$6,$7,0*
20,1,$1+$1,$6,$7,$8,$9,0*
20,1,$1+$1,$8,$9,$2,$3,0*%
G04 Aperture macros list end*
%ADD10C,0.200000*%
%ADD11C,4.200000*%
%ADD12C,4.100000*%
%ADD13C,4.500000*%
%ADD14C,1.700000*%
%ADD15R,1.700000X1.700000*%
%ADD16C,0.600000*%
%ADD17RoundRect,0.250000X0.750000X-0.750000X0.750000X0.750000X-0.750000X0.750000X-0.750000X-0.750000X0*%
%ADD18C,2.000000*%
%ADD19C,1.350000*%
%ADD20R,1.350000X1.350000*%
%ADD21O,2.720000X3.240000*%
%ADD22R,1.800000X1.800000*%
%ADD23C,1.800000*%
%ADD24RoundRect,0.200000X-0.275000X0.200000X-0.275000X-0.200000X0.275000X-0.200000X0.275000X0.200000X0*%
%ADD25R,1.550000X1.550000*%
%ADD26C,1.550000*%
G04 APERTURE END LIST*
D10*
G36*
X146736119Y-91042012D02*
G01*
X146773953Y-91065753D01*
X146798311Y-91103719D01*
X146807414Y-91161863D01*
X146807414Y-92750540D01*
X146799232Y-92775087D01*
X146770533Y-92792794D01*
X146715212Y-92803663D01*
X146628384Y-92807815D01*
X146540945Y-92803663D01*
X146486235Y-92792916D01*
X146456926Y-92775209D01*
X146448011Y-92750785D01*
X146448011Y-92190369D01*
X146300488Y-92190369D01*
X146132026Y-92179419D01*
X145996528Y-92149337D01*
X145875624Y-92097813D01*
X145778541Y-92029535D01*
X145700711Y-91942242D01*
X145643353Y-91835851D01*
X145609002Y-91715325D01*
X145599017Y-91597470D01*
X145972592Y-91597470D01*
X145977516Y-91665139D01*
X145991765Y-91725942D01*
X146015612Y-91781385D01*
X146047697Y-91827302D01*
X146089229Y-91864456D01*
X146142707Y-91893248D01*
X146204754Y-91910425D01*
X146286810Y-91916817D01*
X146448011Y-91916817D01*
X146448011Y-91307187D01*
X146294993Y-91307187D01*
X146186427Y-91314881D01*
X146135325Y-91327742D01*
X146086043Y-91351639D01*
X146043039Y-91387592D01*
X146005443Y-91441887D01*
X145981476Y-91508209D01*
X145972592Y-91597470D01*
X145599017Y-91597470D01*
X145596824Y-91571580D01*
X145604641Y-91466818D01*
X145626866Y-91376552D01*
X145664063Y-91294549D01*
X145714305Y-91224633D01*
X145777222Y-91165581D01*
X145853035Y-91117166D01*
X145935117Y-91080896D01*
X146013625Y-91058914D01*
X146149546Y-91038398D01*
X146269103Y-91033635D01*
X146685781Y-91033635D01*
X146736119Y-91042012D01*
G37*
G36*
X144556106Y-91645830D02*
G01*
X144558914Y-91725942D01*
X144567096Y-91774790D01*
X144581385Y-91799337D01*
X144603977Y-91806175D01*
X144628524Y-91801413D01*
X144659298Y-91791154D01*
X144696789Y-91780896D01*
X144741852Y-91776133D01*
X144799249Y-91787857D01*
X144858722Y-91824494D01*
X144922958Y-91890928D01*
X144994644Y-91993143D01*
X144994644Y-92753105D01*
X145002826Y-92777041D01*
X145030914Y-92794138D01*
X145083548Y-92804396D01*
X145166713Y-92807815D01*
X145250122Y-92804396D01*
X145302756Y-92794138D01*
X145330722Y-92777041D01*
X145338904Y-92753105D01*
X145338904Y-91533845D01*
X145332065Y-91509909D01*
X145307519Y-91492812D01*
X145261723Y-91482554D01*
X145191381Y-91479134D01*
X145118963Y-91482554D01*
X145074633Y-91492812D01*
X145052041Y-91509909D01*
X145045202Y-91533845D01*
X145045202Y-91685519D01*
X144955076Y-91572679D01*
X144874476Y-91502215D01*
X144797906Y-91465945D01*
X144721458Y-91455687D01*
X144683234Y-91457763D01*
X144640858Y-91464480D01*
X144602634Y-91475348D01*
X144578698Y-91488293D01*
X144567707Y-91503192D01*
X144561601Y-91525662D01*
X144557449Y-91568405D01*
X144556106Y-91645830D01*
G37*
G36*
X143946526Y-91469074D02*
G01*
X144078244Y-91506367D01*
X144193918Y-91568076D01*
X144286706Y-91649249D01*
X144358903Y-91749501D01*
X144411636Y-91870655D01*
X144442506Y-92004087D01*
X144453279Y-92155809D01*
X144443216Y-92312005D01*
X144415055Y-92442916D01*
X144365733Y-92560321D01*
X144297575Y-92654919D01*
X144209226Y-92730037D01*
X144098150Y-92786200D01*
X143971553Y-92819307D01*
X143815317Y-92831263D01*
X143653859Y-92817921D01*
X143521615Y-92780704D01*
X143405388Y-92718726D01*
X143312543Y-92637090D01*
X143240343Y-92536309D01*
X143188224Y-92415683D01*
X143157822Y-92282811D01*
X143148244Y-92146161D01*
X143501099Y-92146161D01*
X143505814Y-92240433D01*
X143518928Y-92319207D01*
X143542059Y-92390909D01*
X143573517Y-92448412D01*
X143615605Y-92495435D01*
X143667794Y-92529745D01*
X143728611Y-92550367D01*
X143802983Y-92557711D01*
X143883285Y-92549489D01*
X143945132Y-92526936D01*
X143996532Y-92489854D01*
X144035990Y-92440108D01*
X144064325Y-92380506D01*
X144084473Y-92308217D01*
X144095587Y-92230430D01*
X144099494Y-92142131D01*
X144094617Y-92047901D01*
X144081053Y-91969207D01*
X144057379Y-91897286D01*
X144025732Y-91839270D01*
X143983585Y-91791676D01*
X143931454Y-91757327D01*
X143870796Y-91736580D01*
X143797609Y-91729239D01*
X143716279Y-91737701D01*
X143654849Y-91760746D01*
X143603803Y-91798240D01*
X143563991Y-91848185D01*
X143535270Y-91907871D01*
X143515509Y-91980198D01*
X143504847Y-92057949D01*
X143501099Y-92146161D01*
X143148244Y-92146161D01*
X143147191Y-92131140D01*
X143157277Y-91973755D01*
X143185415Y-91842690D01*
X143234612Y-91725259D01*
X143302285Y-91630809D01*
X143390087Y-91555800D01*
X143501099Y-91500139D01*
X143627710Y-91467515D01*
X143785153Y-91455687D01*
X143946526Y-91469074D01*
G37*
G36*
X142153611Y-92636601D02*
G01*
X142161182Y-92729169D01*
X142180966Y-92774476D01*
X142217114Y-92797679D01*
X142273168Y-92815509D01*
X142342899Y-92827110D01*
X142418614Y-92831263D01*
X142517159Y-92824328D01*
X142596301Y-92805251D01*
X142665571Y-92771805D01*
X142720621Y-92725139D01*
X142762630Y-92665332D01*
X142793039Y-92588852D01*
X142810016Y-92502615D01*
X142816242Y-92394312D01*
X142816242Y-91768318D01*
X142962543Y-91768318D01*
X142984507Y-91760920D01*
X143002110Y-91735956D01*
X143011649Y-91697951D01*
X143015788Y-91627634D01*
X143012369Y-91560101D01*
X143002110Y-91516625D01*
X142985013Y-91493911D01*
X142961078Y-91486950D01*
X142816242Y-91486950D01*
X142816242Y-91215840D01*
X142808792Y-91191416D01*
X142781437Y-91172976D01*
X142728192Y-91162107D01*
X142645516Y-91158688D01*
X142561496Y-91162107D01*
X142508862Y-91172976D01*
X142481507Y-91191416D01*
X142473325Y-91215840D01*
X142473325Y-91486950D01*
X142208321Y-91486950D01*
X142184385Y-91493911D01*
X142167288Y-91516625D01*
X142157030Y-91560101D01*
X142153611Y-91627634D01*
X142157750Y-91697951D01*
X142167288Y-91735956D01*
X142184891Y-91760920D01*
X142206856Y-91768318D01*
X142473325Y-91768318D01*
X142473325Y-92342166D01*
X142464343Y-92434786D01*
X142441939Y-92492131D01*
X142416961Y-92518829D01*
X142380944Y-92535764D01*
X142329832Y-92542079D01*
X142280617Y-92537316D01*
X142241782Y-92526448D01*
X142213084Y-92515457D01*
X142191835Y-92510694D01*
X142176203Y-92515457D01*
X142164602Y-92534630D01*
X142157030Y-92573586D01*
X142153611Y-92636601D01*
G37*
G36*
X141500189Y-91469074D02*
G01*
X141631908Y-91506367D01*
X141747582Y-91568076D01*
X141840369Y-91649249D01*
X141912566Y-91749501D01*
X141965300Y-91870655D01*
X141996170Y-92004087D01*
X142006943Y-92155809D01*
X141996879Y-92312005D01*
X141968719Y-92442916D01*
X141919396Y-92560321D01*
X141851238Y-92654919D01*
X141762890Y-92730037D01*
X141651814Y-92786200D01*
X141525217Y-92819307D01*
X141368981Y-92831263D01*
X141207522Y-92817921D01*
X141075279Y-92780704D01*
X140959052Y-92718726D01*
X140866207Y-92637090D01*
X140794006Y-92536309D01*
X140741887Y-92415683D01*
X140711485Y-92282811D01*
X140701907Y-92146161D01*
X141054762Y-92146161D01*
X141059478Y-92240433D01*
X141072592Y-92319207D01*
X141095723Y-92390909D01*
X141127180Y-92448412D01*
X141169268Y-92495435D01*
X141221458Y-92529745D01*
X141282275Y-92550367D01*
X141356646Y-92557711D01*
X141436948Y-92549489D01*
X141498796Y-92526936D01*
X141550196Y-92489854D01*
X141589654Y-92440108D01*
X141617989Y-92380506D01*
X141638136Y-92308217D01*
X141649251Y-92230430D01*
X141653157Y-92142131D01*
X141648281Y-92047901D01*
X141634717Y-91969207D01*
X141611043Y-91897286D01*
X141579396Y-91839270D01*
X141537249Y-91791676D01*
X141485118Y-91757327D01*
X141424460Y-91736580D01*
X141351273Y-91729239D01*
X141269942Y-91737701D01*
X141208513Y-91760746D01*
X141157466Y-91798240D01*
X141117655Y-91848185D01*
X141088934Y-91907871D01*
X141069173Y-91980198D01*
X141058510Y-92057949D01*
X141054762Y-92146161D01*
X140701907Y-92146161D01*
X140700854Y-92131140D01*
X140710941Y-91973755D01*
X140739078Y-91842690D01*
X140788276Y-91725259D01*
X140855949Y-91630809D01*
X140943751Y-91555800D01*
X141054762Y-91500139D01*
X141181373Y-91467515D01*
X141338817Y-91455687D01*
X141500189Y-91469074D01*
G37*
G36*
X139014724Y-91645830D02*
G01*
X139017533Y-91725942D01*
X139025715Y-91774790D01*
X139040003Y-91799337D01*
X139062595Y-91806175D01*
X139087142Y-91801413D01*
X139117916Y-91791154D01*
X139155408Y-91780896D01*
X139200471Y-91776133D01*
X139257868Y-91787857D01*
X139317341Y-91824494D01*
X139381577Y-91890928D01*
X139453262Y-91993143D01*
X139453262Y-92753105D01*
X139461444Y-92777041D01*
X139489532Y-92794138D01*
X139542166Y-92804396D01*
X139625331Y-92807815D01*
X139708740Y-92804396D01*
X139761374Y-92794138D01*
X139789340Y-92777041D01*
X139797522Y-92753105D01*
X139797522Y-91533845D01*
X139790683Y-91509909D01*
X139766137Y-91492812D01*
X139720341Y-91482554D01*
X139650000Y-91479134D01*
X139577581Y-91482554D01*
X139533251Y-91492812D01*
X139510659Y-91509909D01*
X139503820Y-91533845D01*
X139503820Y-91685519D01*
X139413695Y-91572679D01*
X139333094Y-91502215D01*
X139256524Y-91465945D01*
X139180076Y-91455687D01*
X139141852Y-91457763D01*
X139099476Y-91464480D01*
X139061252Y-91475348D01*
X139037316Y-91488293D01*
X139026325Y-91503192D01*
X139020219Y-91525662D01*
X139016067Y-91568405D01*
X139014724Y-91645830D01*
G37*
G36*
X138405144Y-91469074D02*
G01*
X138536863Y-91506367D01*
X138652536Y-91568076D01*
X138745324Y-91649249D01*
X138817521Y-91749501D01*
X138870254Y-91870655D01*
X138901124Y-92004087D01*
X138911898Y-92155809D01*
X138901834Y-92312005D01*
X138873674Y-92442916D01*
X138824351Y-92560321D01*
X138756193Y-92654919D01*
X138667845Y-92730037D01*
X138556769Y-92786200D01*
X138430171Y-92819307D01*
X138273935Y-92831263D01*
X138112477Y-92817921D01*
X137980233Y-92780704D01*
X137864007Y-92718726D01*
X137771161Y-92637090D01*
X137698961Y-92536309D01*
X137646842Y-92415683D01*
X137616440Y-92282811D01*
X137606862Y-92146161D01*
X137959717Y-92146161D01*
X137964433Y-92240433D01*
X137977547Y-92319207D01*
X138000677Y-92390909D01*
X138032135Y-92448412D01*
X138074223Y-92495435D01*
X138126413Y-92529745D01*
X138187230Y-92550367D01*
X138261601Y-92557711D01*
X138341903Y-92549489D01*
X138403750Y-92526936D01*
X138455150Y-92489854D01*
X138494609Y-92440108D01*
X138522943Y-92380506D01*
X138543091Y-92308217D01*
X138554205Y-92230430D01*
X138558112Y-92142131D01*
X138553236Y-92047901D01*
X138539672Y-91969207D01*
X138515997Y-91897286D01*
X138484351Y-91839270D01*
X138442204Y-91791676D01*
X138390073Y-91757327D01*
X138329415Y-91736580D01*
X138256228Y-91729239D01*
X138174897Y-91737701D01*
X138113468Y-91760746D01*
X138062421Y-91798240D01*
X138022609Y-91848185D01*
X137993888Y-91907871D01*
X137974127Y-91980198D01*
X137963465Y-92057949D01*
X137959717Y-92146161D01*
X137606862Y-92146161D01*
X137605809Y-92131140D01*
X137615895Y-91973755D01*
X137644033Y-91842690D01*
X137693231Y-91725259D01*
X137760903Y-91630809D01*
X137848705Y-91555800D01*
X137959717Y-91500139D01*
X138086328Y-91467515D01*
X138243771Y-91455687D01*
X138405144Y-91469074D01*
G37*
G36*
X136411461Y-92561985D02*
G01*
X136413538Y-92621336D01*
X136419033Y-92661514D01*
X136427215Y-92688136D01*
X136448342Y-92714026D01*
X136504396Y-92752006D01*
X136594521Y-92791939D01*
X136704553Y-92820394D01*
X136826796Y-92831263D01*
X136962340Y-92819793D01*
X137076168Y-92787421D01*
X137176429Y-92732857D01*
X137258496Y-92657972D01*
X137322308Y-92564636D01*
X137369870Y-92449023D01*
X137397479Y-92320573D01*
X137407362Y-92166800D01*
X137395148Y-91990263D01*
X137361688Y-91849651D01*
X137305554Y-91725286D01*
X137233949Y-91628367D01*
X137144372Y-91551959D01*
X137039898Y-91498185D01*
X136924110Y-91466606D01*
X136793946Y-91455687D01*
X136686845Y-91465457D01*
X136588415Y-91491835D01*
X136506472Y-91529326D01*
X136455181Y-91565474D01*
X136434054Y-91591120D01*
X136424528Y-91617986D01*
X136419033Y-91658653D01*
X136416957Y-91717271D01*
X136421144Y-91791243D01*
X136430635Y-91829745D01*
X136447583Y-91855086D01*
X136466172Y-91862107D01*
X136489002Y-91857668D01*
X136515387Y-91842690D01*
X136576814Y-91799581D01*
X136661566Y-91756594D01*
X136713524Y-91742267D01*
X136778925Y-91737055D01*
X136862833Y-91748995D01*
X136929786Y-91783006D01*
X136983967Y-91840125D01*
X137020862Y-91912453D01*
X137045626Y-92010685D01*
X137054919Y-92142254D01*
X137050206Y-92237514D01*
X137037212Y-92315666D01*
X137014370Y-92386362D01*
X136984577Y-92441207D01*
X136945055Y-92485579D01*
X136897138Y-92516922D01*
X136841611Y-92535508D01*
X136774895Y-92542079D01*
X136706806Y-92536610D01*
X136652651Y-92521563D01*
X136563136Y-92475645D01*
X136498900Y-92429849D01*
X136473131Y-92413535D01*
X136455181Y-92409211D01*
X136434665Y-92416050D01*
X136421720Y-92441329D01*
X136414270Y-92488346D01*
X136411461Y-92561985D01*
G37*
G36*
X135030635Y-92754448D02*
G01*
X135038206Y-92778384D01*
X135065439Y-92794870D01*
X135119417Y-92804396D01*
X135208199Y-92807815D01*
X135299057Y-92805006D01*
X135356454Y-92796214D01*
X135391259Y-92779117D01*
X135413119Y-92750418D01*
X135818928Y-92107937D01*
X135818928Y-92753105D01*
X135827110Y-92777041D01*
X135855198Y-92794138D01*
X135907833Y-92804396D01*
X135990997Y-92807815D01*
X136074406Y-92804396D01*
X136127041Y-92794138D01*
X136155006Y-92777163D01*
X136163189Y-92753227D01*
X136163189Y-90959385D01*
X136155006Y-90934961D01*
X136127041Y-90916521D01*
X136074406Y-90904919D01*
X135990997Y-90900767D01*
X135907833Y-90904919D01*
X135855198Y-90916521D01*
X135827110Y-90934839D01*
X135818928Y-90959385D01*
X135818928Y-92025872D01*
X135458304Y-91540683D01*
X135433757Y-91511985D01*
X135397487Y-91492812D01*
X135341434Y-91482554D01*
X135256071Y-91479134D01*
X135170708Y-91482554D01*
X135114654Y-91492812D01*
X135085223Y-91509909D01*
X135077041Y-91535188D01*
X135087299Y-91578907D01*
X135118073Y-91628122D01*
X135474668Y-92032711D01*
X135062020Y-92671161D01*
X135038206Y-92718300D01*
X135030635Y-92754448D01*
G37*
G36*
X134486376Y-91468098D02*
G01*
X134606751Y-91503558D01*
X134713784Y-91562441D01*
X134802756Y-91642411D01*
X134872863Y-91741540D01*
X134925732Y-91863939D01*
X134957056Y-91999382D01*
X134968108Y-92157152D01*
X134957374Y-92321952D01*
X134927808Y-92455251D01*
X134876097Y-92573164D01*
X134805565Y-92665788D01*
X134714776Y-92737851D01*
X134601378Y-92790230D01*
X134473184Y-92820387D01*
X134316468Y-92831263D01*
X134147086Y-92819783D01*
X134006402Y-92793039D01*
X133905286Y-92761409D01*
X133856803Y-92735642D01*
X133842393Y-92715614D01*
X133834211Y-92690090D01*
X133830059Y-92653576D01*
X133828715Y-92601796D01*
X133830792Y-92544644D01*
X133838363Y-92509473D01*
X133851919Y-92492254D01*
X133872435Y-92487369D01*
X133925802Y-92500802D01*
X134008356Y-92530355D01*
X134126570Y-92560031D01*
X134197590Y-92569782D01*
X134284961Y-92573342D01*
X134370199Y-92567059D01*
X134437369Y-92549895D01*
X134495820Y-92520518D01*
X134541172Y-92481507D01*
X134575645Y-92432444D01*
X134599912Y-92372452D01*
X134613549Y-92306067D01*
X134618353Y-92229448D01*
X133876465Y-92229448D01*
X133831753Y-92221581D01*
X133799406Y-92199406D01*
X133779153Y-92163767D01*
X133771318Y-92106594D01*
X133771318Y-92052006D01*
X133774113Y-92010607D01*
X134104710Y-92010607D01*
X134618353Y-92010607D01*
X134611963Y-91947162D01*
X134598569Y-91888729D01*
X134577350Y-91834626D01*
X134549354Y-91789567D01*
X134513289Y-91751981D01*
X134468754Y-91722766D01*
X134417327Y-91704466D01*
X134354692Y-91697976D01*
X134272260Y-91708152D01*
X134209921Y-91736211D01*
X134162718Y-91781385D01*
X134130129Y-91840091D01*
X134110099Y-91915016D01*
X134104710Y-92010607D01*
X133774113Y-92010607D01*
X133779771Y-91926818D01*
X133804169Y-91814602D01*
X133846608Y-91711938D01*
X133906629Y-91625680D01*
X133984856Y-91555323D01*
X134084926Y-91500750D01*
X134200179Y-91467730D01*
X134346510Y-91455687D01*
X134486376Y-91468098D01*
G37*
G36*
X132705443Y-91645830D02*
G01*
X132708251Y-91725942D01*
X132716434Y-91774790D01*
X132730722Y-91799337D01*
X132753314Y-91806175D01*
X132777861Y-91801413D01*
X132808635Y-91791154D01*
X132846127Y-91780896D01*
X132891189Y-91776133D01*
X132948586Y-91787857D01*
X133008060Y-91824494D01*
X133072295Y-91890928D01*
X133143981Y-91993143D01*
X133143981Y-92753105D01*
X133152163Y-92777041D01*
X133180251Y-92794138D01*
X133232885Y-92804396D01*
X133316050Y-92807815D01*
X133399459Y-92804396D01*
X133452093Y-92794138D01*
X133480059Y-92777041D01*
X133488241Y-92753105D01*
X133488241Y-91533845D01*
X133481402Y-91509909D01*
X133456856Y-91492812D01*
X133411060Y-91482554D01*
X133340718Y-91479134D01*
X133268300Y-91482554D01*
X133223970Y-91492812D01*
X133201378Y-91509909D01*
X133194539Y-91533845D01*
X133194539Y-91685519D01*
X133104413Y-91572679D01*
X133023813Y-91502215D01*
X132947243Y-91465945D01*
X132870795Y-91455687D01*
X132832571Y-91457763D01*
X132790195Y-91464480D01*
X132751971Y-91475348D01*
X132728035Y-91488293D01*
X132717044Y-91503192D01*
X132710938Y-91525662D01*
X132706786Y-91568405D01*
X132705443Y-91645830D01*
G37*
G36*
X146742891Y-94400470D02*
G01*
X146776762Y-94420258D01*
X146798922Y-94452984D01*
X146807414Y-94506964D01*
X146807414Y-96110540D01*
X146799232Y-96135087D01*
X146770533Y-96152794D01*
X146715212Y-96163663D01*
X146628384Y-96167815D01*
X146540945Y-96163663D01*
X146486235Y-96152794D01*
X146456926Y-96134842D01*
X146448011Y-96110174D01*
X146448011Y-95433133D01*
X146336025Y-95433133D01*
X146280804Y-95437813D01*
X146234909Y-95450963D01*
X146193876Y-95473014D01*
X146157728Y-95503841D01*
X146126578Y-95542085D01*
X146097034Y-95591036D01*
X146040980Y-95710471D01*
X145882466Y-96107365D01*
X145868789Y-96135575D01*
X145840823Y-96154748D01*
X145786845Y-96165006D01*
X145695254Y-96167815D01*
X145587421Y-96165006D01*
X145527215Y-96155481D01*
X145501325Y-96138384D01*
X145495830Y-96112983D01*
X145502669Y-96075369D01*
X145530024Y-95999288D01*
X145678890Y-95649898D01*
X145732135Y-95536814D01*
X145790265Y-95447787D01*
X145855844Y-95381353D01*
X145930216Y-95334703D01*
X145851688Y-95304281D01*
X145784036Y-95266681D01*
X145724493Y-95220423D01*
X145676081Y-95167519D01*
X145637903Y-95106906D01*
X145609891Y-95037581D01*
X145593159Y-94962386D01*
X145589853Y-94913872D01*
X145958914Y-94913872D01*
X145963865Y-94969274D01*
X145978087Y-95017554D01*
X146001904Y-95060551D01*
X146035484Y-95097299D01*
X146077470Y-95126352D01*
X146131106Y-95149078D01*
X146191117Y-95162526D01*
X146264951Y-95167397D01*
X146448011Y-95167397D01*
X146448011Y-94667187D01*
X146286810Y-94667187D01*
X146190457Y-94671339D01*
X146128297Y-94682208D01*
X146048613Y-94717061D01*
X145998604Y-94766716D01*
X145969327Y-94831694D01*
X145958914Y-94913872D01*
X145589853Y-94913872D01*
X145587299Y-94876381D01*
X145595552Y-94775489D01*
X145618806Y-94690879D01*
X145657407Y-94615079D01*
X145709665Y-94550806D01*
X145774624Y-94497809D01*
X145854501Y-94454818D01*
X145943390Y-94423999D01*
X146046353Y-94403161D01*
X146128419Y-94396444D01*
X146243091Y-94393635D01*
X146700802Y-94393635D01*
X146742891Y-94400470D01*
G37*
G36*
X144135397Y-96025300D02*
G01*
X144139549Y-96089291D01*
X144151151Y-96131057D01*
X144168248Y-96153283D01*
X144190108Y-96160000D01*
X145165614Y-96160000D01*
X145186130Y-96153283D01*
X145203227Y-96131057D01*
X145214829Y-96089291D01*
X145218859Y-96025300D01*
X145215439Y-95959965D01*
X145204570Y-95917466D01*
X145187473Y-95893897D01*
X145165614Y-95886448D01*
X144836252Y-95886448D01*
X144836252Y-94729713D01*
X145120429Y-94886029D01*
X145171720Y-94904469D01*
X145189884Y-94904019D01*
X145203105Y-94896287D01*
X145218859Y-94856109D01*
X145222889Y-94775753D01*
X145221545Y-94721898D01*
X145214706Y-94685872D01*
X145199685Y-94661325D01*
X145173674Y-94640809D01*
X144793876Y-94395711D01*
X144776779Y-94386919D01*
X144750157Y-94381423D01*
X144707170Y-94378736D01*
X144638171Y-94378004D01*
X144554152Y-94380080D01*
X144505669Y-94386919D01*
X144483810Y-94399986D01*
X144478314Y-94420502D01*
X144478314Y-95886448D01*
X144189986Y-95886448D01*
X144167515Y-95893897D01*
X144149808Y-95917466D01*
X144138817Y-95959965D01*
X144135397Y-96025300D01*
G37*
G36*
X143118327Y-94400470D02*
G01*
X143152198Y-94420258D01*
X143174358Y-94452984D01*
X143182850Y-94506964D01*
X143182850Y-96046671D01*
X143174358Y-96100650D01*
X143152198Y-96133377D01*
X143118327Y-96153165D01*
X143076238Y-96160000D01*
X142654064Y-96160000D01*
X142497575Y-96153735D01*
X142363490Y-96136154D01*
X142248988Y-96108831D01*
X142139483Y-96067443D01*
X142043705Y-96013991D01*
X141960048Y-95948485D01*
X141888214Y-95870263D01*
X141827387Y-95776963D01*
X141777599Y-95666507D01*
X141743655Y-95549683D01*
X141721865Y-95412254D01*
X141714749Y-95264483D01*
X142085711Y-95264483D01*
X142094624Y-95412466D01*
X142119173Y-95532662D01*
X142162141Y-95639895D01*
X142220289Y-95724759D01*
X142295778Y-95791957D01*
X142389061Y-95840408D01*
X142496641Y-95868281D01*
X142637578Y-95878632D01*
X142824790Y-95878632D01*
X142824790Y-94675003D01*
X142643073Y-94675003D01*
X142486760Y-94687313D01*
X142376116Y-94719455D01*
X142282690Y-94773255D01*
X142209420Y-94843286D01*
X142153880Y-94928731D01*
X142115143Y-95030621D01*
X142093282Y-95141446D01*
X142085711Y-95264483D01*
X141714749Y-95264483D01*
X141714096Y-95250928D01*
X141721117Y-95111572D01*
X141741118Y-94988977D01*
X141772836Y-94881022D01*
X141818792Y-94778738D01*
X141875897Y-94689791D01*
X141944295Y-94612721D01*
X142023887Y-94547197D01*
X142115806Y-94492603D01*
X142221632Y-94448956D01*
X142332737Y-94419539D01*
X142465270Y-94400477D01*
X142622679Y-94393635D01*
X143076238Y-94393635D01*
X143118327Y-94400470D01*
G37*
G36*
X140304937Y-96014675D02*
G01*
X140308356Y-96081964D01*
X140318614Y-96127515D01*
X140336444Y-96152550D01*
X140360990Y-96160000D01*
X141377407Y-96160000D01*
X141429309Y-96154626D01*
X141464846Y-96133499D01*
X141484630Y-96087948D01*
X141490736Y-96010401D01*
X141486706Y-95933586D01*
X141471685Y-95876556D01*
X141443597Y-95827585D01*
X141399145Y-95775195D01*
X141093230Y-95445467D01*
X141007522Y-95350752D01*
X140945708Y-95271688D01*
X140858269Y-95128562D01*
X140831011Y-95064287D01*
X140815160Y-95009249D01*
X140803558Y-94905568D01*
X140817969Y-94819106D01*
X140835818Y-94780726D01*
X140860345Y-94747909D01*
X140891483Y-94721000D01*
X140930687Y-94700160D01*
X140975279Y-94687410D01*
X141030338Y-94682819D01*
X141108228Y-94688193D01*
X141173098Y-94703213D01*
X141282397Y-94748642D01*
X141361043Y-94794682D01*
X141391460Y-94811446D01*
X141410136Y-94815687D01*
X141431385Y-94807505D01*
X141445795Y-94780027D01*
X141454588Y-94728492D01*
X141458007Y-94649480D01*
X141455931Y-94596601D01*
X141449825Y-94559598D01*
X141438834Y-94532121D01*
X141415020Y-94503911D01*
X141352128Y-94463367D01*
X141239410Y-94416472D01*
X141091887Y-94378004D01*
X141010115Y-94366339D01*
X140923726Y-94362372D01*
X140790775Y-94371615D01*
X140682658Y-94397177D01*
X140586433Y-94439823D01*
X140511200Y-94494141D01*
X140451500Y-94562073D01*
X140409351Y-94641542D01*
X140384400Y-94729256D01*
X140375889Y-94825090D01*
X140380025Y-94910625D01*
X140392376Y-94994473D01*
X140416506Y-95078061D01*
X140460642Y-95174113D01*
X140520102Y-95271034D01*
X140606821Y-95387093D01*
X140710523Y-95506795D01*
X140856803Y-95658203D01*
X141063189Y-95870816D01*
X140366364Y-95870816D01*
X140341207Y-95878998D01*
X140321301Y-95904033D01*
X140309089Y-95948852D01*
X140304937Y-96014675D01*
G37*
G36*
X138902739Y-95588227D02*
G01*
X138915696Y-95725858D01*
X138952686Y-95843461D01*
X139013043Y-95947326D01*
X139093370Y-96032749D01*
X139191835Y-96099715D01*
X139311967Y-96150474D01*
X139444053Y-96180681D01*
X139595411Y-96191263D01*
X139751238Y-96180638D01*
X139883740Y-96153893D01*
X139980094Y-96121531D01*
X140029187Y-96095031D01*
X140046284Y-96072561D01*
X140055198Y-96043129D01*
X140059961Y-96000020D01*
X140061304Y-95938471D01*
X140058618Y-95873625D01*
X140049703Y-95830638D01*
X140035415Y-95807313D01*
X140016242Y-95800474D01*
X139974598Y-95816350D01*
X139900837Y-95851277D01*
X139789462Y-95886325D01*
X139720553Y-95897815D01*
X139632292Y-95902079D01*
X139555072Y-95897840D01*
X139488189Y-95885837D01*
X139427175Y-95864068D01*
X139378157Y-95833447D01*
X139338364Y-95793024D01*
X139308548Y-95743077D01*
X139290437Y-95685300D01*
X139283879Y-95612529D01*
X139289232Y-95549638D01*
X139304396Y-95496392D01*
X139330630Y-95449395D01*
X139368632Y-95410052D01*
X139417083Y-95379929D01*
X139482083Y-95357051D01*
X139555546Y-95344163D01*
X139651343Y-95339344D01*
X139795568Y-95347648D01*
X139917812Y-95355830D01*
X139953326Y-95350316D01*
X139974476Y-95336046D01*
X139986443Y-95311226D01*
X139991573Y-95262896D01*
X139991573Y-94495973D01*
X139985499Y-94446280D01*
X139970446Y-94417571D01*
X139944575Y-94400229D01*
X139902791Y-94393635D01*
X139065404Y-94393635D01*
X139042201Y-94401817D01*
X139023761Y-94427585D01*
X139012770Y-94474357D01*
X139009351Y-94543967D01*
X139013669Y-94619622D01*
X139023761Y-94661936D01*
X139042410Y-94690249D01*
X139065404Y-94698450D01*
X139693841Y-94698450D01*
X139693841Y-95081789D01*
X139598831Y-95075073D01*
X139499790Y-95073607D01*
X139360901Y-95082401D01*
X139245045Y-95106946D01*
X139140768Y-95149072D01*
X139057833Y-95205010D01*
X138991355Y-95277053D01*
X138942428Y-95365600D01*
X138913164Y-95466470D01*
X138902739Y-95588227D01*
G37*
G36*
X137484176Y-96025300D02*
G01*
X137488328Y-96089291D01*
X137499930Y-96131057D01*
X137517027Y-96153283D01*
X137538886Y-96160000D01*
X138514392Y-96160000D01*
X138534909Y-96153283D01*
X138552006Y-96131057D01*
X138563607Y-96089291D01*
X138567637Y-96025300D01*
X138564218Y-95959965D01*
X138553349Y-95917466D01*
X138536252Y-95893897D01*
X138514392Y-95886448D01*
X138185031Y-95886448D01*
X138185031Y-94729713D01*
X138469207Y-94886029D01*
X138520498Y-94904469D01*
X138538663Y-94904019D01*
X138551884Y-94896287D01*
X138567637Y-94856109D01*
X138571667Y-94775753D01*
X138570324Y-94721898D01*
X138563485Y-94685872D01*
X138548464Y-94661325D01*
X138522452Y-94640809D01*
X138142655Y-94395711D01*
X138125558Y-94386919D01*
X138098935Y-94381423D01*
X138055949Y-94378736D01*
X137986950Y-94378004D01*
X137902930Y-94380080D01*
X137854448Y-94386919D01*
X137832588Y-94399986D01*
X137827093Y-94420502D01*
X137827093Y-95886448D01*
X137538764Y-95886448D01*
X137516294Y-95893897D01*
X137498586Y-95917466D01*
X137487595Y-95959965D01*
X137484176Y-96025300D01*
G37*
G36*
X136065614Y-96025300D02*
G01*
X136069766Y-96089291D01*
X136081367Y-96131057D01*
X136098464Y-96153283D01*
X136120324Y-96160000D01*
X137095830Y-96160000D01*
X137116346Y-96153283D01*
X137133443Y-96131057D01*
X137145045Y-96089291D01*
X137149075Y-96025300D01*
X137145655Y-95959965D01*
X137134787Y-95917466D01*
X137117690Y-95893897D01*
X137095830Y-95886448D01*
X136766468Y-95886448D01*
X136766468Y-94729713D01*
X137050645Y-94886029D01*
X137101936Y-94904469D01*
X137120101Y-94904019D01*
X137133321Y-94896287D01*
X137149075Y-94856109D01*
X137153105Y-94775753D01*
X137151762Y-94721898D01*
X137144923Y-94685872D01*
X137129902Y-94661325D01*
X137103890Y-94640809D01*
X136724092Y-94395711D01*
X136706995Y-94386919D01*
X136680373Y-94381423D01*
X136637386Y-94378736D01*
X136568387Y-94378004D01*
X136484368Y-94380080D01*
X136435886Y-94386919D01*
X136414026Y-94399986D01*
X136408531Y-94420502D01*
X136408531Y-95886448D01*
X136120202Y-95886448D01*
X136097732Y-95893897D01*
X136080024Y-95917466D01*
X136069033Y-95959965D01*
X136065614Y-96025300D01*
G37*
G36*
X134647051Y-96025300D02*
G01*
X134651203Y-96089291D01*
X134662805Y-96131057D01*
X134679902Y-96153283D01*
X134701762Y-96160000D01*
X135677267Y-96160000D01*
X135697784Y-96153283D01*
X135714881Y-96131057D01*
X135726482Y-96089291D01*
X135730512Y-96025300D01*
X135727093Y-95959965D01*
X135716224Y-95917466D01*
X135699127Y-95893897D01*
X135677267Y-95886448D01*
X135347906Y-95886448D01*
X135347906Y-94729713D01*
X135632083Y-94886029D01*
X135683374Y-94904469D01*
X135701538Y-94904019D01*
X135714759Y-94896287D01*
X135730512Y-94856109D01*
X135734542Y-94775753D01*
X135733199Y-94721898D01*
X135726360Y-94685872D01*
X135711339Y-94661325D01*
X135685327Y-94640809D01*
X135305530Y-94395711D01*
X135288433Y-94386919D01*
X135261810Y-94381423D01*
X135218824Y-94378736D01*
X135149825Y-94378004D01*
X135065806Y-94380080D01*
X135017323Y-94386919D01*
X134995464Y-94399986D01*
X134989968Y-94420502D01*
X134989968Y-95886448D01*
X134701639Y-95886448D01*
X134679169Y-95893897D01*
X134661461Y-95917466D01*
X134650471Y-95959965D01*
X134647051Y-96025300D01*
G37*
G36*
X133228489Y-96025300D02*
G01*
X133232641Y-96089291D01*
X133244242Y-96131057D01*
X133261339Y-96153283D01*
X133283199Y-96160000D01*
X134258705Y-96160000D01*
X134279221Y-96153283D01*
X134296318Y-96131057D01*
X134307920Y-96089291D01*
X134311950Y-96025300D01*
X134308531Y-95959965D01*
X134297662Y-95917466D01*
X134280565Y-95893897D01*
X134258705Y-95886448D01*
X133929344Y-95886448D01*
X133929344Y-94729713D01*
X134213520Y-94886029D01*
X134264811Y-94904469D01*
X134282976Y-94904019D01*
X134296196Y-94896287D01*
X134311950Y-94856109D01*
X134315980Y-94775753D01*
X134314637Y-94721898D01*
X134307798Y-94685872D01*
X134292777Y-94661325D01*
X134266765Y-94640809D01*
X133886967Y-94395711D01*
X133869870Y-94386919D01*
X133843248Y-94381423D01*
X133800261Y-94378736D01*
X133731263Y-94378004D01*
X133647243Y-94380080D01*
X133598761Y-94386919D01*
X133576901Y-94399986D01*
X133571406Y-94420502D01*
X133571406Y-95886448D01*
X133283077Y-95886448D01*
X133260607Y-95893897D01*
X133242899Y-95917466D01*
X133231908Y-95959965D01*
X133228489Y-96025300D01*
G37*
D11*
%TO.C,M5*%
X110627801Y-107430009D03*
%TD*%
D12*
%TO.C,M2*%
X110638356Y-92611725D03*
%TD*%
D13*
%TO.C,M4*%
X151000000Y-168000000D03*
%TD*%
%TO.C,M3*%
X153000000Y-92000000D03*
%TD*%
%TO.C,M1*%
X123000000Y-168000000D03*
%TD*%
D14*
%TO.C,J3*%
X167250000Y-101040000D03*
X167250000Y-98500000D03*
X167250000Y-95960000D03*
D15*
X167250000Y-93420000D03*
%TD*%
%TO.C,J7*%
X166100000Y-168800000D03*
D14*
X166100000Y-166260000D03*
X163560000Y-168800000D03*
X163560000Y-166260000D03*
X161020000Y-168800000D03*
X161020000Y-166260000D03*
X158480000Y-168800000D03*
X158480000Y-166260000D03*
X155940000Y-168800000D03*
X155940000Y-166260000D03*
%TD*%
D16*
%TO.C,MK2*%
X110500000Y-165337500D03*
%TD*%
D17*
%TO.C,J4*%
X131514602Y-101310958D03*
D18*
X131514602Y-98770958D03*
%TD*%
D19*
%TO.C,J2*%
X129835422Y-106508750D03*
X129835422Y-108508750D03*
X127835422Y-106508750D03*
X127835422Y-108508750D03*
X125835422Y-106508750D03*
X125835422Y-108508750D03*
X123835422Y-106508750D03*
X123835422Y-108508750D03*
X121835422Y-106508750D03*
D20*
X121835422Y-108508750D03*
%TD*%
D14*
%TO.C,J1*%
X115697604Y-91547348D03*
X118237604Y-91547348D03*
X120777604Y-91547348D03*
X123317604Y-91547348D03*
X125857604Y-91547348D03*
D15*
X128397604Y-91547348D03*
%TD*%
D21*
%TO.C,RV3*%
X135000000Y-164775000D03*
X144600000Y-164775000D03*
D22*
X137300000Y-157275000D03*
D23*
X139800000Y-157275000D03*
X142300000Y-157275000D03*
%TD*%
D21*
%TO.C,RV2*%
X135000000Y-145000000D03*
X144600000Y-145000000D03*
D22*
X137300000Y-137500000D03*
D23*
X139800000Y-137500000D03*
X142300000Y-137500000D03*
%TD*%
D21*
%TO.C,RV1*%
X135000000Y-124775000D03*
X144600000Y-124775000D03*
D22*
X137300000Y-117275000D03*
D23*
X139800000Y-117275000D03*
X142300000Y-117275000D03*
%TD*%
D24*
%TO.C,R6*%
X123800000Y-102750000D03*
X123800000Y-104400000D03*
%TD*%
%TO.C,R5*%
X121800000Y-102775000D03*
X121800000Y-104425000D03*
%TD*%
%TO.C,R4*%
X129800000Y-102775000D03*
X129800000Y-104425000D03*
%TD*%
%TO.C,R2*%
X127800000Y-102775000D03*
X127800000Y-104425000D03*
%TD*%
%TO.C,R1*%
X125700000Y-102775000D03*
X125700000Y-104425000D03*
%TD*%
D25*
%TO.C,J6*%
X145350000Y-110370010D03*
D26*
X145350000Y-107830010D03*
X147890000Y-110370010D03*
X147890000Y-107830010D03*
X150430000Y-110370010D03*
X150430000Y-107830010D03*
X152970000Y-110370010D03*
X152970000Y-107830010D03*
X155510000Y-110370010D03*
X155510000Y-107830010D03*
X158050000Y-110370010D03*
X158050000Y-107830010D03*
X160590000Y-110370010D03*
X160590000Y-107830010D03*
X163130000Y-110370010D03*
X163130000Y-107830010D03*
X165670000Y-110370010D03*
X165670000Y-107830010D03*
X168210000Y-110370010D03*
X168210000Y-107830010D03*
%TD*%
D25*
%TO.C,J5*%
X145286500Y-153550010D03*
D26*
X145286500Y-151010010D03*
X147826500Y-153550010D03*
X147826500Y-151010010D03*
X150366500Y-153550010D03*
X150366500Y-151010010D03*
X152906500Y-153550010D03*
X152906500Y-151010010D03*
X155446500Y-153550010D03*
X155446500Y-151010010D03*
X157986500Y-153550010D03*
X157986500Y-151010010D03*
X160526500Y-153550010D03*
X160526500Y-151010010D03*
X163066500Y-153550010D03*
X163066500Y-151010010D03*
X165606500Y-153550010D03*
X165606500Y-151010010D03*
X168146500Y-153550010D03*
X168146500Y-151010010D03*
%TD*%
M02*
