%TF.GenerationSoftware,KiCad,Pcbnew,9.0.4*%
%TF.CreationDate,2025-11-11T13:18:42+01:00*%
%TF.ProjectId,e003_rocker,65303033-5f72-46f6-936b-65722e6b6963,rev?*%
%TF.SameCoordinates,Original*%
%TF.FileFunction,Paste,Top*%
%TF.FilePolarity,Positive*%
%FSLAX46Y46*%
G04 Gerber Fmt 4.6, Leading zero omitted, Abs format (unit mm)*
G04 Created by KiCad (PCBNEW 9.0.4) date 2025-11-11 13:18:42*
%MOMM*%
%LPD*%
G01*
G04 APERTURE LIST*
G04 Aperture macros list*
%AMRoundRect*
0 Rectangle with rounded corners*
0 $1 Rounding radius*
0 $2 $3 $4 $5 $6 $7 $8 $9 X,Y pos of 4 corners*
0 Add a 4 corners polygon primitive as box body*
4,1,4,$2,$3,$4,$5,$6,$7,$8,$9,$2,$3,0*
0 Add four circle primitives for the rounded corners*
1,1,$1+$1,$2,$3*
1,1,$1+$1,$4,$5*
1,1,$1+$1,$6,$7*
1,1,$1+$1,$8,$9*
0 Add four rect primitives between the rounded corners*
20,1,$1+$1,$2,$3,$4,$5,0*
20,1,$1+$1,$4,$5,$6,$7,0*
20,1,$1+$1,$6,$7,$8,$9,0*
20,1,$1+$1,$8,$9,$2,$3,0*%
G04 Aperture macros list end*
%ADD10C,0.010000*%
%ADD11RoundRect,0.200000X0.275000X-0.200000X0.275000X0.200000X-0.275000X0.200000X-0.275000X-0.200000X0*%
%ADD12R,0.900000X0.900000*%
%ADD13R,0.900000X1.500000*%
%ADD14R,1.500000X0.900000*%
%ADD15RoundRect,0.225000X-0.250000X0.225000X-0.250000X-0.225000X0.250000X-0.225000X0.250000X0.225000X0*%
%ADD16RoundRect,0.200000X-0.275000X0.200000X-0.275000X-0.200000X0.275000X-0.200000X0.275000X0.200000X0*%
%ADD17RoundRect,0.200000X-0.200000X-0.275000X0.200000X-0.275000X0.200000X0.275000X-0.200000X0.275000X0*%
%ADD18RoundRect,0.225000X0.225000X0.250000X-0.225000X0.250000X-0.225000X-0.250000X0.225000X-0.250000X0*%
%ADD19RoundRect,0.250000X-0.650000X0.325000X-0.650000X-0.325000X0.650000X-0.325000X0.650000X0.325000X0*%
%ADD20R,0.522000X0.725000*%
%ADD21RoundRect,0.250000X0.325000X0.650000X-0.325000X0.650000X-0.325000X-0.650000X0.325000X-0.650000X0*%
%ADD22R,1.300000X1.550000*%
%ADD23R,1.700000X1.300000*%
%ADD24RoundRect,0.225000X-0.225000X-0.250000X0.225000X-0.250000X0.225000X0.250000X-0.225000X0.250000X0*%
%ADD25RoundRect,0.237500X-0.300000X-0.237500X0.300000X-0.237500X0.300000X0.237500X-0.300000X0.237500X0*%
%ADD26RoundRect,0.225000X0.250000X-0.225000X0.250000X0.225000X-0.250000X0.225000X-0.250000X-0.225000X0*%
G04 APERTURE END LIST*
D10*
%TO.C,MK2*%
X110535000Y-164526500D02*
X110570000Y-164528500D01*
X110606000Y-164532500D01*
X110640000Y-164538500D01*
X110675000Y-164545500D01*
X110709000Y-164553500D01*
X110743000Y-164563500D01*
X110776000Y-164575500D01*
X110809000Y-164588500D01*
X110841000Y-164602500D01*
X110873000Y-164618500D01*
X110904000Y-164635500D01*
X110934000Y-164654500D01*
X110963000Y-164673500D01*
X110997000Y-164699500D01*
X110784739Y-164911338D01*
X110764000Y-164898500D01*
X110747000Y-164888500D01*
X110729000Y-164879500D01*
X110711000Y-164871500D01*
X110693000Y-164863500D01*
X110675000Y-164856500D01*
X110656000Y-164849500D01*
X110637000Y-164844500D01*
X110618000Y-164839500D01*
X110598000Y-164835500D01*
X110579000Y-164831500D01*
X110559000Y-164829500D01*
X110540000Y-164827500D01*
X110520000Y-164826500D01*
X110500000Y-164825500D01*
X110480000Y-164826500D01*
X110460000Y-164827500D01*
X110441000Y-164829500D01*
X110421000Y-164831500D01*
X110402000Y-164835500D01*
X110382000Y-164839500D01*
X110363000Y-164844500D01*
X110344000Y-164849500D01*
X110325000Y-164856500D01*
X110307000Y-164863500D01*
X110289000Y-164871500D01*
X110271000Y-164879500D01*
X110253000Y-164888500D01*
X110236000Y-164898500D01*
X110215000Y-164911500D01*
X110003000Y-164699500D01*
X110037000Y-164673500D01*
X110066000Y-164654500D01*
X110096000Y-164635500D01*
X110127000Y-164618500D01*
X110159000Y-164602500D01*
X110191000Y-164588500D01*
X110224000Y-164575500D01*
X110257000Y-164563500D01*
X110291000Y-164553500D01*
X110325000Y-164545500D01*
X110360000Y-164538500D01*
X110394000Y-164532500D01*
X110430000Y-164528500D01*
X110465000Y-164526500D01*
X110500000Y-164525500D01*
X110535000Y-164526500D01*
G36*
X110535000Y-164526500D02*
G01*
X110570000Y-164528500D01*
X110606000Y-164532500D01*
X110640000Y-164538500D01*
X110675000Y-164545500D01*
X110709000Y-164553500D01*
X110743000Y-164563500D01*
X110776000Y-164575500D01*
X110809000Y-164588500D01*
X110841000Y-164602500D01*
X110873000Y-164618500D01*
X110904000Y-164635500D01*
X110934000Y-164654500D01*
X110963000Y-164673500D01*
X110997000Y-164699500D01*
X110784739Y-164911338D01*
X110764000Y-164898500D01*
X110747000Y-164888500D01*
X110729000Y-164879500D01*
X110711000Y-164871500D01*
X110693000Y-164863500D01*
X110675000Y-164856500D01*
X110656000Y-164849500D01*
X110637000Y-164844500D01*
X110618000Y-164839500D01*
X110598000Y-164835500D01*
X110579000Y-164831500D01*
X110559000Y-164829500D01*
X110540000Y-164827500D01*
X110520000Y-164826500D01*
X110500000Y-164825500D01*
X110480000Y-164826500D01*
X110460000Y-164827500D01*
X110441000Y-164829500D01*
X110421000Y-164831500D01*
X110402000Y-164835500D01*
X110382000Y-164839500D01*
X110363000Y-164844500D01*
X110344000Y-164849500D01*
X110325000Y-164856500D01*
X110307000Y-164863500D01*
X110289000Y-164871500D01*
X110271000Y-164879500D01*
X110253000Y-164888500D01*
X110236000Y-164898500D01*
X110215000Y-164911500D01*
X110003000Y-164699500D01*
X110037000Y-164673500D01*
X110066000Y-164654500D01*
X110096000Y-164635500D01*
X110127000Y-164618500D01*
X110159000Y-164602500D01*
X110191000Y-164588500D01*
X110224000Y-164575500D01*
X110257000Y-164563500D01*
X110291000Y-164553500D01*
X110325000Y-164545500D01*
X110360000Y-164538500D01*
X110394000Y-164532500D01*
X110430000Y-164528500D01*
X110465000Y-164526500D01*
X110500000Y-164525500D01*
X110535000Y-164526500D01*
G37*
X110785000Y-164911500D02*
X110784609Y-164911469D01*
X110784739Y-164911338D01*
X110785000Y-164911500D01*
G36*
X110785000Y-164911500D02*
G01*
X110784609Y-164911469D01*
X110784739Y-164911338D01*
X110785000Y-164911500D01*
G37*
X110073846Y-165052768D02*
X110066000Y-165066500D01*
X110055000Y-165083500D01*
X110046000Y-165100500D01*
X110037000Y-165119500D01*
X110029000Y-165137500D01*
X110021000Y-165156500D01*
X110015000Y-165175500D01*
X110009000Y-165194500D01*
X110003000Y-165213500D01*
X109999000Y-165233500D01*
X109995000Y-165252500D01*
X109992000Y-165272500D01*
X109990000Y-165292500D01*
X109989000Y-165312500D01*
X109988000Y-165333500D01*
X109989000Y-165353500D01*
X109990000Y-165373500D01*
X109991000Y-165393500D01*
X109994000Y-165413500D01*
X109997000Y-165432500D01*
X110001000Y-165452500D01*
X110006000Y-165472500D01*
X110012000Y-165491500D01*
X110018000Y-165510500D01*
X110025000Y-165529500D01*
X110033000Y-165547500D01*
X110042000Y-165565500D01*
X110051000Y-165583500D01*
X110061000Y-165601500D01*
X110074000Y-165622500D01*
X109862000Y-165834500D01*
X109844000Y-165811500D01*
X109823000Y-165781500D01*
X109804000Y-165750500D01*
X109786000Y-165719500D01*
X109769000Y-165687500D01*
X109754000Y-165654500D01*
X109740000Y-165620500D01*
X109728000Y-165586500D01*
X109718000Y-165552500D01*
X109709000Y-165517500D01*
X109701000Y-165481500D01*
X109696000Y-165445500D01*
X109692000Y-165409500D01*
X109689000Y-165373500D01*
X109688000Y-165337500D01*
X109689000Y-165301500D01*
X109692000Y-165265500D01*
X109696000Y-165229500D01*
X109701000Y-165193500D01*
X109709000Y-165157500D01*
X109718000Y-165122500D01*
X109728000Y-165088500D01*
X109740000Y-165054500D01*
X109754000Y-165020500D01*
X109769000Y-164987500D01*
X109786000Y-164955500D01*
X109804000Y-164924500D01*
X109823000Y-164893500D01*
X109844000Y-164863500D01*
X109862000Y-164840500D01*
X110073846Y-165052768D01*
G36*
X110073846Y-165052768D02*
G01*
X110066000Y-165066500D01*
X110055000Y-165083500D01*
X110046000Y-165100500D01*
X110037000Y-165119500D01*
X110029000Y-165137500D01*
X110021000Y-165156500D01*
X110015000Y-165175500D01*
X110009000Y-165194500D01*
X110003000Y-165213500D01*
X109999000Y-165233500D01*
X109995000Y-165252500D01*
X109992000Y-165272500D01*
X109990000Y-165292500D01*
X109989000Y-165312500D01*
X109988000Y-165333500D01*
X109989000Y-165353500D01*
X109990000Y-165373500D01*
X109991000Y-165393500D01*
X109994000Y-165413500D01*
X109997000Y-165432500D01*
X110001000Y-165452500D01*
X110006000Y-165472500D01*
X110012000Y-165491500D01*
X110018000Y-165510500D01*
X110025000Y-165529500D01*
X110033000Y-165547500D01*
X110042000Y-165565500D01*
X110051000Y-165583500D01*
X110061000Y-165601500D01*
X110074000Y-165622500D01*
X109862000Y-165834500D01*
X109844000Y-165811500D01*
X109823000Y-165781500D01*
X109804000Y-165750500D01*
X109786000Y-165719500D01*
X109769000Y-165687500D01*
X109754000Y-165654500D01*
X109740000Y-165620500D01*
X109728000Y-165586500D01*
X109718000Y-165552500D01*
X109709000Y-165517500D01*
X109701000Y-165481500D01*
X109696000Y-165445500D01*
X109692000Y-165409500D01*
X109689000Y-165373500D01*
X109688000Y-165337500D01*
X109689000Y-165301500D01*
X109692000Y-165265500D01*
X109696000Y-165229500D01*
X109701000Y-165193500D01*
X109709000Y-165157500D01*
X109718000Y-165122500D01*
X109728000Y-165088500D01*
X109740000Y-165054500D01*
X109754000Y-165020500D01*
X109769000Y-164987500D01*
X109786000Y-164955500D01*
X109804000Y-164924500D01*
X109823000Y-164893500D01*
X109844000Y-164863500D01*
X109862000Y-164840500D01*
X110073846Y-165052768D01*
G37*
X110073969Y-165052891D02*
X110073846Y-165052768D01*
X110074000Y-165052500D01*
X110073969Y-165052891D01*
G36*
X110073969Y-165052891D02*
G01*
X110073846Y-165052768D01*
X110074000Y-165052500D01*
X110073969Y-165052891D01*
G37*
X111156000Y-164863500D02*
X111177000Y-164893500D01*
X111196000Y-164924500D01*
X111214000Y-164955500D01*
X111231000Y-164987500D01*
X111246000Y-165020500D01*
X111260000Y-165054500D01*
X111272000Y-165088500D01*
X111282000Y-165122500D01*
X111291000Y-165157500D01*
X111299000Y-165193500D01*
X111304000Y-165229500D01*
X111308000Y-165265500D01*
X111311000Y-165301500D01*
X111312000Y-165337500D01*
X111311000Y-165373500D01*
X111308000Y-165409500D01*
X111304000Y-165445500D01*
X111299000Y-165481500D01*
X111291000Y-165517500D01*
X111282000Y-165552500D01*
X111272000Y-165586500D01*
X111260000Y-165620500D01*
X111246000Y-165654500D01*
X111231000Y-165687500D01*
X111214000Y-165719500D01*
X111196000Y-165750500D01*
X111177000Y-165781500D01*
X111156000Y-165811500D01*
X111138000Y-165834500D01*
X110926161Y-165622239D01*
X110939000Y-165601500D01*
X110949000Y-165583500D01*
X110958000Y-165565500D01*
X110967000Y-165547500D01*
X110975000Y-165529500D01*
X110982000Y-165510500D01*
X110988000Y-165491500D01*
X110994000Y-165472500D01*
X110999000Y-165452500D01*
X111003000Y-165432500D01*
X111006000Y-165413500D01*
X111009000Y-165393500D01*
X111010000Y-165373500D01*
X111011000Y-165353500D01*
X111012000Y-165333500D01*
X111011000Y-165312500D01*
X111010000Y-165292500D01*
X111008000Y-165272500D01*
X111005000Y-165252500D01*
X111001000Y-165233500D01*
X110997000Y-165213500D01*
X110991000Y-165194500D01*
X110985000Y-165175500D01*
X110979000Y-165156500D01*
X110971000Y-165137500D01*
X110963000Y-165119500D01*
X110954000Y-165100500D01*
X110945000Y-165083500D01*
X110934000Y-165066500D01*
X110926000Y-165052500D01*
X111138000Y-164840500D01*
X111156000Y-164863500D01*
G36*
X111156000Y-164863500D02*
G01*
X111177000Y-164893500D01*
X111196000Y-164924500D01*
X111214000Y-164955500D01*
X111231000Y-164987500D01*
X111246000Y-165020500D01*
X111260000Y-165054500D01*
X111272000Y-165088500D01*
X111282000Y-165122500D01*
X111291000Y-165157500D01*
X111299000Y-165193500D01*
X111304000Y-165229500D01*
X111308000Y-165265500D01*
X111311000Y-165301500D01*
X111312000Y-165337500D01*
X111311000Y-165373500D01*
X111308000Y-165409500D01*
X111304000Y-165445500D01*
X111299000Y-165481500D01*
X111291000Y-165517500D01*
X111282000Y-165552500D01*
X111272000Y-165586500D01*
X111260000Y-165620500D01*
X111246000Y-165654500D01*
X111231000Y-165687500D01*
X111214000Y-165719500D01*
X111196000Y-165750500D01*
X111177000Y-165781500D01*
X111156000Y-165811500D01*
X111138000Y-165834500D01*
X110926161Y-165622239D01*
X110939000Y-165601500D01*
X110949000Y-165583500D01*
X110958000Y-165565500D01*
X110967000Y-165547500D01*
X110975000Y-165529500D01*
X110982000Y-165510500D01*
X110988000Y-165491500D01*
X110994000Y-165472500D01*
X110999000Y-165452500D01*
X111003000Y-165432500D01*
X111006000Y-165413500D01*
X111009000Y-165393500D01*
X111010000Y-165373500D01*
X111011000Y-165353500D01*
X111012000Y-165333500D01*
X111011000Y-165312500D01*
X111010000Y-165292500D01*
X111008000Y-165272500D01*
X111005000Y-165252500D01*
X111001000Y-165233500D01*
X110997000Y-165213500D01*
X110991000Y-165194500D01*
X110985000Y-165175500D01*
X110979000Y-165156500D01*
X110971000Y-165137500D01*
X110963000Y-165119500D01*
X110954000Y-165100500D01*
X110945000Y-165083500D01*
X110934000Y-165066500D01*
X110926000Y-165052500D01*
X111138000Y-164840500D01*
X111156000Y-164863500D01*
G37*
X110926161Y-165622239D02*
X110926000Y-165622500D01*
X110926031Y-165622109D01*
X110926161Y-165622239D01*
G36*
X110926161Y-165622239D02*
G01*
X110926000Y-165622500D01*
X110926031Y-165622109D01*
X110926161Y-165622239D01*
G37*
X110997000Y-165975500D02*
X110974000Y-165993500D01*
X110944000Y-166014500D01*
X110913000Y-166033500D01*
X110882000Y-166051500D01*
X110850000Y-166068500D01*
X110817000Y-166083500D01*
X110783000Y-166097500D01*
X110749000Y-166109500D01*
X110715000Y-166119500D01*
X110680000Y-166128500D01*
X110644000Y-166136500D01*
X110608000Y-166141500D01*
X110572000Y-166145500D01*
X110536000Y-166148500D01*
X110500000Y-166149500D01*
X110464000Y-166148500D01*
X110428000Y-166145500D01*
X110392000Y-166141500D01*
X110356000Y-166136500D01*
X110320000Y-166128500D01*
X110285000Y-166119500D01*
X110251000Y-166109500D01*
X110217000Y-166097500D01*
X110183000Y-166083500D01*
X110150000Y-166068500D01*
X110118000Y-166051500D01*
X110087000Y-166033500D01*
X110056000Y-166014500D01*
X110026000Y-165993500D01*
X110003000Y-165975500D01*
X110215256Y-165763665D01*
X110229000Y-165772500D01*
X110246000Y-165782500D01*
X110264000Y-165792500D01*
X110283000Y-165801500D01*
X110301000Y-165809500D01*
X110320000Y-165816500D01*
X110340000Y-165823500D01*
X110359000Y-165829500D01*
X110379000Y-165834500D01*
X110399000Y-165839500D01*
X110419000Y-165842500D01*
X110439000Y-165845500D01*
X110459000Y-165847500D01*
X110480000Y-165848500D01*
X110500000Y-165849500D01*
X110520000Y-165848500D01*
X110541000Y-165847500D01*
X110561000Y-165845500D01*
X110581000Y-165842500D01*
X110601000Y-165839500D01*
X110621000Y-165834500D01*
X110641000Y-165829500D01*
X110660000Y-165823500D01*
X110680000Y-165816500D01*
X110699000Y-165809500D01*
X110717000Y-165801500D01*
X110736000Y-165792500D01*
X110754000Y-165782500D01*
X110771000Y-165772500D01*
X110785000Y-165763500D01*
X110997000Y-165975500D01*
G36*
X110997000Y-165975500D02*
G01*
X110974000Y-165993500D01*
X110944000Y-166014500D01*
X110913000Y-166033500D01*
X110882000Y-166051500D01*
X110850000Y-166068500D01*
X110817000Y-166083500D01*
X110783000Y-166097500D01*
X110749000Y-166109500D01*
X110715000Y-166119500D01*
X110680000Y-166128500D01*
X110644000Y-166136500D01*
X110608000Y-166141500D01*
X110572000Y-166145500D01*
X110536000Y-166148500D01*
X110500000Y-166149500D01*
X110464000Y-166148500D01*
X110428000Y-166145500D01*
X110392000Y-166141500D01*
X110356000Y-166136500D01*
X110320000Y-166128500D01*
X110285000Y-166119500D01*
X110251000Y-166109500D01*
X110217000Y-166097500D01*
X110183000Y-166083500D01*
X110150000Y-166068500D01*
X110118000Y-166051500D01*
X110087000Y-166033500D01*
X110056000Y-166014500D01*
X110026000Y-165993500D01*
X110003000Y-165975500D01*
X110215256Y-165763665D01*
X110229000Y-165772500D01*
X110246000Y-165782500D01*
X110264000Y-165792500D01*
X110283000Y-165801500D01*
X110301000Y-165809500D01*
X110320000Y-165816500D01*
X110340000Y-165823500D01*
X110359000Y-165829500D01*
X110379000Y-165834500D01*
X110399000Y-165839500D01*
X110419000Y-165842500D01*
X110439000Y-165845500D01*
X110459000Y-165847500D01*
X110480000Y-165848500D01*
X110500000Y-165849500D01*
X110520000Y-165848500D01*
X110541000Y-165847500D01*
X110561000Y-165845500D01*
X110581000Y-165842500D01*
X110601000Y-165839500D01*
X110621000Y-165834500D01*
X110641000Y-165829500D01*
X110660000Y-165823500D01*
X110680000Y-165816500D01*
X110699000Y-165809500D01*
X110717000Y-165801500D01*
X110736000Y-165792500D01*
X110754000Y-165782500D01*
X110771000Y-165772500D01*
X110785000Y-165763500D01*
X110997000Y-165975500D01*
G37*
X110215391Y-165763531D02*
X110215256Y-165763665D01*
X110215000Y-165763500D01*
X110215391Y-165763531D01*
G36*
X110215391Y-165763531D02*
G01*
X110215256Y-165763665D01*
X110215000Y-165763500D01*
X110215391Y-165763531D01*
G37*
%TD*%
D11*
%TO.C,R18*%
X132100000Y-123425000D03*
X132100000Y-125075000D03*
%TD*%
D12*
%TO.C,U1*%
X120200000Y-139600000D03*
X121600000Y-139600000D03*
X123000000Y-139600000D03*
X120200000Y-138200000D03*
X121600000Y-138200000D03*
X123000000Y-138200000D03*
X120200000Y-136800000D03*
X121600000Y-136800000D03*
X123000000Y-136800000D03*
D13*
X113880000Y-145450000D03*
X115150000Y-145450000D03*
X116420000Y-145450000D03*
X117690000Y-145450000D03*
X118960000Y-145450000D03*
X120230000Y-145450000D03*
X121500000Y-145450000D03*
X122770000Y-145450000D03*
X124040000Y-145450000D03*
X125310000Y-145450000D03*
X126580000Y-145450000D03*
X127850000Y-145450000D03*
X129120000Y-145450000D03*
X130390000Y-145450000D03*
D14*
X131640000Y-143685000D03*
X131640000Y-142415000D03*
X131640000Y-141145000D03*
X131640000Y-139875000D03*
X131640000Y-138605000D03*
X131640000Y-137335000D03*
X131640000Y-136065000D03*
X131640000Y-134795000D03*
X131640000Y-133525000D03*
X131640000Y-132255000D03*
X131640000Y-130985000D03*
X131640000Y-129715000D03*
D13*
X130390000Y-127950000D03*
X129120000Y-127950000D03*
X127850000Y-127950000D03*
X126580000Y-127950000D03*
X125310000Y-127950000D03*
X124040000Y-127950000D03*
X122770000Y-127950000D03*
X121500000Y-127950000D03*
X120230000Y-127950000D03*
X118960000Y-127950000D03*
X117690000Y-127950000D03*
X116420000Y-127950000D03*
X115150000Y-127950000D03*
X113880000Y-127950000D03*
%TD*%
D11*
%TO.C,R16*%
X121600000Y-153775000D03*
X121600000Y-152125000D03*
%TD*%
%TO.C,R15*%
X119600000Y-153775000D03*
X119600000Y-152125000D03*
%TD*%
%TO.C,R14*%
X117700000Y-153725000D03*
X117700000Y-152075000D03*
%TD*%
D15*
%TO.C,C12*%
X121600000Y-148825000D03*
X121600000Y-150375000D03*
%TD*%
%TO.C,C11*%
X119750000Y-148725000D03*
X119750000Y-150275000D03*
%TD*%
%TO.C,C10*%
X118150000Y-148725000D03*
X118150000Y-150275000D03*
%TD*%
D16*
%TO.C,R11*%
X126900000Y-152175000D03*
X126900000Y-153825000D03*
%TD*%
%TO.C,R10*%
X125300000Y-152175000D03*
X125300000Y-153825000D03*
%TD*%
%TO.C,R9*%
X123650000Y-153825000D03*
X123650000Y-152175000D03*
%TD*%
D17*
%TO.C,R8*%
X136375000Y-132350000D03*
X138025000Y-132350000D03*
%TD*%
%TO.C,R7*%
X136375000Y-133950000D03*
X138025000Y-133950000D03*
%TD*%
D11*
%TO.C,R3*%
X135050000Y-137850000D03*
X135050000Y-136200000D03*
%TD*%
D15*
%TO.C,C9*%
X126750000Y-148725000D03*
X126750000Y-150275000D03*
%TD*%
%TO.C,C8*%
X125200000Y-148725000D03*
X125200000Y-150275000D03*
%TD*%
%TO.C,C7*%
X123650000Y-148725000D03*
X123650000Y-150275000D03*
%TD*%
D11*
%TO.C,R17*%
X118100000Y-125225000D03*
X118100000Y-123575000D03*
%TD*%
D15*
%TO.C,C6*%
X116600000Y-147725000D03*
X116600000Y-149275000D03*
%TD*%
D18*
%TO.C,C24*%
X115025000Y-147550000D03*
X113475000Y-147550000D03*
%TD*%
D19*
%TO.C,C23*%
X114500000Y-155025000D03*
X114500000Y-157975000D03*
%TD*%
D11*
%TO.C,R13*%
X141161816Y-100525000D03*
X141161816Y-98875000D03*
%TD*%
%TO.C,R12*%
X142700000Y-103600000D03*
X142700000Y-101950000D03*
%TD*%
D15*
%TO.C,C18*%
X141200000Y-103550000D03*
X141200000Y-102000000D03*
%TD*%
D20*
%TO.C,MK2*%
X112574000Y-164500000D03*
X111752000Y-164500000D03*
X111752000Y-166175000D03*
X112574000Y-166175000D03*
%TD*%
D21*
%TO.C,C25*%
X113227000Y-168500000D03*
X110277000Y-168500000D03*
%TD*%
D22*
%TO.C,SW3*%
X121830000Y-123980000D03*
X121830000Y-116020000D03*
X126330000Y-123980000D03*
X126330000Y-116020000D03*
D23*
X128170000Y-120000000D03*
%TD*%
D22*
%TO.C,SW1*%
X110830000Y-123980000D03*
X110830000Y-116020000D03*
X115330000Y-123980000D03*
X115330000Y-116020000D03*
D23*
X117170000Y-120000000D03*
%TD*%
D24*
%TO.C,C5*%
X140025000Y-155300000D03*
X141575000Y-155300000D03*
%TD*%
%TO.C,C4*%
X139925000Y-135300000D03*
X141475000Y-135300000D03*
%TD*%
%TO.C,C3*%
X140325000Y-115500000D03*
X141875000Y-115500000D03*
%TD*%
D25*
%TO.C,C1*%
X144937500Y-156400000D03*
X146662500Y-156400000D03*
%TD*%
D26*
%TO.C,C2*%
X164500000Y-95275000D03*
X164500000Y-93725000D03*
%TD*%
M02*
