%TF.GenerationSoftware,KiCad,Pcbnew,10.0.0*%
%TF.CreationDate,2026-03-30T17:06:08+02:00*%
%TF.ProjectId,e003_rocker,65303033-5f72-46f6-936b-65722e6b6963,rev?*%
%TF.SameCoordinates,Original*%
%TF.FileFunction,Paste,Top*%
%TF.FilePolarity,Positive*%
%FSLAX46Y46*%
G04 Gerber Fmt 4.6, Leading zero omitted, Abs format (unit mm)*
G04 Created by KiCad (PCBNEW 10.0.0) date 2026-03-30 17:06:08*
%MOMM*%
%LPD*%
G01*
G04 APERTURE LIST*
G04 Aperture macros list*
%AMRoundRect*
0 Rectangle with rounded corners*
0 $1 Rounding radius*
0 $2 $3 $4 $5 $6 $7 $8 $9 X,Y pos of 4 corners*
0 Add a 4 corners polygon primitive as box body*
4,1,4,$2,$3,$4,$5,$6,$7,$8,$9,$2,$3,0*
0 Add four circle primitives for the rounded corners*
1,1,$1+$1,$2,$3*
1,1,$1+$1,$4,$5*
1,1,$1+$1,$6,$7*
1,1,$1+$1,$8,$9*
0 Add four rect primitives between the rounded corners*
20,1,$1+$1,$2,$3,$4,$5,0*
20,1,$1+$1,$4,$5,$6,$7,0*
20,1,$1+$1,$6,$7,$8,$9,0*
20,1,$1+$1,$8,$9,$2,$3,0*%
G04 Aperture macros list end*
%ADD10C,0.000000*%
%ADD11C,0.010000*%
%ADD12RoundRect,0.150000X0.425000X-0.150000X0.425000X0.150000X-0.425000X0.150000X-0.425000X-0.150000X0*%
%ADD13RoundRect,0.075000X0.500000X-0.075000X0.500000X0.075000X-0.500000X0.075000X-0.500000X-0.075000X0*%
%ADD14O,2.100000X1.000000*%
%ADD15O,1.800000X1.000000*%
%ADD16O,0.599999X0.240000*%
%ADD17O,0.240000X0.599999*%
%ADD18R,0.900000X1.500000*%
%ADD19R,1.500000X0.900000*%
%ADD20R,0.900000X0.900000*%
%ADD21RoundRect,0.250000X-0.475000X0.250000X-0.475000X-0.250000X0.475000X-0.250000X0.475000X0.250000X0*%
%ADD22RoundRect,0.250000X-0.300000X0.300000X-0.300000X-0.300000X0.300000X-0.300000X0.300000X0.300000X0*%
%ADD23RoundRect,0.218750X0.256250X-0.218750X0.256250X0.218750X-0.256250X0.218750X-0.256250X-0.218750X0*%
%ADD24R,0.500000X0.350000*%
%ADD25RoundRect,0.218750X0.218750X0.256250X-0.218750X0.256250X-0.218750X-0.256250X0.218750X-0.256250X0*%
%ADD26R,3.403600X1.549400*%
%ADD27RoundRect,0.135000X-0.185000X0.135000X-0.185000X-0.135000X0.185000X-0.135000X0.185000X0.135000X0*%
%ADD28RoundRect,0.140000X0.170000X-0.140000X0.170000X0.140000X-0.170000X0.140000X-0.170000X-0.140000X0*%
%ADD29RoundRect,0.250000X-0.325000X-0.650000X0.325000X-0.650000X0.325000X0.650000X-0.325000X0.650000X0*%
%ADD30RoundRect,0.135000X-0.135000X-0.185000X0.135000X-0.185000X0.135000X0.185000X-0.135000X0.185000X0*%
%ADD31RoundRect,0.150000X0.587500X0.150000X-0.587500X0.150000X-0.587500X-0.150000X0.587500X-0.150000X0*%
%ADD32R,0.600000X0.500000*%
%ADD33R,0.880000X1.000000*%
%ADD34R,0.355600X0.787400*%
%ADD35RoundRect,0.135000X0.185000X-0.135000X0.185000X0.135000X-0.185000X0.135000X-0.185000X-0.135000X0*%
%ADD36RoundRect,0.135000X0.135000X0.185000X-0.135000X0.185000X-0.135000X-0.185000X0.135000X-0.185000X0*%
%ADD37R,2.500000X6.500000*%
%ADD38RoundRect,0.225000X-0.225000X-0.250000X0.225000X-0.250000X0.225000X0.250000X-0.225000X0.250000X0*%
%ADD39RoundRect,0.140000X-0.170000X0.140000X-0.170000X-0.140000X0.170000X-0.140000X0.170000X0.140000X0*%
%ADD40RoundRect,0.225000X-0.250000X0.225000X-0.250000X-0.225000X0.250000X-0.225000X0.250000X0.225000X0*%
%ADD41RoundRect,0.250000X0.650000X-0.325000X0.650000X0.325000X-0.650000X0.325000X-0.650000X-0.325000X0*%
%ADD42RoundRect,0.140000X0.140000X0.170000X-0.140000X0.170000X-0.140000X-0.170000X0.140000X-0.170000X0*%
%ADD43RoundRect,0.250000X-0.300000X-0.300000X0.300000X-0.300000X0.300000X0.300000X-0.300000X0.300000X0*%
%ADD44RoundRect,0.225000X0.250000X-0.225000X0.250000X0.225000X-0.250000X0.225000X-0.250000X-0.225000X0*%
%ADD45RoundRect,0.250000X2.500000X-0.250000X2.500000X0.250000X-2.500000X0.250000X-2.500000X-0.250000X0*%
%ADD46RoundRect,0.250000X1.250000X-0.550000X1.250000X0.550000X-1.250000X0.550000X-1.250000X-0.550000X0*%
%ADD47RoundRect,0.250000X0.325000X0.650000X-0.325000X0.650000X-0.325000X-0.650000X0.325000X-0.650000X0*%
%ADD48R,1.803400X1.168400*%
%ADD49RoundRect,0.150000X0.150000X-0.587500X0.150000X0.587500X-0.150000X0.587500X-0.150000X-0.587500X0*%
%ADD50R,0.550000X1.300000*%
%ADD51R,0.800000X1.475000*%
%ADD52R,1.850000X3.125000*%
%ADD53R,1.460500X0.533400*%
%ADD54RoundRect,0.140000X-0.140000X-0.170000X0.140000X-0.170000X0.140000X0.170000X-0.140000X0.170000X0*%
%ADD55O,1.400000X0.449999*%
%ADD56R,0.725000X0.522000*%
%ADD57R,0.550000X1.200000*%
%ADD58R,1.525000X0.650000*%
%ADD59RoundRect,0.218750X-0.218750X-0.256250X0.218750X-0.256250X0.218750X0.256250X-0.218750X0.256250X0*%
%ADD60RoundRect,0.225000X0.225000X0.250000X-0.225000X0.250000X-0.225000X-0.250000X0.225000X-0.250000X0*%
%ADD61R,1.200000X1.200000*%
%ADD62R,1.600000X1.500000*%
%ADD63R,0.300000X1.300000*%
%ADD64R,2.300000X2.200000*%
%ADD65R,0.200000X0.800000*%
%ADD66R,0.800000X0.200000*%
%ADD67R,3.800000X2.800000*%
%ADD68RoundRect,0.150000X-0.587500X-0.150000X0.587500X-0.150000X0.587500X0.150000X-0.587500X0.150000X0*%
%ADD69R,1.300000X1.550000*%
%ADD70R,1.700000X1.300000*%
%ADD71RoundRect,0.250000X-0.250000X-0.475000X0.250000X-0.475000X0.250000X0.475000X-0.250000X0.475000X0*%
%ADD72RoundRect,0.250000X-0.650000X0.325000X-0.650000X-0.325000X0.650000X-0.325000X0.650000X0.325000X0*%
%ADD73RoundRect,0.167500X0.167500X0.312500X-0.167500X0.312500X-0.167500X-0.312500X0.167500X-0.312500X0*%
%ADD74RoundRect,0.062500X0.362500X0.062500X-0.362500X0.062500X-0.362500X-0.062500X0.362500X-0.062500X0*%
%ADD75R,0.522000X0.725000*%
%ADD76R,0.355600X1.409700*%
%ADD77RoundRect,0.250000X0.250000X0.475000X-0.250000X0.475000X-0.250000X-0.475000X0.250000X-0.475000X0*%
%ADD78R,1.300000X0.300000*%
%ADD79R,2.200000X2.300000*%
%ADD80RoundRect,0.218750X-0.256250X0.218750X-0.256250X-0.218750X0.256250X-0.218750X0.256250X0.218750X0*%
%ADD81R,4.900001X2.100000*%
G04 APERTURE END LIST*
D10*
%TO.C,U1*%
G36*
X248940000Y-151712000D02*
G01*
X248022999Y-151712000D01*
X248022999Y-150794999D01*
X248940000Y-150794999D01*
X248940000Y-151712000D01*
G37*
G36*
X248940000Y-152829001D02*
G01*
X248022999Y-152829001D01*
X248022999Y-151912000D01*
X248940000Y-151912000D01*
X248940000Y-152829001D01*
G37*
G36*
X250057001Y-151712000D02*
G01*
X249140000Y-151712000D01*
X249140000Y-150794999D01*
X250057001Y-150794999D01*
X250057001Y-151712000D01*
G37*
G36*
X250057001Y-152829001D02*
G01*
X249140000Y-152829001D01*
X249140000Y-151912000D01*
X250057001Y-151912000D01*
X250057001Y-152829001D01*
G37*
D11*
%TO.C,Q1*%
X233257500Y-162037500D02*
X232962500Y-162037500D01*
X232962500Y-161637500D01*
X233257500Y-161637500D01*
X233257500Y-162037500D01*
G36*
X233257500Y-162037500D02*
G01*
X232962500Y-162037500D01*
X232962500Y-161637500D01*
X233257500Y-161637500D01*
X233257500Y-162037500D01*
G37*
X233257500Y-162687500D02*
X232962500Y-162687500D01*
X232962500Y-162287500D01*
X233257500Y-162287500D01*
X233257500Y-162687500D01*
G36*
X233257500Y-162687500D02*
G01*
X232962500Y-162687500D01*
X232962500Y-162287500D01*
X233257500Y-162287500D01*
X233257500Y-162687500D01*
G37*
X233257500Y-163337500D02*
X232962500Y-163337500D01*
X232962500Y-162937500D01*
X233257500Y-162937500D01*
X233257500Y-163337500D01*
G36*
X233257500Y-163337500D02*
G01*
X232962500Y-163337500D01*
X232962500Y-162937500D01*
X233257500Y-162937500D01*
X233257500Y-163337500D01*
G37*
X233257500Y-163987500D02*
X232962500Y-163987500D01*
X232962500Y-163587500D01*
X233257500Y-163587500D01*
X233257500Y-163987500D01*
G36*
X233257500Y-163987500D02*
G01*
X232962500Y-163987500D01*
X232962500Y-163587500D01*
X233257500Y-163587500D01*
X233257500Y-163987500D01*
G37*
X234827500Y-161587500D02*
X234397500Y-161587500D01*
X234397500Y-161207500D01*
X234827500Y-161207500D01*
X234827500Y-161587500D01*
G36*
X234827500Y-161587500D02*
G01*
X234397500Y-161587500D01*
X234397500Y-161207500D01*
X234827500Y-161207500D01*
X234827500Y-161587500D01*
G37*
X234827500Y-164417500D02*
X234397500Y-164417500D01*
X234397500Y-164037500D01*
X234827500Y-164037500D01*
X234827500Y-164417500D01*
G36*
X234827500Y-164417500D02*
G01*
X234397500Y-164417500D01*
X234397500Y-164037500D01*
X234827500Y-164037500D01*
X234827500Y-164417500D01*
G37*
X234877500Y-163587500D02*
X233627500Y-163587500D01*
X233627500Y-162037500D01*
X234877500Y-162037500D01*
X234877500Y-163587500D01*
G36*
X234877500Y-163587500D02*
G01*
X233627500Y-163587500D01*
X233627500Y-162037500D01*
X234877500Y-162037500D01*
X234877500Y-163587500D01*
G37*
%TO.C,MK1*%
X244573838Y-167715260D02*
X244561000Y-167736000D01*
X244551000Y-167753000D01*
X244542000Y-167771000D01*
X244534000Y-167789000D01*
X244526000Y-167807000D01*
X244519000Y-167825000D01*
X244512000Y-167844000D01*
X244507000Y-167863000D01*
X244502000Y-167882000D01*
X244498000Y-167902000D01*
X244494000Y-167921000D01*
X244492000Y-167941000D01*
X244490000Y-167960000D01*
X244489000Y-167980000D01*
X244488000Y-168000000D01*
X244489000Y-168020000D01*
X244490000Y-168040000D01*
X244492000Y-168059000D01*
X244494000Y-168079000D01*
X244498000Y-168098000D01*
X244502000Y-168118000D01*
X244507000Y-168137000D01*
X244512000Y-168156000D01*
X244519000Y-168175000D01*
X244526000Y-168193000D01*
X244534000Y-168211000D01*
X244542000Y-168229000D01*
X244551000Y-168247000D01*
X244561000Y-168264000D01*
X244574000Y-168285000D01*
X244362000Y-168497000D01*
X244336000Y-168463000D01*
X244317000Y-168434000D01*
X244298000Y-168404000D01*
X244281000Y-168373000D01*
X244265000Y-168341000D01*
X244251000Y-168309000D01*
X244238000Y-168276000D01*
X244226000Y-168243000D01*
X244216000Y-168209000D01*
X244208000Y-168175000D01*
X244201000Y-168140000D01*
X244195000Y-168106000D01*
X244191000Y-168070000D01*
X244189000Y-168035000D01*
X244188000Y-168000000D01*
X244189000Y-167965000D01*
X244191000Y-167930000D01*
X244195000Y-167894000D01*
X244201000Y-167860000D01*
X244208000Y-167825000D01*
X244216000Y-167791000D01*
X244226000Y-167757000D01*
X244238000Y-167724000D01*
X244251000Y-167691000D01*
X244265000Y-167659000D01*
X244281000Y-167627000D01*
X244298000Y-167596000D01*
X244317000Y-167566000D01*
X244336000Y-167537000D01*
X244362000Y-167503000D01*
X244573838Y-167715260D01*
G36*
X244573838Y-167715260D02*
G01*
X244561000Y-167736000D01*
X244551000Y-167753000D01*
X244542000Y-167771000D01*
X244534000Y-167789000D01*
X244526000Y-167807000D01*
X244519000Y-167825000D01*
X244512000Y-167844000D01*
X244507000Y-167863000D01*
X244502000Y-167882000D01*
X244498000Y-167902000D01*
X244494000Y-167921000D01*
X244492000Y-167941000D01*
X244490000Y-167960000D01*
X244489000Y-167980000D01*
X244488000Y-168000000D01*
X244489000Y-168020000D01*
X244490000Y-168040000D01*
X244492000Y-168059000D01*
X244494000Y-168079000D01*
X244498000Y-168098000D01*
X244502000Y-168118000D01*
X244507000Y-168137000D01*
X244512000Y-168156000D01*
X244519000Y-168175000D01*
X244526000Y-168193000D01*
X244534000Y-168211000D01*
X244542000Y-168229000D01*
X244551000Y-168247000D01*
X244561000Y-168264000D01*
X244574000Y-168285000D01*
X244362000Y-168497000D01*
X244336000Y-168463000D01*
X244317000Y-168434000D01*
X244298000Y-168404000D01*
X244281000Y-168373000D01*
X244265000Y-168341000D01*
X244251000Y-168309000D01*
X244238000Y-168276000D01*
X244226000Y-168243000D01*
X244216000Y-168209000D01*
X244208000Y-168175000D01*
X244201000Y-168140000D01*
X244195000Y-168106000D01*
X244191000Y-168070000D01*
X244189000Y-168035000D01*
X244188000Y-168000000D01*
X244189000Y-167965000D01*
X244191000Y-167930000D01*
X244195000Y-167894000D01*
X244201000Y-167860000D01*
X244208000Y-167825000D01*
X244216000Y-167791000D01*
X244226000Y-167757000D01*
X244238000Y-167724000D01*
X244251000Y-167691000D01*
X244265000Y-167659000D01*
X244281000Y-167627000D01*
X244298000Y-167596000D01*
X244317000Y-167566000D01*
X244336000Y-167537000D01*
X244362000Y-167503000D01*
X244573838Y-167715260D01*
G37*
X244573969Y-167715391D02*
X244573838Y-167715260D01*
X244574000Y-167715000D01*
X244573969Y-167715391D01*
G36*
X244573969Y-167715391D02*
G01*
X244573838Y-167715260D01*
X244574000Y-167715000D01*
X244573969Y-167715391D01*
G37*
X245497000Y-168638000D02*
X245474000Y-168656000D01*
X245444000Y-168677000D01*
X245413000Y-168696000D01*
X245382000Y-168714000D01*
X245350000Y-168731000D01*
X245317000Y-168746000D01*
X245283000Y-168760000D01*
X245249000Y-168772000D01*
X245215000Y-168782000D01*
X245180000Y-168791000D01*
X245144000Y-168799000D01*
X245108000Y-168804000D01*
X245072000Y-168808000D01*
X245036000Y-168811000D01*
X245000000Y-168812000D01*
X244964000Y-168811000D01*
X244928000Y-168808000D01*
X244892000Y-168804000D01*
X244856000Y-168799000D01*
X244820000Y-168791000D01*
X244785000Y-168782000D01*
X244751000Y-168772000D01*
X244717000Y-168760000D01*
X244683000Y-168746000D01*
X244650000Y-168731000D01*
X244618000Y-168714000D01*
X244587000Y-168696000D01*
X244556000Y-168677000D01*
X244526000Y-168656000D01*
X244503000Y-168638000D01*
X244715268Y-168426153D01*
X244729000Y-168434000D01*
X244746000Y-168445000D01*
X244763000Y-168454000D01*
X244782000Y-168463000D01*
X244800000Y-168471000D01*
X244819000Y-168479000D01*
X244838000Y-168485000D01*
X244857000Y-168491000D01*
X244876000Y-168497000D01*
X244896000Y-168501000D01*
X244915000Y-168505000D01*
X244935000Y-168508000D01*
X244955000Y-168510000D01*
X244975000Y-168511000D01*
X244996000Y-168512000D01*
X245016000Y-168511000D01*
X245036000Y-168510000D01*
X245056000Y-168509000D01*
X245076000Y-168506000D01*
X245095000Y-168503000D01*
X245115000Y-168499000D01*
X245135000Y-168494000D01*
X245154000Y-168488000D01*
X245173000Y-168482000D01*
X245192000Y-168475000D01*
X245210000Y-168467000D01*
X245228000Y-168458000D01*
X245246000Y-168449000D01*
X245264000Y-168439000D01*
X245285000Y-168426000D01*
X245497000Y-168638000D01*
G36*
X245497000Y-168638000D02*
G01*
X245474000Y-168656000D01*
X245444000Y-168677000D01*
X245413000Y-168696000D01*
X245382000Y-168714000D01*
X245350000Y-168731000D01*
X245317000Y-168746000D01*
X245283000Y-168760000D01*
X245249000Y-168772000D01*
X245215000Y-168782000D01*
X245180000Y-168791000D01*
X245144000Y-168799000D01*
X245108000Y-168804000D01*
X245072000Y-168808000D01*
X245036000Y-168811000D01*
X245000000Y-168812000D01*
X244964000Y-168811000D01*
X244928000Y-168808000D01*
X244892000Y-168804000D01*
X244856000Y-168799000D01*
X244820000Y-168791000D01*
X244785000Y-168782000D01*
X244751000Y-168772000D01*
X244717000Y-168760000D01*
X244683000Y-168746000D01*
X244650000Y-168731000D01*
X244618000Y-168714000D01*
X244587000Y-168696000D01*
X244556000Y-168677000D01*
X244526000Y-168656000D01*
X244503000Y-168638000D01*
X244715268Y-168426153D01*
X244729000Y-168434000D01*
X244746000Y-168445000D01*
X244763000Y-168454000D01*
X244782000Y-168463000D01*
X244800000Y-168471000D01*
X244819000Y-168479000D01*
X244838000Y-168485000D01*
X244857000Y-168491000D01*
X244876000Y-168497000D01*
X244896000Y-168501000D01*
X244915000Y-168505000D01*
X244935000Y-168508000D01*
X244955000Y-168510000D01*
X244975000Y-168511000D01*
X244996000Y-168512000D01*
X245016000Y-168511000D01*
X245036000Y-168510000D01*
X245056000Y-168509000D01*
X245076000Y-168506000D01*
X245095000Y-168503000D01*
X245115000Y-168499000D01*
X245135000Y-168494000D01*
X245154000Y-168488000D01*
X245173000Y-168482000D01*
X245192000Y-168475000D01*
X245210000Y-168467000D01*
X245228000Y-168458000D01*
X245246000Y-168449000D01*
X245264000Y-168439000D01*
X245285000Y-168426000D01*
X245497000Y-168638000D01*
G37*
X244715391Y-168426031D02*
X244715268Y-168426153D01*
X244715000Y-168426000D01*
X244715391Y-168426031D01*
G36*
X244715391Y-168426031D02*
G01*
X244715268Y-168426153D01*
X244715000Y-168426000D01*
X244715391Y-168426031D01*
G37*
X245036000Y-167189000D02*
X245072000Y-167192000D01*
X245108000Y-167196000D01*
X245144000Y-167201000D01*
X245180000Y-167209000D01*
X245215000Y-167218000D01*
X245249000Y-167228000D01*
X245283000Y-167240000D01*
X245317000Y-167254000D01*
X245350000Y-167269000D01*
X245382000Y-167286000D01*
X245413000Y-167304000D01*
X245444000Y-167323000D01*
X245474000Y-167344000D01*
X245497000Y-167362000D01*
X245284739Y-167573838D01*
X245264000Y-167561000D01*
X245246000Y-167551000D01*
X245228000Y-167542000D01*
X245210000Y-167533000D01*
X245192000Y-167525000D01*
X245173000Y-167518000D01*
X245154000Y-167512000D01*
X245135000Y-167506000D01*
X245115000Y-167501000D01*
X245095000Y-167497000D01*
X245076000Y-167494000D01*
X245056000Y-167491000D01*
X245036000Y-167490000D01*
X245016000Y-167489000D01*
X244996000Y-167488000D01*
X244975000Y-167489000D01*
X244955000Y-167490000D01*
X244935000Y-167492000D01*
X244915000Y-167495000D01*
X244896000Y-167499000D01*
X244876000Y-167503000D01*
X244857000Y-167509000D01*
X244838000Y-167515000D01*
X244819000Y-167521000D01*
X244800000Y-167529000D01*
X244782000Y-167537000D01*
X244763000Y-167546000D01*
X244746000Y-167555000D01*
X244729000Y-167566000D01*
X244715000Y-167574000D01*
X244503000Y-167362000D01*
X244526000Y-167344000D01*
X244556000Y-167323000D01*
X244587000Y-167304000D01*
X244618000Y-167286000D01*
X244650000Y-167269000D01*
X244683000Y-167254000D01*
X244717000Y-167240000D01*
X244751000Y-167228000D01*
X244785000Y-167218000D01*
X244820000Y-167209000D01*
X244856000Y-167201000D01*
X244892000Y-167196000D01*
X244928000Y-167192000D01*
X244964000Y-167189000D01*
X245000000Y-167188000D01*
X245036000Y-167189000D01*
G36*
X245036000Y-167189000D02*
G01*
X245072000Y-167192000D01*
X245108000Y-167196000D01*
X245144000Y-167201000D01*
X245180000Y-167209000D01*
X245215000Y-167218000D01*
X245249000Y-167228000D01*
X245283000Y-167240000D01*
X245317000Y-167254000D01*
X245350000Y-167269000D01*
X245382000Y-167286000D01*
X245413000Y-167304000D01*
X245444000Y-167323000D01*
X245474000Y-167344000D01*
X245497000Y-167362000D01*
X245284739Y-167573838D01*
X245264000Y-167561000D01*
X245246000Y-167551000D01*
X245228000Y-167542000D01*
X245210000Y-167533000D01*
X245192000Y-167525000D01*
X245173000Y-167518000D01*
X245154000Y-167512000D01*
X245135000Y-167506000D01*
X245115000Y-167501000D01*
X245095000Y-167497000D01*
X245076000Y-167494000D01*
X245056000Y-167491000D01*
X245036000Y-167490000D01*
X245016000Y-167489000D01*
X244996000Y-167488000D01*
X244975000Y-167489000D01*
X244955000Y-167490000D01*
X244935000Y-167492000D01*
X244915000Y-167495000D01*
X244896000Y-167499000D01*
X244876000Y-167503000D01*
X244857000Y-167509000D01*
X244838000Y-167515000D01*
X244819000Y-167521000D01*
X244800000Y-167529000D01*
X244782000Y-167537000D01*
X244763000Y-167546000D01*
X244746000Y-167555000D01*
X244729000Y-167566000D01*
X244715000Y-167574000D01*
X244503000Y-167362000D01*
X244526000Y-167344000D01*
X244556000Y-167323000D01*
X244587000Y-167304000D01*
X244618000Y-167286000D01*
X244650000Y-167269000D01*
X244683000Y-167254000D01*
X244717000Y-167240000D01*
X244751000Y-167228000D01*
X244785000Y-167218000D01*
X244820000Y-167209000D01*
X244856000Y-167201000D01*
X244892000Y-167196000D01*
X244928000Y-167192000D01*
X244964000Y-167189000D01*
X245000000Y-167188000D01*
X245036000Y-167189000D01*
G37*
X245285000Y-167574000D02*
X245284609Y-167573969D01*
X245284739Y-167573838D01*
X245285000Y-167574000D01*
G36*
X245285000Y-167574000D02*
G01*
X245284609Y-167573969D01*
X245284739Y-167573838D01*
X245285000Y-167574000D01*
G37*
X245656000Y-167526000D02*
X245677000Y-167556000D01*
X245696000Y-167587000D01*
X245714000Y-167618000D01*
X245731000Y-167650000D01*
X245746000Y-167683000D01*
X245760000Y-167717000D01*
X245772000Y-167751000D01*
X245782000Y-167785000D01*
X245791000Y-167820000D01*
X245799000Y-167856000D01*
X245804000Y-167892000D01*
X245808000Y-167928000D01*
X245811000Y-167964000D01*
X245812000Y-168000000D01*
X245811000Y-168036000D01*
X245808000Y-168072000D01*
X245804000Y-168108000D01*
X245799000Y-168144000D01*
X245791000Y-168180000D01*
X245782000Y-168215000D01*
X245772000Y-168249000D01*
X245760000Y-168283000D01*
X245746000Y-168317000D01*
X245731000Y-168350000D01*
X245714000Y-168382000D01*
X245696000Y-168413000D01*
X245677000Y-168444000D01*
X245656000Y-168474000D01*
X245638000Y-168497000D01*
X245426165Y-168284743D01*
X245435000Y-168271000D01*
X245445000Y-168254000D01*
X245455000Y-168236000D01*
X245464000Y-168217000D01*
X245472000Y-168199000D01*
X245479000Y-168180000D01*
X245486000Y-168160000D01*
X245492000Y-168141000D01*
X245497000Y-168121000D01*
X245502000Y-168101000D01*
X245505000Y-168081000D01*
X245508000Y-168061000D01*
X245510000Y-168041000D01*
X245511000Y-168020000D01*
X245512000Y-168000000D01*
X245511000Y-167980000D01*
X245510000Y-167959000D01*
X245508000Y-167939000D01*
X245505000Y-167919000D01*
X245502000Y-167899000D01*
X245497000Y-167879000D01*
X245492000Y-167859000D01*
X245486000Y-167840000D01*
X245479000Y-167820000D01*
X245472000Y-167801000D01*
X245464000Y-167783000D01*
X245455000Y-167764000D01*
X245445000Y-167746000D01*
X245435000Y-167729000D01*
X245426000Y-167715000D01*
X245638000Y-167503000D01*
X245656000Y-167526000D01*
G36*
X245656000Y-167526000D02*
G01*
X245677000Y-167556000D01*
X245696000Y-167587000D01*
X245714000Y-167618000D01*
X245731000Y-167650000D01*
X245746000Y-167683000D01*
X245760000Y-167717000D01*
X245772000Y-167751000D01*
X245782000Y-167785000D01*
X245791000Y-167820000D01*
X245799000Y-167856000D01*
X245804000Y-167892000D01*
X245808000Y-167928000D01*
X245811000Y-167964000D01*
X245812000Y-168000000D01*
X245811000Y-168036000D01*
X245808000Y-168072000D01*
X245804000Y-168108000D01*
X245799000Y-168144000D01*
X245791000Y-168180000D01*
X245782000Y-168215000D01*
X245772000Y-168249000D01*
X245760000Y-168283000D01*
X245746000Y-168317000D01*
X245731000Y-168350000D01*
X245714000Y-168382000D01*
X245696000Y-168413000D01*
X245677000Y-168444000D01*
X245656000Y-168474000D01*
X245638000Y-168497000D01*
X245426165Y-168284743D01*
X245435000Y-168271000D01*
X245445000Y-168254000D01*
X245455000Y-168236000D01*
X245464000Y-168217000D01*
X245472000Y-168199000D01*
X245479000Y-168180000D01*
X245486000Y-168160000D01*
X245492000Y-168141000D01*
X245497000Y-168121000D01*
X245502000Y-168101000D01*
X245505000Y-168081000D01*
X245508000Y-168061000D01*
X245510000Y-168041000D01*
X245511000Y-168020000D01*
X245512000Y-168000000D01*
X245511000Y-167980000D01*
X245510000Y-167959000D01*
X245508000Y-167939000D01*
X245505000Y-167919000D01*
X245502000Y-167899000D01*
X245497000Y-167879000D01*
X245492000Y-167859000D01*
X245486000Y-167840000D01*
X245479000Y-167820000D01*
X245472000Y-167801000D01*
X245464000Y-167783000D01*
X245455000Y-167764000D01*
X245445000Y-167746000D01*
X245435000Y-167729000D01*
X245426000Y-167715000D01*
X245638000Y-167503000D01*
X245656000Y-167526000D01*
G37*
X245426165Y-168284743D02*
X245426000Y-168285000D01*
X245426031Y-168284609D01*
X245426165Y-168284743D01*
G36*
X245426165Y-168284743D02*
G01*
X245426000Y-168285000D01*
X245426031Y-168284609D01*
X245426165Y-168284743D01*
G37*
%TO.C,D1*%
X255025000Y-159042000D02*
X254505000Y-159042000D01*
X254505000Y-158282000D01*
X255025000Y-158282000D01*
X255025000Y-159042000D01*
G36*
X255025000Y-159042000D02*
G01*
X254505000Y-159042000D01*
X254505000Y-158282000D01*
X255025000Y-158282000D01*
X255025000Y-159042000D01*
G37*
X256275000Y-159042000D02*
X255755000Y-159042000D01*
X255755000Y-158282000D01*
X256275000Y-158282000D01*
X256275000Y-159042000D01*
G36*
X256275000Y-159042000D02*
G01*
X255755000Y-159042000D01*
X255755000Y-158282000D01*
X256275000Y-158282000D01*
X256275000Y-159042000D01*
G37*
%TO.C,Q5*%
X249845000Y-163000000D02*
X249550000Y-163000000D01*
X249550000Y-162600000D01*
X249845000Y-162600000D01*
X249845000Y-163000000D01*
G36*
X249845000Y-163000000D02*
G01*
X249550000Y-163000000D01*
X249550000Y-162600000D01*
X249845000Y-162600000D01*
X249845000Y-163000000D01*
G37*
X249845000Y-163650000D02*
X249550000Y-163650000D01*
X249550000Y-163250000D01*
X249845000Y-163250000D01*
X249845000Y-163650000D01*
G36*
X249845000Y-163650000D02*
G01*
X249550000Y-163650000D01*
X249550000Y-163250000D01*
X249845000Y-163250000D01*
X249845000Y-163650000D01*
G37*
X249845000Y-164300000D02*
X249550000Y-164300000D01*
X249550000Y-163900000D01*
X249845000Y-163900000D01*
X249845000Y-164300000D01*
G36*
X249845000Y-164300000D02*
G01*
X249550000Y-164300000D01*
X249550000Y-163900000D01*
X249845000Y-163900000D01*
X249845000Y-164300000D01*
G37*
X249845000Y-164950000D02*
X249550000Y-164950000D01*
X249550000Y-164550000D01*
X249845000Y-164550000D01*
X249845000Y-164950000D01*
G36*
X249845000Y-164950000D02*
G01*
X249550000Y-164950000D01*
X249550000Y-164550000D01*
X249845000Y-164550000D01*
X249845000Y-164950000D01*
G37*
X251415000Y-162550000D02*
X250985000Y-162550000D01*
X250985000Y-162170000D01*
X251415000Y-162170000D01*
X251415000Y-162550000D01*
G36*
X251415000Y-162550000D02*
G01*
X250985000Y-162550000D01*
X250985000Y-162170000D01*
X251415000Y-162170000D01*
X251415000Y-162550000D01*
G37*
X251415000Y-165380000D02*
X250985000Y-165380000D01*
X250985000Y-165000000D01*
X251415000Y-165000000D01*
X251415000Y-165380000D01*
G36*
X251415000Y-165380000D02*
G01*
X250985000Y-165380000D01*
X250985000Y-165000000D01*
X251415000Y-165000000D01*
X251415000Y-165380000D01*
G37*
X251465000Y-164550000D02*
X250215000Y-164550000D01*
X250215000Y-163000000D01*
X251465000Y-163000000D01*
X251465000Y-164550000D01*
G36*
X251465000Y-164550000D02*
G01*
X250215000Y-164550000D01*
X250215000Y-163000000D01*
X251465000Y-163000000D01*
X251465000Y-164550000D01*
G37*
%TO.C,MK3*%
X214499846Y-43877768D02*
X214492000Y-43891500D01*
X214481000Y-43908500D01*
X214472000Y-43925500D01*
X214463000Y-43944500D01*
X214455000Y-43962500D01*
X214447000Y-43981500D01*
X214441000Y-44000500D01*
X214435000Y-44019500D01*
X214429000Y-44038500D01*
X214425000Y-44058500D01*
X214421000Y-44077500D01*
X214418000Y-44097500D01*
X214416000Y-44117500D01*
X214415000Y-44137500D01*
X214414000Y-44158500D01*
X214415000Y-44178500D01*
X214416000Y-44198500D01*
X214417000Y-44218500D01*
X214420000Y-44238500D01*
X214423000Y-44257500D01*
X214427000Y-44277500D01*
X214432000Y-44297500D01*
X214438000Y-44316500D01*
X214444000Y-44335500D01*
X214451000Y-44354500D01*
X214459000Y-44372500D01*
X214468000Y-44390500D01*
X214477000Y-44408500D01*
X214487000Y-44426500D01*
X214500000Y-44447500D01*
X214288000Y-44659500D01*
X214270000Y-44636500D01*
X214249000Y-44606500D01*
X214230000Y-44575500D01*
X214212000Y-44544500D01*
X214195000Y-44512500D01*
X214180000Y-44479500D01*
X214166000Y-44445500D01*
X214154000Y-44411500D01*
X214144000Y-44377500D01*
X214135000Y-44342500D01*
X214127000Y-44306500D01*
X214122000Y-44270500D01*
X214118000Y-44234500D01*
X214115000Y-44198500D01*
X214114000Y-44162500D01*
X214115000Y-44126500D01*
X214118000Y-44090500D01*
X214122000Y-44054500D01*
X214127000Y-44018500D01*
X214135000Y-43982500D01*
X214144000Y-43947500D01*
X214154000Y-43913500D01*
X214166000Y-43879500D01*
X214180000Y-43845500D01*
X214195000Y-43812500D01*
X214212000Y-43780500D01*
X214230000Y-43749500D01*
X214249000Y-43718500D01*
X214270000Y-43688500D01*
X214288000Y-43665500D01*
X214499846Y-43877768D01*
G36*
X214499846Y-43877768D02*
G01*
X214492000Y-43891500D01*
X214481000Y-43908500D01*
X214472000Y-43925500D01*
X214463000Y-43944500D01*
X214455000Y-43962500D01*
X214447000Y-43981500D01*
X214441000Y-44000500D01*
X214435000Y-44019500D01*
X214429000Y-44038500D01*
X214425000Y-44058500D01*
X214421000Y-44077500D01*
X214418000Y-44097500D01*
X214416000Y-44117500D01*
X214415000Y-44137500D01*
X214414000Y-44158500D01*
X214415000Y-44178500D01*
X214416000Y-44198500D01*
X214417000Y-44218500D01*
X214420000Y-44238500D01*
X214423000Y-44257500D01*
X214427000Y-44277500D01*
X214432000Y-44297500D01*
X214438000Y-44316500D01*
X214444000Y-44335500D01*
X214451000Y-44354500D01*
X214459000Y-44372500D01*
X214468000Y-44390500D01*
X214477000Y-44408500D01*
X214487000Y-44426500D01*
X214500000Y-44447500D01*
X214288000Y-44659500D01*
X214270000Y-44636500D01*
X214249000Y-44606500D01*
X214230000Y-44575500D01*
X214212000Y-44544500D01*
X214195000Y-44512500D01*
X214180000Y-44479500D01*
X214166000Y-44445500D01*
X214154000Y-44411500D01*
X214144000Y-44377500D01*
X214135000Y-44342500D01*
X214127000Y-44306500D01*
X214122000Y-44270500D01*
X214118000Y-44234500D01*
X214115000Y-44198500D01*
X214114000Y-44162500D01*
X214115000Y-44126500D01*
X214118000Y-44090500D01*
X214122000Y-44054500D01*
X214127000Y-44018500D01*
X214135000Y-43982500D01*
X214144000Y-43947500D01*
X214154000Y-43913500D01*
X214166000Y-43879500D01*
X214180000Y-43845500D01*
X214195000Y-43812500D01*
X214212000Y-43780500D01*
X214230000Y-43749500D01*
X214249000Y-43718500D01*
X214270000Y-43688500D01*
X214288000Y-43665500D01*
X214499846Y-43877768D01*
G37*
X214499969Y-43877891D02*
X214499846Y-43877768D01*
X214500000Y-43877500D01*
X214499969Y-43877891D01*
G36*
X214499969Y-43877891D02*
G01*
X214499846Y-43877768D01*
X214500000Y-43877500D01*
X214499969Y-43877891D01*
G37*
X215423000Y-44800500D02*
X215400000Y-44818500D01*
X215370000Y-44839500D01*
X215339000Y-44858500D01*
X215308000Y-44876500D01*
X215276000Y-44893500D01*
X215243000Y-44908500D01*
X215209000Y-44922500D01*
X215175000Y-44934500D01*
X215141000Y-44944500D01*
X215106000Y-44953500D01*
X215070000Y-44961500D01*
X215034000Y-44966500D01*
X214998000Y-44970500D01*
X214962000Y-44973500D01*
X214926000Y-44974500D01*
X214890000Y-44973500D01*
X214854000Y-44970500D01*
X214818000Y-44966500D01*
X214782000Y-44961500D01*
X214746000Y-44953500D01*
X214711000Y-44944500D01*
X214677000Y-44934500D01*
X214643000Y-44922500D01*
X214609000Y-44908500D01*
X214576000Y-44893500D01*
X214544000Y-44876500D01*
X214513000Y-44858500D01*
X214482000Y-44839500D01*
X214452000Y-44818500D01*
X214429000Y-44800500D01*
X214641256Y-44588665D01*
X214655000Y-44597500D01*
X214672000Y-44607500D01*
X214690000Y-44617500D01*
X214709000Y-44626500D01*
X214727000Y-44634500D01*
X214746000Y-44641500D01*
X214766000Y-44648500D01*
X214785000Y-44654500D01*
X214805000Y-44659500D01*
X214825000Y-44664500D01*
X214845000Y-44667500D01*
X214865000Y-44670500D01*
X214885000Y-44672500D01*
X214906000Y-44673500D01*
X214926000Y-44674500D01*
X214946000Y-44673500D01*
X214967000Y-44672500D01*
X214987000Y-44670500D01*
X215007000Y-44667500D01*
X215027000Y-44664500D01*
X215047000Y-44659500D01*
X215067000Y-44654500D01*
X215086000Y-44648500D01*
X215106000Y-44641500D01*
X215125000Y-44634500D01*
X215143000Y-44626500D01*
X215162000Y-44617500D01*
X215180000Y-44607500D01*
X215197000Y-44597500D01*
X215211000Y-44588500D01*
X215423000Y-44800500D01*
G36*
X215423000Y-44800500D02*
G01*
X215400000Y-44818500D01*
X215370000Y-44839500D01*
X215339000Y-44858500D01*
X215308000Y-44876500D01*
X215276000Y-44893500D01*
X215243000Y-44908500D01*
X215209000Y-44922500D01*
X215175000Y-44934500D01*
X215141000Y-44944500D01*
X215106000Y-44953500D01*
X215070000Y-44961500D01*
X215034000Y-44966500D01*
X214998000Y-44970500D01*
X214962000Y-44973500D01*
X214926000Y-44974500D01*
X214890000Y-44973500D01*
X214854000Y-44970500D01*
X214818000Y-44966500D01*
X214782000Y-44961500D01*
X214746000Y-44953500D01*
X214711000Y-44944500D01*
X214677000Y-44934500D01*
X214643000Y-44922500D01*
X214609000Y-44908500D01*
X214576000Y-44893500D01*
X214544000Y-44876500D01*
X214513000Y-44858500D01*
X214482000Y-44839500D01*
X214452000Y-44818500D01*
X214429000Y-44800500D01*
X214641256Y-44588665D01*
X214655000Y-44597500D01*
X214672000Y-44607500D01*
X214690000Y-44617500D01*
X214709000Y-44626500D01*
X214727000Y-44634500D01*
X214746000Y-44641500D01*
X214766000Y-44648500D01*
X214785000Y-44654500D01*
X214805000Y-44659500D01*
X214825000Y-44664500D01*
X214845000Y-44667500D01*
X214865000Y-44670500D01*
X214885000Y-44672500D01*
X214906000Y-44673500D01*
X214926000Y-44674500D01*
X214946000Y-44673500D01*
X214967000Y-44672500D01*
X214987000Y-44670500D01*
X215007000Y-44667500D01*
X215027000Y-44664500D01*
X215047000Y-44659500D01*
X215067000Y-44654500D01*
X215086000Y-44648500D01*
X215106000Y-44641500D01*
X215125000Y-44634500D01*
X215143000Y-44626500D01*
X215162000Y-44617500D01*
X215180000Y-44607500D01*
X215197000Y-44597500D01*
X215211000Y-44588500D01*
X215423000Y-44800500D01*
G37*
X214641391Y-44588531D02*
X214641256Y-44588665D01*
X214641000Y-44588500D01*
X214641391Y-44588531D01*
G36*
X214641391Y-44588531D02*
G01*
X214641256Y-44588665D01*
X214641000Y-44588500D01*
X214641391Y-44588531D01*
G37*
X214961000Y-43351500D02*
X214996000Y-43353500D01*
X215032000Y-43357500D01*
X215066000Y-43363500D01*
X215101000Y-43370500D01*
X215135000Y-43378500D01*
X215169000Y-43388500D01*
X215202000Y-43400500D01*
X215235000Y-43413500D01*
X215267000Y-43427500D01*
X215299000Y-43443500D01*
X215330000Y-43460500D01*
X215360000Y-43479500D01*
X215389000Y-43498500D01*
X215423000Y-43524500D01*
X215210739Y-43736338D01*
X215190000Y-43723500D01*
X215173000Y-43713500D01*
X215155000Y-43704500D01*
X215137000Y-43696500D01*
X215119000Y-43688500D01*
X215101000Y-43681500D01*
X215082000Y-43674500D01*
X215063000Y-43669500D01*
X215044000Y-43664500D01*
X215024000Y-43660500D01*
X215005000Y-43656500D01*
X214985000Y-43654500D01*
X214966000Y-43652500D01*
X214946000Y-43651500D01*
X214926000Y-43650500D01*
X214906000Y-43651500D01*
X214886000Y-43652500D01*
X214867000Y-43654500D01*
X214847000Y-43656500D01*
X214828000Y-43660500D01*
X214808000Y-43664500D01*
X214789000Y-43669500D01*
X214770000Y-43674500D01*
X214751000Y-43681500D01*
X214733000Y-43688500D01*
X214715000Y-43696500D01*
X214697000Y-43704500D01*
X214679000Y-43713500D01*
X214662000Y-43723500D01*
X214641000Y-43736500D01*
X214429000Y-43524500D01*
X214463000Y-43498500D01*
X214492000Y-43479500D01*
X214522000Y-43460500D01*
X214553000Y-43443500D01*
X214585000Y-43427500D01*
X214617000Y-43413500D01*
X214650000Y-43400500D01*
X214683000Y-43388500D01*
X214717000Y-43378500D01*
X214751000Y-43370500D01*
X214786000Y-43363500D01*
X214820000Y-43357500D01*
X214856000Y-43353500D01*
X214891000Y-43351500D01*
X214926000Y-43350500D01*
X214961000Y-43351500D01*
G36*
X214961000Y-43351500D02*
G01*
X214996000Y-43353500D01*
X215032000Y-43357500D01*
X215066000Y-43363500D01*
X215101000Y-43370500D01*
X215135000Y-43378500D01*
X215169000Y-43388500D01*
X215202000Y-43400500D01*
X215235000Y-43413500D01*
X215267000Y-43427500D01*
X215299000Y-43443500D01*
X215330000Y-43460500D01*
X215360000Y-43479500D01*
X215389000Y-43498500D01*
X215423000Y-43524500D01*
X215210739Y-43736338D01*
X215190000Y-43723500D01*
X215173000Y-43713500D01*
X215155000Y-43704500D01*
X215137000Y-43696500D01*
X215119000Y-43688500D01*
X215101000Y-43681500D01*
X215082000Y-43674500D01*
X215063000Y-43669500D01*
X215044000Y-43664500D01*
X215024000Y-43660500D01*
X215005000Y-43656500D01*
X214985000Y-43654500D01*
X214966000Y-43652500D01*
X214946000Y-43651500D01*
X214926000Y-43650500D01*
X214906000Y-43651500D01*
X214886000Y-43652500D01*
X214867000Y-43654500D01*
X214847000Y-43656500D01*
X214828000Y-43660500D01*
X214808000Y-43664500D01*
X214789000Y-43669500D01*
X214770000Y-43674500D01*
X214751000Y-43681500D01*
X214733000Y-43688500D01*
X214715000Y-43696500D01*
X214697000Y-43704500D01*
X214679000Y-43713500D01*
X214662000Y-43723500D01*
X214641000Y-43736500D01*
X214429000Y-43524500D01*
X214463000Y-43498500D01*
X214492000Y-43479500D01*
X214522000Y-43460500D01*
X214553000Y-43443500D01*
X214585000Y-43427500D01*
X214617000Y-43413500D01*
X214650000Y-43400500D01*
X214683000Y-43388500D01*
X214717000Y-43378500D01*
X214751000Y-43370500D01*
X214786000Y-43363500D01*
X214820000Y-43357500D01*
X214856000Y-43353500D01*
X214891000Y-43351500D01*
X214926000Y-43350500D01*
X214961000Y-43351500D01*
G37*
X215211000Y-43736500D02*
X215210609Y-43736469D01*
X215210739Y-43736338D01*
X215211000Y-43736500D01*
G36*
X215211000Y-43736500D02*
G01*
X215210609Y-43736469D01*
X215210739Y-43736338D01*
X215211000Y-43736500D01*
G37*
X215582000Y-43688500D02*
X215603000Y-43718500D01*
X215622000Y-43749500D01*
X215640000Y-43780500D01*
X215657000Y-43812500D01*
X215672000Y-43845500D01*
X215686000Y-43879500D01*
X215698000Y-43913500D01*
X215708000Y-43947500D01*
X215717000Y-43982500D01*
X215725000Y-44018500D01*
X215730000Y-44054500D01*
X215734000Y-44090500D01*
X215737000Y-44126500D01*
X215738000Y-44162500D01*
X215737000Y-44198500D01*
X215734000Y-44234500D01*
X215730000Y-44270500D01*
X215725000Y-44306500D01*
X215717000Y-44342500D01*
X215708000Y-44377500D01*
X215698000Y-44411500D01*
X215686000Y-44445500D01*
X215672000Y-44479500D01*
X215657000Y-44512500D01*
X215640000Y-44544500D01*
X215622000Y-44575500D01*
X215603000Y-44606500D01*
X215582000Y-44636500D01*
X215564000Y-44659500D01*
X215352161Y-44447239D01*
X215365000Y-44426500D01*
X215375000Y-44408500D01*
X215384000Y-44390500D01*
X215393000Y-44372500D01*
X215401000Y-44354500D01*
X215408000Y-44335500D01*
X215414000Y-44316500D01*
X215420000Y-44297500D01*
X215425000Y-44277500D01*
X215429000Y-44257500D01*
X215432000Y-44238500D01*
X215435000Y-44218500D01*
X215436000Y-44198500D01*
X215437000Y-44178500D01*
X215438000Y-44158500D01*
X215437000Y-44137500D01*
X215436000Y-44117500D01*
X215434000Y-44097500D01*
X215431000Y-44077500D01*
X215427000Y-44058500D01*
X215423000Y-44038500D01*
X215417000Y-44019500D01*
X215411000Y-44000500D01*
X215405000Y-43981500D01*
X215397000Y-43962500D01*
X215389000Y-43944500D01*
X215380000Y-43925500D01*
X215371000Y-43908500D01*
X215360000Y-43891500D01*
X215352000Y-43877500D01*
X215564000Y-43665500D01*
X215582000Y-43688500D01*
G36*
X215582000Y-43688500D02*
G01*
X215603000Y-43718500D01*
X215622000Y-43749500D01*
X215640000Y-43780500D01*
X215657000Y-43812500D01*
X215672000Y-43845500D01*
X215686000Y-43879500D01*
X215698000Y-43913500D01*
X215708000Y-43947500D01*
X215717000Y-43982500D01*
X215725000Y-44018500D01*
X215730000Y-44054500D01*
X215734000Y-44090500D01*
X215737000Y-44126500D01*
X215738000Y-44162500D01*
X215737000Y-44198500D01*
X215734000Y-44234500D01*
X215730000Y-44270500D01*
X215725000Y-44306500D01*
X215717000Y-44342500D01*
X215708000Y-44377500D01*
X215698000Y-44411500D01*
X215686000Y-44445500D01*
X215672000Y-44479500D01*
X215657000Y-44512500D01*
X215640000Y-44544500D01*
X215622000Y-44575500D01*
X215603000Y-44606500D01*
X215582000Y-44636500D01*
X215564000Y-44659500D01*
X215352161Y-44447239D01*
X215365000Y-44426500D01*
X215375000Y-44408500D01*
X215384000Y-44390500D01*
X215393000Y-44372500D01*
X215401000Y-44354500D01*
X215408000Y-44335500D01*
X215414000Y-44316500D01*
X215420000Y-44297500D01*
X215425000Y-44277500D01*
X215429000Y-44257500D01*
X215432000Y-44238500D01*
X215435000Y-44218500D01*
X215436000Y-44198500D01*
X215437000Y-44178500D01*
X215438000Y-44158500D01*
X215437000Y-44137500D01*
X215436000Y-44117500D01*
X215434000Y-44097500D01*
X215431000Y-44077500D01*
X215427000Y-44058500D01*
X215423000Y-44038500D01*
X215417000Y-44019500D01*
X215411000Y-44000500D01*
X215405000Y-43981500D01*
X215397000Y-43962500D01*
X215389000Y-43944500D01*
X215380000Y-43925500D01*
X215371000Y-43908500D01*
X215360000Y-43891500D01*
X215352000Y-43877500D01*
X215564000Y-43665500D01*
X215582000Y-43688500D01*
G37*
X215352161Y-44447239D02*
X215352000Y-44447500D01*
X215352031Y-44447109D01*
X215352161Y-44447239D01*
G36*
X215352161Y-44447239D02*
G01*
X215352000Y-44447500D01*
X215352031Y-44447109D01*
X215352161Y-44447239D01*
G37*
%TO.C,MK2*%
X244573834Y-55515256D02*
X244565000Y-55529000D01*
X244555000Y-55546000D01*
X244545000Y-55564000D01*
X244536000Y-55583000D01*
X244528000Y-55601000D01*
X244521000Y-55620000D01*
X244514000Y-55640000D01*
X244508000Y-55659000D01*
X244503000Y-55679000D01*
X244498000Y-55699000D01*
X244495000Y-55719000D01*
X244492000Y-55739000D01*
X244490000Y-55759000D01*
X244489000Y-55780000D01*
X244488000Y-55800000D01*
X244489000Y-55820000D01*
X244490000Y-55841000D01*
X244492000Y-55861000D01*
X244495000Y-55881000D01*
X244498000Y-55901000D01*
X244503000Y-55921000D01*
X244508000Y-55941000D01*
X244514000Y-55960000D01*
X244521000Y-55980000D01*
X244528000Y-55999000D01*
X244536000Y-56017000D01*
X244545000Y-56036000D01*
X244555000Y-56054000D01*
X244565000Y-56071000D01*
X244574000Y-56085000D01*
X244362000Y-56297000D01*
X244344000Y-56274000D01*
X244323000Y-56244000D01*
X244304000Y-56213000D01*
X244286000Y-56182000D01*
X244269000Y-56150000D01*
X244254000Y-56117000D01*
X244240000Y-56083000D01*
X244228000Y-56049000D01*
X244218000Y-56015000D01*
X244209000Y-55980000D01*
X244201000Y-55944000D01*
X244196000Y-55908000D01*
X244192000Y-55872000D01*
X244189000Y-55836000D01*
X244188000Y-55800000D01*
X244189000Y-55764000D01*
X244192000Y-55728000D01*
X244196000Y-55692000D01*
X244201000Y-55656000D01*
X244209000Y-55620000D01*
X244218000Y-55585000D01*
X244228000Y-55551000D01*
X244240000Y-55517000D01*
X244254000Y-55483000D01*
X244269000Y-55450000D01*
X244286000Y-55418000D01*
X244304000Y-55387000D01*
X244323000Y-55356000D01*
X244344000Y-55326000D01*
X244362000Y-55303000D01*
X244573834Y-55515256D01*
G36*
X244573834Y-55515256D02*
G01*
X244565000Y-55529000D01*
X244555000Y-55546000D01*
X244545000Y-55564000D01*
X244536000Y-55583000D01*
X244528000Y-55601000D01*
X244521000Y-55620000D01*
X244514000Y-55640000D01*
X244508000Y-55659000D01*
X244503000Y-55679000D01*
X244498000Y-55699000D01*
X244495000Y-55719000D01*
X244492000Y-55739000D01*
X244490000Y-55759000D01*
X244489000Y-55780000D01*
X244488000Y-55800000D01*
X244489000Y-55820000D01*
X244490000Y-55841000D01*
X244492000Y-55861000D01*
X244495000Y-55881000D01*
X244498000Y-55901000D01*
X244503000Y-55921000D01*
X244508000Y-55941000D01*
X244514000Y-55960000D01*
X244521000Y-55980000D01*
X244528000Y-55999000D01*
X244536000Y-56017000D01*
X244545000Y-56036000D01*
X244555000Y-56054000D01*
X244565000Y-56071000D01*
X244574000Y-56085000D01*
X244362000Y-56297000D01*
X244344000Y-56274000D01*
X244323000Y-56244000D01*
X244304000Y-56213000D01*
X244286000Y-56182000D01*
X244269000Y-56150000D01*
X244254000Y-56117000D01*
X244240000Y-56083000D01*
X244228000Y-56049000D01*
X244218000Y-56015000D01*
X244209000Y-55980000D01*
X244201000Y-55944000D01*
X244196000Y-55908000D01*
X244192000Y-55872000D01*
X244189000Y-55836000D01*
X244188000Y-55800000D01*
X244189000Y-55764000D01*
X244192000Y-55728000D01*
X244196000Y-55692000D01*
X244201000Y-55656000D01*
X244209000Y-55620000D01*
X244218000Y-55585000D01*
X244228000Y-55551000D01*
X244240000Y-55517000D01*
X244254000Y-55483000D01*
X244269000Y-55450000D01*
X244286000Y-55418000D01*
X244304000Y-55387000D01*
X244323000Y-55356000D01*
X244344000Y-55326000D01*
X244362000Y-55303000D01*
X244573834Y-55515256D01*
G37*
X244573969Y-55515391D02*
X244573834Y-55515256D01*
X244574000Y-55515000D01*
X244573969Y-55515391D01*
G36*
X244573969Y-55515391D02*
G01*
X244573834Y-55515256D01*
X244574000Y-55515000D01*
X244573969Y-55515391D01*
G37*
X245497000Y-56438000D02*
X245474000Y-56456000D01*
X245444000Y-56477000D01*
X245413000Y-56496000D01*
X245382000Y-56514000D01*
X245350000Y-56531000D01*
X245317000Y-56546000D01*
X245283000Y-56560000D01*
X245249000Y-56572000D01*
X245215000Y-56582000D01*
X245180000Y-56591000D01*
X245144000Y-56599000D01*
X245108000Y-56604000D01*
X245072000Y-56608000D01*
X245036000Y-56611000D01*
X245000000Y-56612000D01*
X244964000Y-56611000D01*
X244928000Y-56608000D01*
X244892000Y-56604000D01*
X244856000Y-56599000D01*
X244820000Y-56591000D01*
X244785000Y-56582000D01*
X244751000Y-56572000D01*
X244717000Y-56560000D01*
X244683000Y-56546000D01*
X244650000Y-56531000D01*
X244618000Y-56514000D01*
X244587000Y-56496000D01*
X244556000Y-56477000D01*
X244526000Y-56456000D01*
X244503000Y-56438000D01*
X244715260Y-56226161D01*
X244736000Y-56239000D01*
X244754000Y-56249000D01*
X244772000Y-56258000D01*
X244790000Y-56267000D01*
X244808000Y-56275000D01*
X244827000Y-56282000D01*
X244846000Y-56288000D01*
X244865000Y-56294000D01*
X244885000Y-56299000D01*
X244905000Y-56303000D01*
X244924000Y-56306000D01*
X244944000Y-56309000D01*
X244964000Y-56310000D01*
X244984000Y-56311000D01*
X245004000Y-56312000D01*
X245025000Y-56311000D01*
X245045000Y-56310000D01*
X245065000Y-56308000D01*
X245085000Y-56305000D01*
X245104000Y-56301000D01*
X245124000Y-56297000D01*
X245143000Y-56291000D01*
X245162000Y-56285000D01*
X245181000Y-56279000D01*
X245200000Y-56271000D01*
X245218000Y-56263000D01*
X245237000Y-56254000D01*
X245254000Y-56245000D01*
X245271000Y-56234000D01*
X245285000Y-56226000D01*
X245497000Y-56438000D01*
G36*
X245497000Y-56438000D02*
G01*
X245474000Y-56456000D01*
X245444000Y-56477000D01*
X245413000Y-56496000D01*
X245382000Y-56514000D01*
X245350000Y-56531000D01*
X245317000Y-56546000D01*
X245283000Y-56560000D01*
X245249000Y-56572000D01*
X245215000Y-56582000D01*
X245180000Y-56591000D01*
X245144000Y-56599000D01*
X245108000Y-56604000D01*
X245072000Y-56608000D01*
X245036000Y-56611000D01*
X245000000Y-56612000D01*
X244964000Y-56611000D01*
X244928000Y-56608000D01*
X244892000Y-56604000D01*
X244856000Y-56599000D01*
X244820000Y-56591000D01*
X244785000Y-56582000D01*
X244751000Y-56572000D01*
X244717000Y-56560000D01*
X244683000Y-56546000D01*
X244650000Y-56531000D01*
X244618000Y-56514000D01*
X244587000Y-56496000D01*
X244556000Y-56477000D01*
X244526000Y-56456000D01*
X244503000Y-56438000D01*
X244715260Y-56226161D01*
X244736000Y-56239000D01*
X244754000Y-56249000D01*
X244772000Y-56258000D01*
X244790000Y-56267000D01*
X244808000Y-56275000D01*
X244827000Y-56282000D01*
X244846000Y-56288000D01*
X244865000Y-56294000D01*
X244885000Y-56299000D01*
X244905000Y-56303000D01*
X244924000Y-56306000D01*
X244944000Y-56309000D01*
X244964000Y-56310000D01*
X244984000Y-56311000D01*
X245004000Y-56312000D01*
X245025000Y-56311000D01*
X245045000Y-56310000D01*
X245065000Y-56308000D01*
X245085000Y-56305000D01*
X245104000Y-56301000D01*
X245124000Y-56297000D01*
X245143000Y-56291000D01*
X245162000Y-56285000D01*
X245181000Y-56279000D01*
X245200000Y-56271000D01*
X245218000Y-56263000D01*
X245237000Y-56254000D01*
X245254000Y-56245000D01*
X245271000Y-56234000D01*
X245285000Y-56226000D01*
X245497000Y-56438000D01*
G37*
X244715391Y-56226031D02*
X244715260Y-56226161D01*
X244715000Y-56226000D01*
X244715391Y-56226031D01*
G36*
X244715391Y-56226031D02*
G01*
X244715260Y-56226161D01*
X244715000Y-56226000D01*
X244715391Y-56226031D01*
G37*
X245036000Y-54989000D02*
X245072000Y-54992000D01*
X245108000Y-54996000D01*
X245144000Y-55001000D01*
X245180000Y-55009000D01*
X245215000Y-55018000D01*
X245249000Y-55028000D01*
X245283000Y-55040000D01*
X245317000Y-55054000D01*
X245350000Y-55069000D01*
X245382000Y-55086000D01*
X245413000Y-55104000D01*
X245444000Y-55123000D01*
X245474000Y-55144000D01*
X245497000Y-55162000D01*
X245284731Y-55373846D01*
X245271000Y-55366000D01*
X245254000Y-55355000D01*
X245237000Y-55346000D01*
X245218000Y-55337000D01*
X245200000Y-55329000D01*
X245181000Y-55321000D01*
X245162000Y-55315000D01*
X245143000Y-55309000D01*
X245124000Y-55303000D01*
X245104000Y-55299000D01*
X245085000Y-55295000D01*
X245065000Y-55292000D01*
X245045000Y-55290000D01*
X245025000Y-55289000D01*
X245004000Y-55288000D01*
X244984000Y-55289000D01*
X244964000Y-55290000D01*
X244944000Y-55291000D01*
X244924000Y-55294000D01*
X244905000Y-55297000D01*
X244885000Y-55301000D01*
X244865000Y-55306000D01*
X244846000Y-55312000D01*
X244827000Y-55318000D01*
X244808000Y-55325000D01*
X244790000Y-55333000D01*
X244772000Y-55342000D01*
X244754000Y-55351000D01*
X244736000Y-55361000D01*
X244715000Y-55374000D01*
X244503000Y-55162000D01*
X244526000Y-55144000D01*
X244556000Y-55123000D01*
X244587000Y-55104000D01*
X244618000Y-55086000D01*
X244650000Y-55069000D01*
X244683000Y-55054000D01*
X244717000Y-55040000D01*
X244751000Y-55028000D01*
X244785000Y-55018000D01*
X244820000Y-55009000D01*
X244856000Y-55001000D01*
X244892000Y-54996000D01*
X244928000Y-54992000D01*
X244964000Y-54989000D01*
X245000000Y-54988000D01*
X245036000Y-54989000D01*
G36*
X245036000Y-54989000D02*
G01*
X245072000Y-54992000D01*
X245108000Y-54996000D01*
X245144000Y-55001000D01*
X245180000Y-55009000D01*
X245215000Y-55018000D01*
X245249000Y-55028000D01*
X245283000Y-55040000D01*
X245317000Y-55054000D01*
X245350000Y-55069000D01*
X245382000Y-55086000D01*
X245413000Y-55104000D01*
X245444000Y-55123000D01*
X245474000Y-55144000D01*
X245497000Y-55162000D01*
X245284731Y-55373846D01*
X245271000Y-55366000D01*
X245254000Y-55355000D01*
X245237000Y-55346000D01*
X245218000Y-55337000D01*
X245200000Y-55329000D01*
X245181000Y-55321000D01*
X245162000Y-55315000D01*
X245143000Y-55309000D01*
X245124000Y-55303000D01*
X245104000Y-55299000D01*
X245085000Y-55295000D01*
X245065000Y-55292000D01*
X245045000Y-55290000D01*
X245025000Y-55289000D01*
X245004000Y-55288000D01*
X244984000Y-55289000D01*
X244964000Y-55290000D01*
X244944000Y-55291000D01*
X244924000Y-55294000D01*
X244905000Y-55297000D01*
X244885000Y-55301000D01*
X244865000Y-55306000D01*
X244846000Y-55312000D01*
X244827000Y-55318000D01*
X244808000Y-55325000D01*
X244790000Y-55333000D01*
X244772000Y-55342000D01*
X244754000Y-55351000D01*
X244736000Y-55361000D01*
X244715000Y-55374000D01*
X244503000Y-55162000D01*
X244526000Y-55144000D01*
X244556000Y-55123000D01*
X244587000Y-55104000D01*
X244618000Y-55086000D01*
X244650000Y-55069000D01*
X244683000Y-55054000D01*
X244717000Y-55040000D01*
X244751000Y-55028000D01*
X244785000Y-55018000D01*
X244820000Y-55009000D01*
X244856000Y-55001000D01*
X244892000Y-54996000D01*
X244928000Y-54992000D01*
X244964000Y-54989000D01*
X245000000Y-54988000D01*
X245036000Y-54989000D01*
G37*
X245285000Y-55374000D02*
X245284609Y-55373969D01*
X245284731Y-55373846D01*
X245285000Y-55374000D01*
G36*
X245285000Y-55374000D02*
G01*
X245284609Y-55373969D01*
X245284731Y-55373846D01*
X245285000Y-55374000D01*
G37*
X245664000Y-55337000D02*
X245683000Y-55366000D01*
X245702000Y-55396000D01*
X245719000Y-55427000D01*
X245735000Y-55459000D01*
X245749000Y-55491000D01*
X245762000Y-55524000D01*
X245774000Y-55557000D01*
X245784000Y-55591000D01*
X245792000Y-55625000D01*
X245799000Y-55660000D01*
X245805000Y-55694000D01*
X245809000Y-55730000D01*
X245811000Y-55765000D01*
X245812000Y-55800000D01*
X245811000Y-55835000D01*
X245809000Y-55870000D01*
X245805000Y-55906000D01*
X245799000Y-55940000D01*
X245792000Y-55975000D01*
X245784000Y-56009000D01*
X245774000Y-56043000D01*
X245762000Y-56076000D01*
X245749000Y-56109000D01*
X245735000Y-56141000D01*
X245719000Y-56173000D01*
X245702000Y-56204000D01*
X245683000Y-56234000D01*
X245664000Y-56263000D01*
X245638000Y-56297000D01*
X245426161Y-56084739D01*
X245439000Y-56064000D01*
X245449000Y-56047000D01*
X245458000Y-56029000D01*
X245466000Y-56011000D01*
X245474000Y-55993000D01*
X245481000Y-55975000D01*
X245488000Y-55956000D01*
X245493000Y-55937000D01*
X245498000Y-55918000D01*
X245502000Y-55898000D01*
X245506000Y-55879000D01*
X245508000Y-55859000D01*
X245510000Y-55840000D01*
X245511000Y-55820000D01*
X245512000Y-55800000D01*
X245511000Y-55780000D01*
X245510000Y-55760000D01*
X245508000Y-55741000D01*
X245506000Y-55721000D01*
X245502000Y-55702000D01*
X245498000Y-55682000D01*
X245493000Y-55663000D01*
X245488000Y-55644000D01*
X245481000Y-55625000D01*
X245474000Y-55607000D01*
X245466000Y-55589000D01*
X245458000Y-55571000D01*
X245449000Y-55553000D01*
X245439000Y-55536000D01*
X245426000Y-55515000D01*
X245638000Y-55303000D01*
X245664000Y-55337000D01*
G36*
X245664000Y-55337000D02*
G01*
X245683000Y-55366000D01*
X245702000Y-55396000D01*
X245719000Y-55427000D01*
X245735000Y-55459000D01*
X245749000Y-55491000D01*
X245762000Y-55524000D01*
X245774000Y-55557000D01*
X245784000Y-55591000D01*
X245792000Y-55625000D01*
X245799000Y-55660000D01*
X245805000Y-55694000D01*
X245809000Y-55730000D01*
X245811000Y-55765000D01*
X245812000Y-55800000D01*
X245811000Y-55835000D01*
X245809000Y-55870000D01*
X245805000Y-55906000D01*
X245799000Y-55940000D01*
X245792000Y-55975000D01*
X245784000Y-56009000D01*
X245774000Y-56043000D01*
X245762000Y-56076000D01*
X245749000Y-56109000D01*
X245735000Y-56141000D01*
X245719000Y-56173000D01*
X245702000Y-56204000D01*
X245683000Y-56234000D01*
X245664000Y-56263000D01*
X245638000Y-56297000D01*
X245426161Y-56084739D01*
X245439000Y-56064000D01*
X245449000Y-56047000D01*
X245458000Y-56029000D01*
X245466000Y-56011000D01*
X245474000Y-55993000D01*
X245481000Y-55975000D01*
X245488000Y-55956000D01*
X245493000Y-55937000D01*
X245498000Y-55918000D01*
X245502000Y-55898000D01*
X245506000Y-55879000D01*
X245508000Y-55859000D01*
X245510000Y-55840000D01*
X245511000Y-55820000D01*
X245512000Y-55800000D01*
X245511000Y-55780000D01*
X245510000Y-55760000D01*
X245508000Y-55741000D01*
X245506000Y-55721000D01*
X245502000Y-55702000D01*
X245498000Y-55682000D01*
X245493000Y-55663000D01*
X245488000Y-55644000D01*
X245481000Y-55625000D01*
X245474000Y-55607000D01*
X245466000Y-55589000D01*
X245458000Y-55571000D01*
X245449000Y-55553000D01*
X245439000Y-55536000D01*
X245426000Y-55515000D01*
X245638000Y-55303000D01*
X245664000Y-55337000D01*
G37*
X245426161Y-56084739D02*
X245426000Y-56085000D01*
X245426031Y-56084609D01*
X245426161Y-56084739D01*
G36*
X245426161Y-56084739D02*
G01*
X245426000Y-56085000D01*
X245426031Y-56084609D01*
X245426161Y-56084739D01*
G37*
%TD*%
D12*
%TO.C,J1*%
X255360000Y-155112000D03*
X255360000Y-154312000D03*
D13*
X255360000Y-153162000D03*
X255360000Y-152162000D03*
X255360000Y-151662000D03*
X255360000Y-150662000D03*
D12*
X255360000Y-149512000D03*
X255360000Y-148712000D03*
X255360000Y-148712000D03*
X255360000Y-149512000D03*
D13*
X255360000Y-150162000D03*
X255360000Y-151162000D03*
X255360000Y-152662000D03*
X255360000Y-153662000D03*
D12*
X255360000Y-154312000D03*
X255360000Y-155112000D03*
D14*
X255935000Y-156232000D03*
D15*
X260115000Y-156232000D03*
D14*
X255935000Y-147592000D03*
D15*
X260115000Y-147592000D03*
%TD*%
D16*
%TO.C,U1*%
X247390001Y-150811999D03*
X247390001Y-151311998D03*
X247390001Y-151812000D03*
X247390001Y-152311999D03*
X247390001Y-152812001D03*
D17*
X248039999Y-153461999D03*
X248539998Y-153461999D03*
X249040000Y-153461999D03*
X249539999Y-153461999D03*
X250040001Y-153461999D03*
D16*
X250689999Y-152812001D03*
X250689999Y-152311999D03*
X250689999Y-151812000D03*
X250689999Y-151311998D03*
X250689999Y-150811999D03*
D17*
X250040001Y-150162001D03*
X249539999Y-150162001D03*
X249040000Y-150162001D03*
X248539998Y-150162001D03*
X248039999Y-150162001D03*
%TD*%
D18*
%TO.C,U3*%
X255320000Y-114350000D03*
X254050000Y-114350000D03*
X252780000Y-114350000D03*
X251510000Y-114350000D03*
X250240000Y-114350000D03*
X248970000Y-114350000D03*
X247700000Y-114350000D03*
X246430000Y-114350000D03*
X245160000Y-114350000D03*
X243890000Y-114350000D03*
X242620000Y-114350000D03*
X241350000Y-114350000D03*
X240080000Y-114350000D03*
X238810000Y-114350000D03*
D19*
X237560000Y-116115000D03*
X237560000Y-117385000D03*
X237560000Y-118655000D03*
X237560000Y-119925000D03*
X237560000Y-121195000D03*
X237560000Y-122465000D03*
X237560000Y-123735000D03*
X237560000Y-125005000D03*
X237560000Y-126275000D03*
X237560000Y-127545000D03*
X237560000Y-128815000D03*
X237560000Y-130085000D03*
D18*
X238810000Y-131850000D03*
X240080000Y-131850000D03*
X241350000Y-131850000D03*
X242620000Y-131850000D03*
X243890000Y-131850000D03*
X245160000Y-131850000D03*
X246430000Y-131850000D03*
X247700000Y-131850000D03*
X248970000Y-131850000D03*
X250240000Y-131850000D03*
X251510000Y-131850000D03*
X252780000Y-131850000D03*
X254050000Y-131850000D03*
X255320000Y-131850000D03*
D20*
X247600000Y-121600000D03*
X247600000Y-120200000D03*
X247600000Y-123000000D03*
X246200000Y-120200000D03*
X246200000Y-121600000D03*
X246200000Y-123000000D03*
X249000000Y-120200000D03*
X249000000Y-121600000D03*
X249000000Y-123000000D03*
%TD*%
D21*
%TO.C,C45*%
X248100000Y-98865000D03*
X248100000Y-100765000D03*
%TD*%
D22*
%TO.C,D7*%
X217900000Y-84800000D03*
X217900000Y-87600000D03*
%TD*%
D23*
%TO.C,L25*%
X216500000Y-167250000D03*
X216500000Y-165675000D03*
%TD*%
D24*
%TO.C,Q1*%
X236012500Y-163787500D03*
X236012500Y-163137500D03*
X236012500Y-162487500D03*
X236012500Y-161837500D03*
%TD*%
D25*
%TO.C,L2*%
X233487500Y-158275000D03*
X231912500Y-158275000D03*
%TD*%
D26*
%TO.C,F1*%
X252290000Y-155168900D03*
X252290000Y-159055100D03*
%TD*%
D27*
%TO.C,R30*%
X254200000Y-134000000D03*
X254200000Y-135020000D03*
%TD*%
%TO.C,R11*%
X232005000Y-163472950D03*
X232005000Y-164492950D03*
%TD*%
D25*
%TO.C,L20*%
X218200000Y-153050000D03*
X216625000Y-153050000D03*
%TD*%
D28*
%TO.C,C19*%
X216200000Y-145360000D03*
X216200000Y-144400000D03*
%TD*%
D29*
%TO.C,C38*%
X247725000Y-85665000D03*
X250675000Y-85665000D03*
%TD*%
D30*
%TO.C,R26*%
X215265000Y-114395000D03*
X216285000Y-114395000D03*
%TD*%
D22*
%TO.C,D5*%
X220280000Y-91440000D03*
X220280000Y-94240000D03*
%TD*%
D27*
%TO.C,R33*%
X245420000Y-134000000D03*
X245420000Y-135020000D03*
%TD*%
D31*
%TO.C,Q6*%
X230937500Y-118550000D03*
X230937500Y-116650000D03*
X229062500Y-117600000D03*
%TD*%
D30*
%TO.C,R45*%
X220090000Y-128100000D03*
X221110000Y-128100000D03*
%TD*%
D32*
%TO.C,LED2*%
X225660000Y24050000D03*
X225660000Y24850000D03*
D33*
X225800000Y23000000D03*
X225800000Y25900000D03*
%TD*%
D34*
%TO.C,U7*%
X222317049Y-123708200D03*
X221667050Y-123708200D03*
X221017051Y-123708200D03*
X221017051Y-125841800D03*
X221667050Y-125841800D03*
X222317049Y-125841800D03*
%TD*%
D35*
%TO.C,R25*%
X216300000Y-113200000D03*
X216300000Y-112180000D03*
%TD*%
D36*
%TO.C,R18*%
X235610000Y-123600000D03*
X234590000Y-123600000D03*
%TD*%
D28*
%TO.C,C46*%
X245700000Y-110080000D03*
X245700000Y-109120000D03*
%TD*%
D37*
%TO.C,C32*%
X217500000Y-79000000D03*
X217500000Y-66500000D03*
%TD*%
D31*
%TO.C,Q4*%
X239787500Y-61475000D03*
X239787500Y-59575000D03*
X237912500Y-60525000D03*
%TD*%
D38*
%TO.C,C52*%
X217152050Y-123295000D03*
X218702050Y-123295000D03*
%TD*%
%TO.C,C53*%
X217142050Y-125355000D03*
X218692050Y-125355000D03*
%TD*%
D36*
%TO.C,R61*%
X250070000Y-133540000D03*
X249050000Y-133540000D03*
%TD*%
D39*
%TO.C,C33*%
X236800000Y-106920000D03*
X236800000Y-107880000D03*
%TD*%
D27*
%TO.C,R29*%
X227800000Y-108090000D03*
X227800000Y-109110000D03*
%TD*%
D39*
%TO.C,C59*%
X246400000Y-134120000D03*
X246400000Y-135080000D03*
%TD*%
D23*
%TO.C,L12*%
X224610000Y31800000D03*
X224610000Y33375000D03*
%TD*%
D27*
%TO.C,R35*%
X236724150Y-110530000D03*
X236724150Y-111550000D03*
%TD*%
D40*
%TO.C,C51*%
X259240000Y-105570000D03*
X259240000Y-107120000D03*
%TD*%
D41*
%TO.C,C15*%
X247900000Y-58775000D03*
X247900000Y-55825000D03*
%TD*%
D42*
%TO.C,C35*%
X215960000Y-110250000D03*
X215000000Y-110250000D03*
%TD*%
D39*
%TO.C,C30*%
X224975000Y-107640000D03*
X224975000Y-108600000D03*
%TD*%
%TO.C,C5*%
X255200000Y-134030000D03*
X255200000Y-134990000D03*
%TD*%
D40*
%TO.C,C50*%
X261000000Y-104715000D03*
X261000000Y-106265000D03*
%TD*%
D43*
%TO.C,D2*%
X233250000Y-61325000D03*
X236050000Y-61325000D03*
%TD*%
D44*
%TO.C,C29*%
X241200000Y-111775000D03*
X241200000Y-110225000D03*
%TD*%
D45*
%TO.C,J6*%
X213162050Y-131270000D03*
X213162050Y-129270000D03*
X213162050Y-127270000D03*
X213162050Y-125270000D03*
X213162050Y-123270000D03*
X213162050Y-121270000D03*
D46*
X210912050Y-133670000D03*
X210912050Y-118870000D03*
%TD*%
D47*
%TO.C,C39*%
X245675000Y-86665000D03*
X242725000Y-86665000D03*
%TD*%
D35*
%TO.C,R4*%
X253275000Y-97250000D03*
X253275000Y-96230000D03*
%TD*%
D48*
%TO.C,L14*%
X253000000Y-85276000D03*
X253000000Y-88324000D03*
%TD*%
D49*
%TO.C,Q3*%
X225500000Y-117057500D03*
X227400000Y-117057500D03*
X226450000Y-115182500D03*
%TD*%
D44*
%TO.C,C8*%
X223260000Y-160387500D03*
X223260000Y-158837500D03*
%TD*%
D50*
%TO.C,IC1*%
X234350000Y-145850000D03*
D51*
X232850000Y-145938000D03*
D50*
X231350000Y-145850000D03*
D52*
X232850000Y-148238000D03*
%TD*%
D35*
%TO.C,R21*%
X253800000Y-111210000D03*
X253800000Y-110190000D03*
%TD*%
%TO.C,R27*%
X228400000Y11690000D03*
X228400000Y12710000D03*
%TD*%
D36*
%TO.C,R20*%
X238710000Y-133600000D03*
X237690000Y-133600000D03*
%TD*%
D39*
%TO.C,C61*%
X229100000Y36680000D03*
X229100000Y35720000D03*
%TD*%
D22*
%TO.C,D4*%
X217855000Y-98565000D03*
X217855000Y-101365000D03*
%TD*%
D36*
%TO.C,R41*%
X236020000Y-126600000D03*
X235000000Y-126600000D03*
%TD*%
D28*
%TO.C,C25*%
X252850000Y-111230000D03*
X252850000Y-110270000D03*
%TD*%
D53*
%TO.C,U4*%
X229500000Y-106690000D03*
X229500000Y-107960000D03*
X229500000Y-109230000D03*
X229500000Y-110500000D03*
X229500000Y-111770000D03*
X229500000Y-113040000D03*
X229500000Y-114310000D03*
X234948300Y-114310000D03*
X234948300Y-113040000D03*
X234948300Y-111770000D03*
X234948300Y-110500000D03*
X234948300Y-109230000D03*
X234948300Y-107960000D03*
X234948300Y-106690000D03*
%TD*%
D23*
%TO.C,L16*%
X222300000Y35112500D03*
X222300000Y36687500D03*
%TD*%
D30*
%TO.C,R54*%
X246090000Y-137600000D03*
X247110000Y-137600000D03*
%TD*%
D35*
%TO.C,R70*%
X217800000Y33890000D03*
X217800000Y34910000D03*
%TD*%
D25*
%TO.C,L21*%
X218200000Y-154600000D03*
X216625000Y-154600000D03*
%TD*%
D21*
%TO.C,C13*%
X230910000Y-152162500D03*
X230910000Y-154062500D03*
%TD*%
D35*
%TO.C,R56*%
X240000000Y-134710000D03*
X240000000Y-133690000D03*
%TD*%
D30*
%TO.C,R51*%
X240740000Y-153830000D03*
X241760000Y-153830000D03*
%TD*%
D27*
%TO.C,R42*%
X241450000Y-60505000D03*
X241450000Y-61525000D03*
%TD*%
D39*
%TO.C,C3*%
X228200000Y-158870000D03*
X228200000Y-159830000D03*
%TD*%
D54*
%TO.C,C60*%
X212120000Y33900000D03*
X213080000Y33900000D03*
%TD*%
D36*
%TO.C,R37*%
X257615000Y-90720000D03*
X256595000Y-90720000D03*
%TD*%
D44*
%TO.C,C28*%
X242800000Y-111775000D03*
X242800000Y-110225000D03*
%TD*%
D42*
%TO.C,C47*%
X251970001Y-107369999D03*
X251010001Y-107369999D03*
%TD*%
D30*
%TO.C,R24*%
X221940000Y-106345000D03*
X222960000Y-106345000D03*
%TD*%
D27*
%TO.C,R13*%
X232600000Y-117490000D03*
X232600000Y-118510000D03*
%TD*%
D30*
%TO.C,R52*%
X238050000Y-150312000D03*
X239070000Y-150312000D03*
%TD*%
D35*
%TO.C,R53*%
X243400000Y-135020000D03*
X243400000Y-134000000D03*
%TD*%
%TO.C,R15*%
X253850000Y-108210000D03*
X253850000Y-107190000D03*
%TD*%
D55*
%TO.C,U6*%
X257400001Y-105980000D03*
X257400001Y-105329999D03*
X257400001Y-104680000D03*
X257400001Y-104029999D03*
X257400001Y-103380000D03*
X257400001Y-102729999D03*
X257400001Y-102080000D03*
X251500000Y-102080000D03*
X251500000Y-102729999D03*
X251500000Y-103380000D03*
X251500000Y-104029999D03*
X251500000Y-104680000D03*
X251500000Y-105329999D03*
X251500000Y-105980000D03*
%TD*%
D56*
%TO.C,MK1*%
X244162500Y-165926000D03*
X244162500Y-166748000D03*
X245837500Y-166748000D03*
X245837500Y-165926000D03*
%TD*%
D27*
%TO.C,R68*%
X218900000Y36900000D03*
X218900000Y35880000D03*
%TD*%
D44*
%TO.C,C22*%
X248780000Y-112137500D03*
X248780000Y-110587500D03*
%TD*%
D57*
%TO.C,IC2*%
X224960000Y-161762500D03*
X225910000Y-161762500D03*
X226860000Y-161762500D03*
X226860000Y-159262500D03*
X225910000Y-159262500D03*
X224960000Y-159262500D03*
%TD*%
D54*
%TO.C,C27*%
X255370000Y-111750000D03*
X256330000Y-111750000D03*
%TD*%
D47*
%TO.C,C31*%
X221840000Y-117587700D03*
X218890000Y-117587700D03*
%TD*%
D21*
%TO.C,C10*%
X228910000Y-152162500D03*
X228910000Y-154062500D03*
%TD*%
D25*
%TO.C,L23*%
X218200000Y-157800000D03*
X216625000Y-157800000D03*
%TD*%
D35*
%TO.C,R8*%
X239450000Y-148622000D03*
X239450000Y-147602000D03*
%TD*%
%TO.C,R9*%
X238250000Y-148622000D03*
X238250000Y-147602000D03*
%TD*%
D48*
%TO.C,L3*%
X255600000Y-160676000D03*
X255600000Y-163724000D03*
%TD*%
D42*
%TO.C,C12*%
X241730000Y-152812000D03*
X240770000Y-152812000D03*
%TD*%
D35*
%TO.C,R71*%
X231400000Y35400000D03*
X231400000Y36420000D03*
%TD*%
D36*
%TO.C,R16*%
X235610000Y-124800000D03*
X234590000Y-124800000D03*
%TD*%
D22*
%TO.C,D8*%
X217855000Y-89290000D03*
X217855000Y-92090000D03*
%TD*%
D23*
%TO.C,L11*%
X222100000Y31800000D03*
X222100000Y33375000D03*
%TD*%
D39*
%TO.C,C44*%
X244400000Y-134000000D03*
X244400000Y-134960000D03*
%TD*%
D31*
%TO.C,Q2*%
X214575000Y-113220000D03*
X214575000Y-111320000D03*
X212700000Y-112270000D03*
%TD*%
D54*
%TO.C,C48*%
X225100000Y-110920000D03*
X226060000Y-110920000D03*
%TD*%
D22*
%TO.C,D3*%
X220255000Y-96090000D03*
X220255000Y-98890000D03*
%TD*%
D25*
%TO.C,L22*%
X218187500Y-156200000D03*
X216612500Y-156200000D03*
%TD*%
D58*
%TO.C,IC3*%
X217988000Y-107760000D03*
X217988000Y-109030000D03*
X217988000Y-110300000D03*
X217988000Y-111570000D03*
X217988000Y-112840000D03*
X217988000Y-114110000D03*
X217988000Y-115380000D03*
X223412000Y-115380000D03*
X223412000Y-114110000D03*
X223412000Y-112840000D03*
X223412000Y-111570000D03*
X223412000Y-110300000D03*
X223412000Y-109030000D03*
X223412000Y-107760000D03*
%TD*%
D35*
%TO.C,R36*%
X225500000Y-112920000D03*
X225500000Y-111900000D03*
%TD*%
D27*
%TO.C,R12*%
X232000000Y-161500000D03*
X232000000Y-162520000D03*
%TD*%
D54*
%TO.C,C42*%
X254520000Y-94000000D03*
X255480000Y-94000000D03*
%TD*%
D59*
%TO.C,L13*%
X256112500Y-108350000D03*
X257687500Y-108350000D03*
%TD*%
D41*
%TO.C,C37*%
X247800000Y-90640000D03*
X247800000Y-87690000D03*
%TD*%
D50*
%TO.C,IC5*%
X246090000Y-156400000D03*
D51*
X244590000Y-156488000D03*
D50*
X243090000Y-156400000D03*
D52*
X244590000Y-158788000D03*
%TD*%
D35*
%TO.C,R59*%
X241400000Y-134600000D03*
X241400000Y-133580000D03*
%TD*%
D60*
%TO.C,C62*%
X252375000Y-161000000D03*
X250825000Y-161000000D03*
%TD*%
D61*
%TO.C,RV1*%
X219800000Y17500000D03*
D62*
X220800000Y20750000D03*
D61*
X221800000Y17500000D03*
%TD*%
D63*
%TO.C,J2*%
X227800000Y38350000D03*
X226800000Y38350000D03*
X225800000Y38350000D03*
X224800000Y38350000D03*
X223800000Y38350000D03*
X222800000Y38350000D03*
X221800000Y38350000D03*
X220800000Y38350000D03*
X219800000Y38350000D03*
X218800000Y38350000D03*
X217800000Y38350000D03*
X216800000Y38350000D03*
X215800000Y38350000D03*
X214800000Y38350000D03*
X213800000Y38350000D03*
X212800000Y38350000D03*
X211800000Y38350000D03*
X210800000Y38350000D03*
D64*
X230200000Y41100000D03*
X208400000Y41100000D03*
%TD*%
D35*
%TO.C,R31*%
X254450000Y-96075000D03*
X254450000Y-95055000D03*
%TD*%
D39*
%TO.C,C43*%
X249500000Y-88770000D03*
X249500000Y-89730000D03*
%TD*%
D44*
%TO.C,C23*%
X250380000Y-112137500D03*
X250380000Y-110587500D03*
%TD*%
D36*
%TO.C,R48*%
X229287050Y-120492250D03*
X228267050Y-120492250D03*
%TD*%
D27*
%TO.C,R72*%
X253600000Y-161490000D03*
X253600000Y-162510000D03*
%TD*%
D24*
%TO.C,Q5*%
X252600000Y-164750000D03*
X252600000Y-164100000D03*
X252600000Y-163450000D03*
X252600000Y-162800000D03*
%TD*%
D27*
%TO.C,R6*%
X239200000Y-160890000D03*
X239200000Y-161910000D03*
%TD*%
D38*
%TO.C,C58*%
X236625000Y-157200000D03*
X238175000Y-157200000D03*
%TD*%
D65*
%TO.C,IC4*%
X251400000Y-92265000D03*
X251000000Y-92265000D03*
X250600000Y-92265000D03*
X250200000Y-92265000D03*
X249800000Y-92265000D03*
X249400000Y-92265000D03*
X249000000Y-92265000D03*
X248600000Y-92265000D03*
X248200000Y-92265000D03*
X247800000Y-92265000D03*
D66*
X247100000Y-92865000D03*
X247100000Y-93265000D03*
X247100000Y-93665000D03*
X247100000Y-94065000D03*
X247100000Y-94465000D03*
X247100000Y-94865000D03*
X247100000Y-95265000D03*
X247100000Y-95665000D03*
D65*
X247800000Y-96265000D03*
X248200000Y-96265000D03*
X248600000Y-96265000D03*
X249000000Y-96265000D03*
X249400000Y-96265000D03*
X249800000Y-96265000D03*
X250200000Y-96265000D03*
X250600000Y-96265000D03*
X251000000Y-96265000D03*
X251400000Y-96265000D03*
D66*
X252100000Y-95665000D03*
X252100000Y-95265000D03*
X252100000Y-94865000D03*
X252100000Y-94465000D03*
X252100000Y-94065000D03*
X252100000Y-93665000D03*
X252100000Y-93265000D03*
X252100000Y-92865000D03*
D67*
X249600000Y-94265000D03*
%TD*%
D68*
%TO.C,U5*%
X256062500Y-95850000D03*
X256062500Y-97750000D03*
X257937500Y-96800000D03*
%TD*%
D23*
%TO.C,L18*%
X225400000Y35012500D03*
X225400000Y36587500D03*
%TD*%
D36*
%TO.C,R38*%
X257595000Y-91810000D03*
X256575000Y-91810000D03*
%TD*%
D69*
%TO.C,SW2*%
X230330000Y-139480000D03*
X230330000Y-131520000D03*
X234830000Y-139480000D03*
X234830000Y-131520000D03*
D70*
X236670000Y-135500000D03*
%TD*%
D40*
%TO.C,C49*%
X249559999Y-103325000D03*
X249559999Y-104875000D03*
%TD*%
D35*
%TO.C,R1*%
X254900000Y-141610000D03*
X254900000Y-140590000D03*
%TD*%
D23*
%TO.C,L15*%
X223800000Y35112500D03*
X223800000Y36687500D03*
%TD*%
D36*
%TO.C,R60*%
X244820000Y-108100000D03*
X243800000Y-108100000D03*
%TD*%
D25*
%TO.C,L9*%
X218200000Y-151550000D03*
X216625000Y-151550000D03*
%TD*%
D42*
%TO.C,C63*%
X222080000Y-127100000D03*
X221120000Y-127100000D03*
%TD*%
D30*
%TO.C,R5*%
X237200000Y-161000000D03*
X238220000Y-161000000D03*
%TD*%
D27*
%TO.C,R66*%
X216800000Y36810000D03*
X216800000Y35790000D03*
%TD*%
D41*
%TO.C,C2*%
X230000000Y-159175000D03*
X230000000Y-156225000D03*
%TD*%
D71*
%TO.C,C26*%
X255480000Y-110150000D03*
X257380000Y-110150000D03*
%TD*%
D30*
%TO.C,R10*%
X244990000Y-59100000D03*
X246010000Y-59100000D03*
%TD*%
D36*
%TO.C,R50*%
X247110000Y-136600000D03*
X246090000Y-136600000D03*
%TD*%
D44*
%TO.C,C4*%
X258000000Y-162750000D03*
X258000000Y-161200000D03*
%TD*%
D30*
%TO.C,R44*%
X220790000Y-120320000D03*
X221810000Y-120320000D03*
%TD*%
%TO.C,R23*%
X223855000Y-106345000D03*
X224875000Y-106345000D03*
%TD*%
D43*
%TO.C,D9*%
X236600000Y-159200000D03*
X239400000Y-159200000D03*
%TD*%
D23*
%TO.C,L19*%
X210700000Y35125000D03*
X210700000Y36700000D03*
%TD*%
D38*
%TO.C,C54*%
X217217050Y-127235000D03*
X218767050Y-127235000D03*
%TD*%
D44*
%TO.C,C41*%
X245280000Y-153765000D03*
X245280000Y-152215000D03*
%TD*%
D59*
%TO.C,L6*%
X216600000Y-146750000D03*
X218175000Y-146750000D03*
%TD*%
D35*
%TO.C,R62*%
X247800000Y-134600000D03*
X247800000Y-133580000D03*
%TD*%
D72*
%TO.C,C36*%
X245200000Y-88690000D03*
X245200000Y-91640000D03*
%TD*%
D73*
%TO.C,U2*%
X242750000Y-150562000D03*
X242750000Y-149372000D03*
X241930000Y-150562000D03*
X241930000Y-149372000D03*
D74*
X243790000Y-150967000D03*
X243790000Y-150467000D03*
X243790000Y-149967000D03*
X243790000Y-149467000D03*
X243790000Y-148967000D03*
X240890000Y-148967000D03*
X240890000Y-149467000D03*
X240890000Y-149967000D03*
X240890000Y-150467000D03*
X240890000Y-150967000D03*
%TD*%
D35*
%TO.C,R46*%
X225677050Y-130572250D03*
X225677050Y-129552250D03*
%TD*%
D22*
%TO.C,D6*%
X217855000Y-93915000D03*
X217855000Y-96715000D03*
%TD*%
D25*
%TO.C,L8*%
X218187500Y-150000000D03*
X216612500Y-150000000D03*
%TD*%
D23*
%TO.C,L17*%
X220800000Y35112500D03*
X220800000Y36687500D03*
%TD*%
D39*
%TO.C,C9*%
X252000000Y-134040000D03*
X252000000Y-135000000D03*
%TD*%
D36*
%TO.C,R7*%
X245210000Y-164800000D03*
X244190000Y-164800000D03*
%TD*%
D27*
%TO.C,R47*%
X227647050Y-129552250D03*
X227647050Y-130572250D03*
%TD*%
D21*
%TO.C,C6*%
X248920000Y-156070000D03*
X248920000Y-157970000D03*
%TD*%
D72*
%TO.C,C11*%
X247837500Y-165025000D03*
X247837500Y-167975000D03*
%TD*%
D38*
%TO.C,C56*%
X230090000Y-143430000D03*
X231640000Y-143430000D03*
%TD*%
D75*
%TO.C,MK3*%
X217000000Y-43325000D03*
X216178000Y-43325000D03*
X216178000Y-45000000D03*
X217000000Y-45000000D03*
%TD*%
D35*
%TO.C,R28*%
X215800000Y35690000D03*
X215800000Y36710000D03*
%TD*%
D27*
%TO.C,R39*%
X223300000Y-117610000D03*
X223300000Y-118630000D03*
%TD*%
D44*
%TO.C,C24*%
X244400000Y-111775000D03*
X244400000Y-110225000D03*
%TD*%
D27*
%TO.C,R55*%
X226400000Y-119490000D03*
X226400000Y-120510000D03*
%TD*%
D36*
%TO.C,R43*%
X221810000Y-119320000D03*
X220790000Y-119320000D03*
%TD*%
D35*
%TO.C,R14*%
X248300000Y-104220000D03*
X248300000Y-103200000D03*
%TD*%
D30*
%TO.C,R57*%
X238050000Y-151312000D03*
X239070000Y-151312000D03*
%TD*%
D28*
%TO.C,C55*%
X224300000Y-120600000D03*
X224300000Y-119640000D03*
%TD*%
D54*
%TO.C,C16*%
X237520000Y-146600000D03*
X238480000Y-146600000D03*
%TD*%
%TO.C,C40*%
X249995000Y-90860000D03*
X250955000Y-90860000D03*
%TD*%
D42*
%TO.C,C18*%
X239880000Y-112800000D03*
X238920000Y-112800000D03*
%TD*%
D23*
%TO.C,L10*%
X226600000Y31925000D03*
X226600000Y33500000D03*
%TD*%
D76*
%TO.C,U8*%
X224367049Y-127977750D03*
X225017050Y-127977750D03*
X225667051Y-127977750D03*
X226317050Y-127977750D03*
X226967049Y-127977750D03*
X227617050Y-127977750D03*
X228267049Y-127977750D03*
X228267051Y-122072250D03*
X227617050Y-122072250D03*
X226967051Y-122072250D03*
X226317050Y-122072250D03*
X225667051Y-122072250D03*
X225017050Y-122072250D03*
X224367051Y-122072250D03*
%TD*%
D69*
%TO.C,SW1*%
X221330000Y-149280000D03*
X221330000Y-141320000D03*
X225830000Y-149280000D03*
X225830000Y-141320000D03*
D70*
X227670000Y-145300000D03*
%TD*%
D25*
%TO.C,L7*%
X218175000Y-148400000D03*
X216600000Y-148400000D03*
%TD*%
D41*
%TO.C,C17*%
X218900000Y-45575000D03*
X218900000Y-42625000D03*
%TD*%
D30*
%TO.C,R3*%
X228040000Y-163150000D03*
X229060000Y-163150000D03*
%TD*%
D36*
%TO.C,R19*%
X235610000Y-122400000D03*
X234590000Y-122400000D03*
%TD*%
D30*
%TO.C,R49*%
X237290000Y-155800000D03*
X238310000Y-155800000D03*
%TD*%
D36*
%TO.C,R40*%
X257575000Y-92920000D03*
X256555000Y-92920000D03*
%TD*%
D35*
%TO.C,R73*%
X253700000Y-166910000D03*
X253700000Y-165890000D03*
%TD*%
%TO.C,R17*%
X254900000Y-108210000D03*
X254900000Y-107190000D03*
%TD*%
D61*
%TO.C,RV2*%
X220250000Y-4500000D03*
D62*
X221250000Y-1250000D03*
D61*
X222250000Y-4500000D03*
%TD*%
D21*
%TO.C,C14*%
X233110000Y-152162500D03*
X233110000Y-154062500D03*
%TD*%
D35*
%TO.C,R2*%
X230020000Y-162967500D03*
X230020000Y-161947500D03*
%TD*%
D27*
%TO.C,R58*%
X240800000Y-158890000D03*
X240800000Y-159910000D03*
%TD*%
D77*
%TO.C,C7*%
X235380000Y-143210000D03*
X233480000Y-143210000D03*
%TD*%
D32*
%TO.C,LED1*%
X225660000Y-4566700D03*
X225660000Y-3766700D03*
D33*
X225800000Y-5616700D03*
X225800000Y-2716700D03*
%TD*%
D27*
%TO.C,R34*%
X254600000Y-97900000D03*
X254600000Y-98920000D03*
%TD*%
D37*
%TO.C,C34*%
X252400000Y-79250000D03*
X252400000Y-66750000D03*
%TD*%
D78*
%TO.C,J9*%
X214650000Y-148000000D03*
X214650000Y-149000000D03*
X214650000Y-150000000D03*
X214650000Y-151000000D03*
X214650000Y-152000000D03*
X214650000Y-153000000D03*
X214650000Y-154000000D03*
X214650000Y-155000000D03*
X214650000Y-156000000D03*
X214650000Y-157000000D03*
X214650000Y-158000000D03*
X214650000Y-159000000D03*
X214650000Y-160000000D03*
X214650000Y-161000000D03*
X214650000Y-162000000D03*
X214650000Y-163000000D03*
X214650000Y-164000000D03*
X214650000Y-165000000D03*
D79*
X211900000Y-145600000D03*
X211900000Y-167400000D03*
%TD*%
D44*
%TO.C,C21*%
X246930000Y-112037500D03*
X246930000Y-110487500D03*
%TD*%
D27*
%TO.C,R32*%
X253010000Y-134010000D03*
X253010000Y-135030000D03*
%TD*%
%TO.C,R22*%
X242400000Y-133980000D03*
X242400000Y-135000000D03*
%TD*%
D54*
%TO.C,C20*%
X216120000Y-164000000D03*
X217080000Y-164000000D03*
%TD*%
D56*
%TO.C,MK2*%
X245837500Y-57874000D03*
X245837500Y-57052000D03*
X244162500Y-57052000D03*
X244162500Y-57874000D03*
%TD*%
D80*
%TO.C,L1*%
X227800000Y36687500D03*
X227800000Y35112500D03*
%TD*%
D81*
%TO.C,L4*%
X225010000Y-156062500D03*
X225010000Y-152662500D03*
%TD*%
D40*
%TO.C,C1*%
X240540000Y-155715000D03*
X240540000Y-157265000D03*
%TD*%
M02*
