M48
; DRILL file KiCad 10.0.0 date 2026-03-30T17:06:11
; FORMAT={-:-/ absolute / metric / decimal}
; #@! TF.CreationDate,2026-03-30T17:06:11+02:00
; #@! TF.GenerationSoftware,Kicad,Pcbnew,10.0.0
; #@! TF.FileFunction,MixedPlating,1,4
FMAT,2
METRIC
; #@! TA.AperFunction,Plated,PTH,ViaDrill
T1C0.300
; #@! TA.AperFunction,Plated,PTH,ComponentDrill
T2C0.300
; #@! TA.AperFunction,Plated,PTH,ComponentDrill
T3C0.600
; #@! TA.AperFunction,Plated,PTH,ComponentDrill
T4C1.000
; #@! TA.AperFunction,Plated,PTH,ComponentDrill
T5C1.100
; #@! TA.AperFunction,Plated,PTH,ComponentDrill
T6C1.300
; #@! TA.AperFunction,Plated,PTH,ComponentDrill
T7C1.400
; #@! TA.AperFunction,Plated,PTH,ViaDrill
T8C1.500
; #@! TA.AperFunction,Plated,PTH,ComponentDrill
T9C1.700
; #@! TA.AperFunction,Plated,PTH,ComponentDrill
T10C2.700
; #@! TA.AperFunction,NonPlated,NPTH,ComponentDrill
T11C0.600
; #@! TA.AperFunction,NonPlated,NPTH,ComponentDrill
T12C0.650
%
G90
G05
T1
X207.25Y-154.25
X207.25Y-159.25
X207.25Y-164.25
X207.25Y-168.25
X207.48Y43.53
X207.5Y36.75
X207.5Y32.25
X207.5Y27.75
X207.5Y23.75
X207.5Y19.75
X207.5Y16.0
X207.5Y11.5
X207.5Y7.5
X207.5Y3.5
X207.5Y-1.0
X207.5Y-5.5
X207.5Y-9.5
X207.5Y-13.5
X207.5Y-17.5
X207.5Y-22.0
X207.5Y-26.0
X207.5Y-30.0
X207.5Y-34.5
X207.5Y-39.0
X207.5Y-43.0
X207.5Y-47.0
X207.5Y-55.0
X207.5Y-60.5
X207.5Y-64.5
X207.5Y-68.5
X207.5Y-73.0
X207.5Y-77.0
X207.5Y-81.0
X207.5Y-85.0
X207.5Y-89.0
X207.5Y-93.0
X207.5Y-97.5
X207.5Y-101.5
X207.5Y-105.5
X207.5Y-113.0
X207.5Y-117.0
X207.5Y-121.5
X207.5Y-125.5
X207.5Y-129.5
X207.5Y-133.5
X207.5Y-137.5
X207.5Y-141.5
X207.5Y-143.5
X207.5Y-150.0
X208.9Y36.6
X210.5Y-55.0
X211.5Y45.75
X212.1Y22.8
X212.1Y-163.3
X213.1Y33.1
X213.2Y-120.0
X213.2Y-156.9
X213.25Y-52.25
X213.4Y-156.0
X213.4Y-160.0
X213.4Y-161.0
X213.7Y-44.9
X213.8Y-108.3
X214.2Y-141.9
X214.5Y-55.0
X214.53Y-168.49
X215.0Y-42.4
X215.0Y-103.0
X215.4Y-144.4
X215.5Y45.75
X215.6Y-96.9
X215.8Y-100.335
X215.863Y-111.347
X216.0Y-159.0
X216.1Y-140.6
X216.2Y-42.3
X216.45Y-84.75
X216.5Y-121.3
X217.0Y-103.0
X217.0Y-131.4
X217.1Y-91.1
X217.25Y-52.25
X217.3Y-138.6
X217.5Y-116.5
X217.5Y-168.5
X217.6Y-117.6
X218.0Y-55.0
X218.48Y-144.7
X218.6Y-122.4
X218.6Y-130.6
X218.6Y-162.0
X218.7Y-128.2
X218.8Y-119.3
X218.9Y-41.4
X218.9Y-43.7
X219.0Y-46.75
X219.0Y-103.0
X219.1Y-146.75
X219.188Y-152.35
X219.2Y-150.3
X219.25Y-84.75
X219.25Y-95.74
X219.251Y-113.1
X219.3Y-156.2
X219.5Y-162.4
X219.6Y-101.6
X219.6Y-153.3
X219.637Y-125.345
X219.75Y-103.825
X220.0Y45.75
X220.1Y33.8
X220.2Y-132.2
X220.2Y-141.3
X220.2Y-146.1
X220.2Y-149.2
X220.3Y-90.15
X220.4Y40.2
X220.4Y-113.4
X220.454Y-127.254
X220.7Y-158.2
X220.9Y-83.7
X220.9Y-121.1
X221.0Y-103.0
X221.1Y33.9
X221.1Y-128.9
X221.348Y-122.8
X221.354Y-89.481
X221.4Y-154.5
X221.5Y40.4
X221.588Y-100.503
X221.6Y-133.6
X221.6Y-139.3
X221.75Y-52.25
X221.9Y-104.9
X222.0Y-55.0
X222.0Y-128.1
X222.1Y-160.4
X222.17Y-143.36
X222.2Y-95.6
X222.4Y-87.2
X222.406Y34.312
X222.5Y-119.9
X222.6Y-161.5
X222.65Y-116.4
X223.0Y-81.75
X223.01Y-157.75
X223.15Y-119.2
X223.3Y32.7
X223.3Y-94.6
X223.5Y29.4
X223.5Y-168.5
X223.6Y-150.7
X223.65Y-121.4
X223.974Y-124.176
X224.0Y-129.0
X224.091Y-98.82
X224.35Y-130.572
X224.5Y45.75
X224.5Y30.4
X224.559Y34.375
X224.6Y39.7
X224.6Y-110.0
X224.6Y-141.3
X224.676Y-84.68
X224.8Y-93.2
X224.912Y-123.188
X225.0Y-109.2
X225.0Y-150.7
X225.1Y-118.7
X225.1Y-119.7
X225.11Y-120.715
X225.3Y-79.25
X225.4Y28.1
X225.5Y-91.7
X225.6Y-6.9
X225.6Y-96.9
X225.7Y-90.2
X225.712Y-123.201
X225.751Y-107.402
X225.91Y-160.512
X225.91Y-162.912
X226.0Y-55.0
X226.0Y-109.0
X226.1Y21.5
X226.125Y-88.589
X226.261Y-112.511
X226.4Y-111.724
X226.5Y-117.8
X226.582Y-123.282
X226.627Y-129.375
X226.8Y-108.3
X227.0Y-62.5
X227.0Y-66.5
X227.0Y-87.7
X227.1Y-82.6
X227.11Y-149.9
X227.15Y-150.748
X227.217Y-109.367
X227.4Y-95.6
X227.5Y-160.5
X227.67Y-143.0
X227.72Y-110.49
X227.858Y-136.243
X227.964Y-98.0
X228.0Y-78.5
X228.0Y-86.6
X228.0Y-112.4
X228.0Y-139.3
X228.02Y-137.8
X228.08Y-132.01
X228.1Y-114.3
X228.1Y-150.65
X228.1Y-164.3
X228.175Y-160.65
X228.277Y-126.735
X228.5Y45.75
X228.5Y-94.4
X228.6Y7.75
X228.69Y-143.0
X228.7Y-119.7
X228.7Y-155.0
X228.8Y-105.7
X229.1Y34.8
X229.3Y11.9
X229.4Y-97.0
X229.6Y-94.8
X229.7Y-92.1
X229.7Y-116.3
X229.753Y-144.538
X229.9Y-164.4
X229.925Y-157.25
X230.1Y-119.2
X230.11Y-161.112
X230.199Y-134.7
X230.25Y-52.25
X230.5Y-55.0
X230.6Y36.4
X231.1Y-164.464
X231.17Y-122.8
X231.19Y-127.1
X231.2Y-93.5
X231.2Y-113.0
X231.2Y-129.4
X231.2Y-162.5
X231.3Y-114.2
X231.3Y-120.55
X231.3Y-130.194
X231.4Y-107.2
X231.45Y-156.9
X231.45Y-160.95
X231.5Y-139.6
X231.8Y-144.6
X231.9Y-154.7
X232.0Y-88.3
X232.0Y-103.2
X232.25Y-168.5
X232.3Y-86.7
X232.3Y-155.6
X232.35Y-142.15
X232.5Y45.75
X232.6Y-85.1
X232.61Y-143.79
X232.7Y-144.7
X232.7Y-156.3
X232.764Y-94.959
X232.8Y-124.5
X232.8Y-126.8
X232.951Y-138.2
X233.0Y-90.2
X233.1Y-78.0
X233.2Y-81.6
X233.289Y-141.985
X233.455Y-138.821
X233.65Y-139.85
X233.8Y-158.912
X233.8Y-159.6
X233.8Y-160.412
X234.1Y-153.6
X234.2Y-148.85
X234.3Y-118.6
X234.3Y-120.8
X234.3Y-125.8
X234.35Y-148.0
X234.4Y-152.0
X234.424Y-102.424
X234.5Y-55.0
X234.5Y-96.7
X234.527Y-85.28
X234.6Y-121.6
X234.65Y-157.06
X234.68Y-157.97
X234.7Y-158.8
X234.7Y-159.6
X234.7Y-160.4
X234.8Y-132.8
X234.934Y-103.041
X235.03Y-152.82
X235.072Y-99.7
X235.1Y-92.2
X235.1Y-130.0
X235.2Y-148.9
X235.3Y-81.7
X235.4Y-89.5
X235.7Y-100.3
X235.75Y-52.25
X235.9Y-98.1
X235.9Y-116.82
X236.159Y-107.554
X236.2Y-121.0
X236.25Y45.75
X236.3Y-131.45
X236.4Y-93.4
X236.518Y-78.386
X236.545Y-106.001
X236.8Y-151.3
X236.9Y-133.55
X236.9Y-150.4
X236.9Y-152.6
X237.162Y-139.443
X237.2Y-162.0
X237.223Y-82.101
X237.5Y-147.6
X237.7Y-164.464
X237.78Y-142.93
X237.95Y-138.0
X238.0Y-113.0
X238.2Y-144.5
X238.22Y-101.07
X238.4Y-145.6
X238.5Y-55.0
X238.5Y-106.8
X238.5Y-107.6
X238.6Y-59.575
X238.7Y-134.4
X238.8Y-87.0
X238.8Y-103.4
X238.81Y-115.9
X238.9Y-83.4
X239.06Y-98.95
X239.1Y-120.5
X239.35Y-135.116
X239.6Y-154.7
X239.64Y-106.44
X239.67Y-110.93
X239.8Y-58.7
X239.9Y-79.3
X239.9Y-116.0
X239.96Y-152.912
X240.1Y-92.4
X240.1Y-106.9
X240.25Y45.75
X240.25Y-52.25
X240.299Y-121.5
X240.3Y-164.9
X240.7Y-166.8
X240.88Y-103.17
X241.0Y-135.4
X241.0Y-168.5
X241.18Y-109.15
X241.4Y-62.6
X241.45Y-59.75
X241.5Y-93.3
X241.656Y-81.065
X241.7Y-57.8
X242.05Y-157.018
X242.3Y-136.2
X242.34Y-98.87
X242.446Y-89.218
X242.466Y-133.066
X242.5Y-55.0
X242.6Y-84.4
X242.7Y-57.052
X242.7Y-83.0
X242.8Y-109.4
X243.2Y-88.065
X243.25Y-95.6
X243.3Y-93.7
X243.3Y-167.2
X243.4Y-91.665
X243.46Y-142.29
X243.5Y-90.0
X243.5Y-164.2
X243.525Y-86.09
X243.55Y-153.91
X243.6Y-168.0
X244.25Y45.75
X244.3Y-127.8
X244.368Y-136.732
X244.38Y-109.15
X244.4Y-135.8
X244.603Y-150.567
X244.75Y-95.5
X244.8Y-90.465
X244.9Y-93.75
X244.95Y-128.9
X245.23Y-155.29
X245.25Y-164.0
X245.364Y-149.946
X245.5Y24.0
X245.5Y20.0
X245.5Y16.0
X245.5Y11.5
X245.5Y7.0
X245.5Y3.0
X245.5Y-1.0
X245.5Y-5.5
X245.5Y-10.0
X245.5Y-14.0
X245.5Y-18.0
X245.5Y-22.0
X245.5Y-26.5
X245.5Y-30.5
X245.5Y-34.5
X245.5Y-39.0
X245.5Y-43.5
X245.5Y-47.5
X245.5Y-51.5
X245.65Y-95.25
X245.75Y39.5
X245.75Y35.5
X245.75Y31.5
X246.0Y-97.8
X246.042Y-154.379
X246.14Y-158.794
X246.141Y-93.644
X246.28Y-103.33
X246.3Y-164.75
X246.3Y-168.6
X246.5Y-55.0
X246.51Y-135.8
X246.589Y-152.562
X246.59Y-153.762
X246.75Y-100.7
X246.8Y-109.6
X246.8Y-166.699
X247.0Y-149.8
X247.005Y-148.942
X247.075Y-92.165
X247.15Y-90.64
X247.15Y-96.565
X247.15Y-97.565
X247.7Y-166.7
X247.714Y-144.404
X247.734Y-111.234
X247.89Y-154.362
X248.146Y-94.295
X248.15Y-97.565
X248.16Y-93.33
X248.16Y-95.21
X248.455Y-91.295
X248.711Y-154.28
X248.75Y-86.75
X248.8Y-109.6
X248.8Y-159.13
X248.9Y-106.25
X248.93Y-134.52
X249.082Y-94.27
X249.1Y-93.33
X249.125Y-95.21
X249.13Y-148.69
X249.15Y-142.82
X249.25Y-87.25
X249.3Y-55.75
X249.32Y-136.04
X249.568Y-105.75
X249.7Y-139.41
X249.9Y-161.0
X249.95Y-99.0
X250.0Y-87.0
X250.018Y-94.257
X250.04Y-93.305
X250.091Y-95.21
X250.17Y-134.71
X250.2Y-109.6
X250.25Y-107.36
X250.5Y-55.0
X250.52Y-140.06
X250.75Y-168.5
X250.954Y-93.305
X250.954Y-94.27
X250.954Y-95.21
X251.15Y-98.159
X251.2Y-88.324
X251.2Y-135.0
X251.25Y-87.0
X251.474Y-151.937
X252.1Y-89.8
X252.268Y-97.467
X252.293Y-151.711
X252.341Y-153.211
X252.65Y-106.3
X252.7Y-61.5
X252.75Y-91.565
X252.75Y-103.35
X252.8Y-166.9
X252.9Y-109.6
X253.0Y-89.8
X253.3Y-97.9
X253.34Y-118.63
X253.35Y-121.25
X253.39Y-120.14
X253.475Y-94.665
X253.6Y-160.8
X253.84Y-151.362
X253.9Y-89.6
X254.3Y-148.7
X254.331Y-109.531
X254.4Y-96.9
X254.6Y-100.2
X254.7Y-155.7
X254.8Y-88.4
X255.0Y-55.0
X255.041Y-166.2
X255.34Y-125.57
X255.4Y-113.0
X255.731Y-94.669
X255.75Y-116.0
X255.75Y-120.0
X255.75Y-124.5
X255.75Y-128.75
X255.9Y-98.5
X255.9Y-104.0
X256.1Y-106.1
X256.15Y-102.1
X256.2Y-135.0
X256.35Y-112.55
X256.422Y-151.231
X256.73Y-158.242
X256.75Y-133.75
X256.9Y-158.892
X257.25Y-168.5
X257.6Y-89.9
X257.736Y-111.6
X258.0Y-160.2
X258.05Y-61.7
X258.4Y-88.99
X258.577Y-110.1
X259.0Y-55.0
X259.0Y-136.0
X259.1Y-161.2
X259.3Y-109.5
X260.35Y-107.7
X261.0Y-107.0
X261.1Y-96.8
X261.75Y-138.75
X261.75Y-144.25
X261.75Y-158.25
X261.75Y-161.5
X261.75Y-164.25
X262.0Y-56.0
X262.0Y-60.0
X262.0Y-64.0
X262.0Y-68.5
X262.0Y-72.5
X262.0Y-76.5
X262.0Y-80.5
X262.0Y-84.5
X262.0Y-88.5
X262.0Y-93.0
X262.0Y-97.0
T2
X245.51Y-119.5
X245.51Y-120.9
X245.51Y-122.3
X245.51Y-123.7
X246.91Y-119.5
X246.91Y-120.9
X246.91Y-122.3
X246.91Y-123.7
X248.265Y-151.812
X248.31Y-119.5
X248.31Y-120.9
X248.31Y-122.3
X248.31Y-123.7
X249.04Y-151.037
X249.04Y-152.587
X249.71Y-119.5
X249.71Y-120.9
X249.71Y-122.3
X249.71Y-123.7
X249.815Y-151.812
T4
X232.45Y-42.0
X232.45Y-47.0
X232.55Y11.333
X232.55Y6.333
X235.8Y36.8
X235.8Y34.3
X238.3Y36.8
X238.3Y34.3
X238.7Y-42.0
X238.7Y-44.5
X238.7Y-47.0
X238.8Y11.333
X238.8Y8.833
X238.8Y6.333
X240.8Y36.8
X240.8Y34.3
T5
X238.3Y-15.667
X238.3Y-18.167
X238.3Y-20.667
T6
X230.5Y-65.0
X230.5Y-80.0
X230.5Y-85.0
X230.5Y-90.0
X238.0Y-65.0
X238.0Y-80.0
X238.0Y-85.0
X238.0Y-90.0
T7
X214.5Y-137.0
X219.5Y-137.0
X223.4Y-102.525
X224.5Y-137.0
X228.0Y-167.4
X228.6Y-102.0
X232.6Y-98.0
X238.0Y-167.3
X254.7Y-144.3
X255.5Y-138.0
X260.6Y-102.0
T8
X230.0Y28.0
X230.0Y21.0
X230.0Y-0.667
X230.0Y-7.667
X234.0Y28.0
X234.0Y21.0
X234.0Y-0.667
X234.0Y-7.667
T9
X212.855Y-86.955
X212.855Y-90.915
X212.855Y-94.875
X212.855Y-98.835
X212.855Y-102.795
T10
X209.7Y30.0
X210.0Y-50.5
X210.0Y-108.75
X210.25Y-139.75
X211.8Y-57.8
X221.0Y-166.3
X226.3Y-50.5
X243.3Y-33.5
X243.8Y43.0
X243.8Y27.0
X259.8Y-58.2
X259.8Y-141.2
X260.0Y-166.5
T11
X214.926Y-44.163
X245.0Y-55.8
X245.0Y-168.0
T12
X256.435Y-149.022
X256.435Y-154.802
T3
G00X255.385Y-147.592
M15
G01X256.485Y-147.592
M16
G05
G00X255.385Y-156.232
M15
G01X256.485Y-156.232
M16
G05
G00X259.715Y-147.592
M15
G01X260.515Y-147.592
M16
G05
G00X259.715Y-156.232
M15
G01X260.515Y-156.232
M16
G05
M30
