%TF.GenerationSoftware,KiCad,Pcbnew,10.0.0*%
%TF.CreationDate,2026-03-30T17:06:09+02:00*%
%TF.ProjectId,e003_rocker,65303033-5f72-46f6-936b-65722e6b6963,rev?*%
%TF.SameCoordinates,Original*%
%TF.FileFunction,Soldermask,Bot*%
%TF.FilePolarity,Negative*%
%FSLAX46Y46*%
G04 Gerber Fmt 4.6, Leading zero omitted, Abs format (unit mm)*
G04 Created by KiCad (PCBNEW 10.0.0) date 2026-03-30 17:06:09*
%MOMM*%
%LPD*%
G01*
G04 APERTURE LIST*
G04 Aperture macros list*
%AMRoundRect*
0 Rectangle with rounded corners*
0 $1 Rounding radius*
0 $2 $3 $4 $5 $6 $7 $8 $9 X,Y pos of 4 corners*
0 Add a 4 corners polygon primitive as box body*
4,1,4,$2,$3,$4,$5,$6,$7,$8,$9,$2,$3,0*
0 Add four circle primitives for the rounded corners*
1,1,$1+$1,$2,$3*
1,1,$1+$1,$4,$5*
1,1,$1+$1,$6,$7*
1,1,$1+$1,$8,$9*
0 Add four rect primitives between the rounded corners*
20,1,$1+$1,$2,$3,$4,$5,0*
20,1,$1+$1,$4,$5,$6,$7,0*
20,1,$1+$1,$6,$7,$8,$9,0*
20,1,$1+$1,$8,$9,$2,$3,0*%
G04 Aperture macros list end*
%ADD10C,0.650000*%
%ADD11O,2.100000X1.000000*%
%ADD12O,1.800000X1.000000*%
%ADD13C,0.600000*%
%ADD14C,4.500000*%
%ADD15C,2.800000*%
%ADD16RoundRect,0.102000X-1.500000X1.500000X-1.500000X-1.500000X1.500000X-1.500000X1.500000X1.500000X0*%
%ADD17C,3.204000*%
%ADD18C,1.950000*%
%ADD19RoundRect,0.102000X-0.754000X-0.754000X0.754000X-0.754000X0.754000X0.754000X-0.754000X0.754000X0*%
%ADD20C,1.712000*%
%ADD21C,1.650000*%
%ADD22C,1.500000*%
G04 APERTURE END LIST*
D10*
%TO.C,J1*%
X256435000Y-154802000D03*
X256435000Y-149022000D03*
D11*
X255935000Y-156232000D03*
D12*
X260115000Y-156232000D03*
D11*
X255935000Y-147592000D03*
D12*
X260115000Y-147592000D03*
%TD*%
D13*
%TO.C,U1*%
X248265000Y-151812000D03*
X249040000Y-151037000D03*
X249040000Y-152587000D03*
X249815000Y-151812000D03*
%TD*%
D14*
%TO.C,M7*%
X210000000Y-50500000D03*
%TD*%
D15*
%TO.C,TP5*%
X219500000Y-137000000D03*
%TD*%
D14*
%TO.C,M2*%
X260000000Y-166500000D03*
%TD*%
%TO.C,M13*%
X210000000Y-108750000D03*
%TD*%
D15*
%TO.C,TP7*%
X228600000Y-102000000D03*
%TD*%
D16*
%TO.C,J5*%
X212855000Y-86955000D03*
D17*
X212855000Y-90915000D03*
X212855000Y-94875000D03*
X212855000Y-98835000D03*
X212855000Y-102795000D03*
%TD*%
D14*
%TO.C,M10*%
X243800000Y27000000D03*
%TD*%
%TO.C,M6*%
X209700000Y30000000D03*
%TD*%
%TO.C,M11*%
X259800000Y-141200000D03*
%TD*%
D15*
%TO.C,TP3*%
X255500000Y-138000000D03*
%TD*%
%TO.C,TP9*%
X260600000Y-102000000D03*
%TD*%
D18*
%TO.C,K1*%
X238000000Y-90000000D03*
X230500000Y-90000000D03*
X238000000Y-85000000D03*
X230500000Y-85000000D03*
X238000000Y-80000000D03*
X230500000Y-80000000D03*
X238000000Y-65000000D03*
X230500000Y-65000000D03*
%TD*%
D14*
%TO.C,M8*%
X226300000Y-50500000D03*
%TD*%
%TO.C,M1*%
X211800000Y-57800000D03*
%TD*%
D13*
%TO.C,MK1*%
X245000000Y-168000000D03*
%TD*%
D14*
%TO.C,M4*%
X259800000Y-58200000D03*
%TD*%
D15*
%TO.C,TP10*%
X232600000Y-98000000D03*
%TD*%
D14*
%TO.C,M5*%
X221000000Y-166300000D03*
%TD*%
D15*
%TO.C,TP4*%
X214500000Y-137000000D03*
%TD*%
D19*
%TO.C,S3*%
X240800000Y34300000D03*
D20*
X238300000Y34300000D03*
X235800000Y34300000D03*
X240800000Y36800000D03*
X238300000Y36800000D03*
X235800000Y36800000D03*
%TD*%
D15*
%TO.C,TP8*%
X223400000Y-102525000D03*
%TD*%
D21*
%TO.C,VR1*%
X238300000Y-20666700D03*
X238300000Y-18166700D03*
X238300000Y-15666700D03*
%TD*%
D13*
%TO.C,MK3*%
X214926000Y-44162500D03*
%TD*%
D15*
%TO.C,TP13*%
X228000000Y-167400000D03*
%TD*%
%TO.C,TP2*%
X254700000Y-144300000D03*
%TD*%
D14*
%TO.C,M3*%
X243800000Y43000000D03*
%TD*%
%TO.C,M9*%
X243300000Y-33500000D03*
%TD*%
D22*
%TO.C,VR3*%
X238800000Y6333300D03*
X238800000Y8833300D03*
X238800000Y11333300D03*
X232550000Y6333300D03*
X232550000Y11333300D03*
%TD*%
D15*
%TO.C,TP1*%
X238000000Y-167300000D03*
%TD*%
%TO.C,TP6*%
X224500000Y-137000000D03*
%TD*%
D22*
%TO.C,VR2*%
X238700000Y-47000000D03*
X238700000Y-44500000D03*
X238700000Y-42000000D03*
X232450000Y-47000000D03*
X232450000Y-42000000D03*
%TD*%
D13*
%TO.C,MK2*%
X245000000Y-55800000D03*
%TD*%
D14*
%TO.C,M12*%
X210250000Y-139750000D03*
%TD*%
M02*
